G04 Layer_Color=16711935*
%FSLAX24Y24*%
%MOIN*%
G70*
G01*
G75*
%ADD65R,0.1261X0.1261*%
%ADD66C,0.0671*%
%ADD67R,0.1261X0.1261*%
%ADD68R,0.0680X0.0680*%
%ADD69C,0.0680*%
%ADD70C,0.1458*%
%ADD71R,0.0867X0.0867*%
%ADD72C,0.0789*%
%ADD73C,0.1655*%
%ADD74C,0.0237*%
D65*
X133997Y2683D02*
D03*
X135997D02*
D03*
X137997D02*
D03*
D66*
X146625Y6235D02*
D03*
Y5251D02*
D03*
Y4267D02*
D03*
Y14751D02*
D03*
Y15735D02*
D03*
Y11985D02*
D03*
Y11001D02*
D03*
Y10017D02*
D03*
Y9033D02*
D03*
D67*
X155906Y13800D02*
D03*
Y11800D02*
D03*
Y18250D02*
D03*
Y16250D02*
D03*
Y7800D02*
D03*
Y9800D02*
D03*
D68*
X151604Y1647D02*
D03*
D69*
Y2651D02*
D03*
Y3655D02*
D03*
Y4659D02*
D03*
X150610Y2149D02*
D03*
X150600Y3153D02*
D03*
Y5161D02*
D03*
Y4157D02*
D03*
D70*
X154094Y5574D02*
D03*
Y1066D02*
D03*
D71*
X21326Y5316D02*
D03*
X23137D02*
D03*
X27389D02*
D03*
X29200D02*
D03*
D72*
X1024Y16767D02*
D03*
Y15767D02*
D03*
Y14767D02*
D03*
Y13767D02*
D03*
Y12767D02*
D03*
Y11772D02*
D03*
Y10772D02*
D03*
Y9772D02*
D03*
Y8772D02*
D03*
Y7772D02*
D03*
Y6767D02*
D03*
Y5767D02*
D03*
Y4767D02*
D03*
Y3767D02*
D03*
Y2767D02*
D03*
X2033Y3767D02*
D03*
Y2767D02*
D03*
Y4767D02*
D03*
Y5767D02*
D03*
Y6767D02*
D03*
Y7772D02*
D03*
Y8772D02*
D03*
Y9772D02*
D03*
Y10772D02*
D03*
Y11772D02*
D03*
Y12767D02*
D03*
Y13767D02*
D03*
Y14767D02*
D03*
Y15767D02*
D03*
Y16767D02*
D03*
D73*
X141732Y5906D02*
D03*
Y13780D02*
D03*
X102362Y5906D02*
D03*
Y13780D02*
D03*
X59055Y5906D02*
D03*
Y13780D02*
D03*
X7874D02*
D03*
Y5906D02*
D03*
D74*
X91250Y10200D02*
D03*
X148600Y1750D02*
D03*
M02*
