G04 Layer_Color=255*
%FSLAX24Y24*%
%MOIN*%
G70*
G01*
G75*
%ADD25C,0.2756*%
%ADD31R,0.1181X0.1181*%
%ADD32C,0.0591*%
%ADD33R,0.1181X0.1181*%
%ADD34R,0.0600X0.0600*%
%ADD35C,0.0600*%
%ADD36C,0.1378*%
%ADD37R,0.0787X0.0787*%
%ADD38C,0.0709*%
%ADD39C,0.1575*%
%ADD40P,0.0213X8X22.5*%
D25*
X141732Y13780D02*
D03*
Y5906D02*
D03*
X102362Y13780D02*
D03*
Y5906D02*
D03*
X59055Y13780D02*
D03*
Y5906D02*
D03*
X7874Y13780D02*
D03*
Y5906D02*
D03*
D31*
X133997Y2683D02*
D03*
X135997D02*
D03*
X137997D02*
D03*
D32*
X146625Y6235D02*
D03*
Y5251D02*
D03*
Y4267D02*
D03*
Y14751D02*
D03*
Y15735D02*
D03*
Y11985D02*
D03*
Y11001D02*
D03*
Y10017D02*
D03*
Y9033D02*
D03*
D33*
X155906Y13800D02*
D03*
Y11800D02*
D03*
Y18250D02*
D03*
Y16250D02*
D03*
Y7800D02*
D03*
Y9800D02*
D03*
D34*
X151604Y1647D02*
D03*
D35*
Y2651D02*
D03*
Y3655D02*
D03*
Y4659D02*
D03*
X150610Y2149D02*
D03*
X150600Y3153D02*
D03*
Y5161D02*
D03*
Y4157D02*
D03*
D36*
X154094Y5574D02*
D03*
Y1066D02*
D03*
D37*
X21326Y5316D02*
D03*
X23137D02*
D03*
X27389D02*
D03*
X29200D02*
D03*
D38*
X1024Y16767D02*
D03*
Y15767D02*
D03*
Y14767D02*
D03*
Y13767D02*
D03*
Y12767D02*
D03*
Y11772D02*
D03*
Y10772D02*
D03*
Y9772D02*
D03*
Y8772D02*
D03*
Y7772D02*
D03*
Y6767D02*
D03*
Y5767D02*
D03*
Y4767D02*
D03*
Y3767D02*
D03*
Y2767D02*
D03*
X2033Y3767D02*
D03*
Y2767D02*
D03*
Y4767D02*
D03*
Y5767D02*
D03*
Y6767D02*
D03*
Y7772D02*
D03*
Y8772D02*
D03*
Y9772D02*
D03*
Y10772D02*
D03*
Y11772D02*
D03*
Y12767D02*
D03*
Y13767D02*
D03*
Y14767D02*
D03*
Y15767D02*
D03*
Y16767D02*
D03*
D39*
X141732Y5906D02*
D03*
Y13780D02*
D03*
X102362Y5906D02*
D03*
Y13780D02*
D03*
X59055Y5906D02*
D03*
Y13780D02*
D03*
X7874D02*
D03*
Y5906D02*
D03*
D40*
X113350Y2000D02*
D03*
X109550Y3150D02*
D03*
Y16450D02*
D03*
M02*
