G04 Layer_Physical_Order=2*
G04 Layer_Color=16711680*
%FSLAX24Y24*%
%MOIN*%
G70*
G01*
G75*
%ADD25C,0.2756*%
%ADD27C,0.0394*%
%ADD28C,0.0591*%
%ADD30C,0.0276*%
%ADD31R,0.1181X0.1181*%
%ADD32C,0.0591*%
%ADD33R,0.1181X0.1181*%
%ADD34R,0.0600X0.0600*%
%ADD35C,0.0600*%
%ADD36C,0.1378*%
%ADD37R,0.0787X0.0787*%
%ADD38C,0.0709*%
%ADD39C,0.1575*%
%ADD40P,0.0213X8X22.5*%
%ADD41C,0.0157*%
G36*
X157369Y111D02*
X111D01*
Y19574D01*
X157369D01*
Y111D01*
D02*
G37*
%LPC*%
G36*
X154044Y6362D02*
X153940Y6352D01*
X153791Y6306D01*
X153654Y6233D01*
X153534Y6135D01*
X153435Y6014D01*
X153362Y5877D01*
X153317Y5729D01*
X153307Y5624D01*
X154044D01*
Y6362D01*
D02*
G37*
G36*
X2033Y6184D02*
X1925Y6170D01*
X1825Y6128D01*
X1738Y6062D01*
X1672Y5975D01*
X1630Y5875D01*
X1616Y5767D01*
X1630Y5659D01*
X1672Y5558D01*
X1738Y5472D01*
X1825Y5406D01*
X1925Y5364D01*
X2033Y5350D01*
X2141Y5364D01*
X2242Y5406D01*
X2328Y5472D01*
X2394Y5558D01*
X2436Y5659D01*
X2450Y5767D01*
X2436Y5875D01*
X2394Y5975D01*
X2328Y6062D01*
X2242Y6128D01*
X2141Y6170D01*
X2033Y6184D01*
D02*
G37*
G36*
X1024D02*
X916Y6170D01*
X815Y6128D01*
X729Y6062D01*
X663Y5975D01*
X621Y5875D01*
X607Y5767D01*
X621Y5659D01*
X663Y5558D01*
X729Y5472D01*
X815Y5406D01*
X916Y5364D01*
X1024Y5350D01*
X1132Y5364D01*
X1232Y5406D01*
X1318Y5472D01*
X1385Y5558D01*
X1426Y5659D01*
X1441Y5767D01*
X1426Y5875D01*
X1385Y5975D01*
X1318Y6062D01*
X1232Y6128D01*
X1132Y6170D01*
X1024Y6184D01*
D02*
G37*
G36*
X154144Y6362D02*
Y5624D01*
X154882D01*
X154872Y5729D01*
X154827Y5877D01*
X154754Y6014D01*
X154655Y6135D01*
X154535Y6233D01*
X154398Y6306D01*
X154249Y6352D01*
X154144Y6362D01*
D02*
G37*
G36*
X1024Y7184D02*
X916Y7170D01*
X815Y7128D01*
X729Y7062D01*
X663Y6975D01*
X621Y6875D01*
X607Y6767D01*
X621Y6659D01*
X663Y6558D01*
X729Y6472D01*
X815Y6406D01*
X916Y6364D01*
X1024Y6350D01*
X1132Y6364D01*
X1232Y6406D01*
X1318Y6472D01*
X1385Y6558D01*
X1426Y6659D01*
X1441Y6767D01*
X1426Y6875D01*
X1385Y6975D01*
X1318Y7062D01*
X1232Y7128D01*
X1132Y7170D01*
X1024Y7184D01*
D02*
G37*
G36*
X145261Y7858D02*
X138913D01*
X138847Y7849D01*
X138784Y7824D01*
X138731Y7783D01*
X134281Y3333D01*
X133347D01*
Y2034D01*
X134646D01*
Y2968D01*
X139020Y7342D01*
X141345D01*
X141351Y7292D01*
X141287Y7276D01*
X141078Y7190D01*
X140885Y7072D01*
X140713Y6925D01*
X140566Y6753D01*
X140448Y6560D01*
X140361Y6351D01*
X140309Y6131D01*
X140291Y5906D01*
X140309Y5680D01*
X140361Y5460D01*
X140448Y5251D01*
X140566Y5058D01*
X140713Y4886D01*
X140885Y4739D01*
X141078Y4621D01*
X141287Y4535D01*
X141507Y4482D01*
X141732Y4464D01*
X141958Y4482D01*
X142178Y4535D01*
X142387Y4621D01*
X142580Y4739D01*
X142752Y4886D01*
X142898Y5058D01*
X143017Y5251D01*
X143103Y5460D01*
X143156Y5680D01*
X143174Y5906D01*
X143156Y6131D01*
X143103Y6351D01*
X143017Y6560D01*
X142898Y6753D01*
X142752Y6925D01*
X142580Y7072D01*
X142387Y7190D01*
X142178Y7276D01*
X142113Y7292D01*
X142119Y7342D01*
X145154D01*
X146269Y6227D01*
X146280Y6143D01*
X146316Y6057D01*
X146372Y5983D01*
X146447Y5926D01*
X146533Y5890D01*
X146625Y5878D01*
X146718Y5890D01*
X146804Y5926D01*
X146878Y5983D01*
X146935Y6057D01*
X146970Y6143D01*
X146983Y6235D01*
X146970Y6328D01*
X146935Y6414D01*
X146878Y6488D01*
X146804Y6545D01*
X146718Y6581D01*
X146634Y6592D01*
X145443Y7783D01*
X145390Y7824D01*
X145327Y7849D01*
X145261Y7858D01*
D02*
G37*
G36*
X34750Y18107D02*
X32900D01*
X32808Y18095D01*
X32721Y18060D01*
X32647Y18003D01*
X28947Y14303D01*
X28890Y14229D01*
X28855Y14143D01*
X28843Y14050D01*
Y5768D01*
X28747D01*
Y5673D01*
X27842D01*
Y5768D01*
X26936D01*
Y4863D01*
X27842D01*
Y4958D01*
X28747D01*
Y4863D01*
X29653D01*
Y5768D01*
X29557D01*
Y13902D01*
X33048Y17393D01*
X34750D01*
X34843Y17405D01*
X34929Y17440D01*
X35003Y17497D01*
X35060Y17571D01*
X35095Y17658D01*
X35107Y17750D01*
X35095Y17843D01*
X35060Y17929D01*
X35003Y18003D01*
X34929Y18060D01*
X34843Y18095D01*
X34750Y18107D01*
D02*
G37*
G36*
X154882Y5524D02*
X154144D01*
Y4786D01*
X154249Y4796D01*
X154398Y4842D01*
X154535Y4915D01*
X154655Y5013D01*
X154754Y5134D01*
X154827Y5271D01*
X154872Y5419D01*
X154882Y5524D01*
D02*
G37*
G36*
X154044D02*
X153307D01*
X153317Y5419D01*
X153362Y5271D01*
X153435Y5134D01*
X153534Y5013D01*
X153654Y4915D01*
X153791Y4842D01*
X153940Y4796D01*
X154044Y4786D01*
Y5524D01*
D02*
G37*
G36*
X150997Y5111D02*
X150650D01*
Y4764D01*
X150705Y4771D01*
X150802Y4811D01*
X150886Y4875D01*
X150950Y4959D01*
X150990Y5056D01*
X150997Y5111D01*
D02*
G37*
G36*
X24500Y13308D02*
X24433Y13299D01*
X24371Y13274D01*
X24317Y13233D01*
X22954Y11870D01*
X22913Y11816D01*
X22888Y11754D01*
X22879Y11687D01*
Y5768D01*
X22684D01*
Y4863D01*
X23590D01*
Y5768D01*
X23395D01*
Y11580D01*
X24683Y12867D01*
X24724Y12921D01*
X24749Y12983D01*
X24758Y13050D01*
X24749Y13117D01*
X24724Y13179D01*
X24683Y13233D01*
X24629Y13274D01*
X24567Y13299D01*
X24500Y13308D01*
D02*
G37*
G36*
X150650Y5558D02*
Y5211D01*
X150997D01*
X150990Y5265D01*
X150950Y5362D01*
X150886Y5446D01*
X150802Y5510D01*
X150705Y5550D01*
X150650Y5558D01*
D02*
G37*
G36*
X150550D02*
X150496Y5550D01*
X150399Y5510D01*
X150315Y5446D01*
X150251Y5362D01*
X150211Y5265D01*
X150204Y5211D01*
X150550D01*
Y5558D01*
D02*
G37*
G36*
X98000Y5657D02*
X94750D01*
X94657Y5645D01*
X94571Y5610D01*
X94497Y5553D01*
X94440Y5479D01*
X94405Y5393D01*
X94393Y5300D01*
X94405Y5207D01*
X94440Y5121D01*
X94497Y5047D01*
X94571Y4990D01*
X94657Y4955D01*
X94750Y4943D01*
X98000D01*
X98092Y4955D01*
X98179Y4990D01*
X98253Y5047D01*
X98310Y5121D01*
X98345Y5207D01*
X98357Y5300D01*
X98345Y5393D01*
X98310Y5479D01*
X98253Y5553D01*
X98179Y5610D01*
X98092Y5645D01*
X98000Y5657D01*
D02*
G37*
G36*
X1024Y9189D02*
X916Y9174D01*
X815Y9133D01*
X729Y9066D01*
X663Y8980D01*
X621Y8880D01*
X607Y8772D01*
X621Y8664D01*
X663Y8563D01*
X729Y8477D01*
X815Y8411D01*
X916Y8369D01*
X1024Y8355D01*
X1132Y8369D01*
X1232Y8411D01*
X1318Y8477D01*
X1385Y8563D01*
X1426Y8664D01*
X1441Y8772D01*
X1426Y8880D01*
X1385Y8980D01*
X1318Y9066D01*
X1232Y9133D01*
X1132Y9174D01*
X1024Y9189D01*
D02*
G37*
G36*
X156596Y8491D02*
X155956D01*
Y7850D01*
X156596D01*
Y8491D01*
D02*
G37*
G36*
X155856D02*
X155215D01*
Y7850D01*
X155856D01*
Y8491D01*
D02*
G37*
G36*
X2033Y9189D02*
X1925Y9174D01*
X1825Y9133D01*
X1738Y9066D01*
X1672Y8980D01*
X1630Y8880D01*
X1616Y8772D01*
X1630Y8664D01*
X1672Y8563D01*
X1738Y8477D01*
X1825Y8411D01*
X1925Y8369D01*
X2033Y8355D01*
X2141Y8369D01*
X2242Y8411D01*
X2328Y8477D01*
X2394Y8563D01*
X2436Y8664D01*
X2450Y8772D01*
X2436Y8880D01*
X2394Y8980D01*
X2328Y9066D01*
X2242Y9133D01*
X2141Y9174D01*
X2033Y9189D01*
D02*
G37*
G36*
X146575Y9425D02*
X146522Y9418D01*
X146426Y9378D01*
X146343Y9315D01*
X146280Y9232D01*
X146240Y9136D01*
X146233Y9083D01*
X146575D01*
Y9425D01*
D02*
G37*
G36*
X147017Y8983D02*
X146675D01*
Y8641D01*
X146728Y8648D01*
X146825Y8687D01*
X146907Y8751D01*
X146970Y8833D01*
X147010Y8929D01*
X147017Y8983D01*
D02*
G37*
G36*
X146575D02*
X146233D01*
X146240Y8929D01*
X146280Y8833D01*
X146343Y8751D01*
X146426Y8687D01*
X146522Y8648D01*
X146575Y8641D01*
Y8983D01*
D02*
G37*
G36*
X98550Y13007D02*
X98457Y12995D01*
X98371Y12960D01*
X98297Y12903D01*
X98240Y12829D01*
X98205Y12743D01*
X98193Y12650D01*
X98205Y12557D01*
X98240Y12471D01*
X98297Y12397D01*
X103817Y6877D01*
X103840Y6821D01*
X103897Y6747D01*
X103971Y6690D01*
X104058Y6655D01*
X104150Y6643D01*
X104242Y6655D01*
X104329Y6690D01*
X104403Y6747D01*
X104460Y6821D01*
X104495Y6908D01*
X104507Y7000D01*
Y7050D01*
X104495Y7143D01*
X104460Y7229D01*
X104403Y7303D01*
X98803Y12903D01*
X98729Y12960D01*
X98643Y12995D01*
X98550Y13007D01*
D02*
G37*
G36*
X91250Y10557D02*
X91158Y10545D01*
X91071Y10510D01*
X90997Y10453D01*
X87747Y7203D01*
X87690Y7129D01*
X87655Y7042D01*
X87643Y6950D01*
X87655Y6858D01*
X87690Y6771D01*
X87747Y6697D01*
X87821Y6640D01*
X87907Y6605D01*
X88000Y6593D01*
X88092Y6605D01*
X88179Y6640D01*
X88253Y6697D01*
X91503Y9947D01*
X91560Y10021D01*
X91595Y10108D01*
X91607Y10200D01*
X91595Y10293D01*
X91560Y10379D01*
X91503Y10453D01*
X91429Y10510D01*
X91342Y10545D01*
X91250Y10557D01*
D02*
G37*
G36*
X2033Y7184D02*
X1925Y7170D01*
X1825Y7128D01*
X1738Y7062D01*
X1672Y6975D01*
X1630Y6875D01*
X1616Y6767D01*
X1630Y6659D01*
X1672Y6558D01*
X1738Y6472D01*
X1825Y6406D01*
X1925Y6364D01*
X2033Y6350D01*
X2141Y6364D01*
X2242Y6406D01*
X2328Y6472D01*
X2394Y6558D01*
X2436Y6659D01*
X2450Y6767D01*
X2436Y6875D01*
X2394Y6975D01*
X2328Y7062D01*
X2242Y7128D01*
X2141Y7170D01*
X2033Y7184D01*
D02*
G37*
G36*
X155856Y7750D02*
X155215D01*
Y7109D01*
X155856D01*
Y7750D01*
D02*
G37*
G36*
X2033Y8189D02*
X1925Y8174D01*
X1825Y8133D01*
X1738Y8066D01*
X1672Y7980D01*
X1630Y7880D01*
X1616Y7772D01*
X1630Y7664D01*
X1672Y7563D01*
X1738Y7477D01*
X1825Y7411D01*
X1925Y7369D01*
X2033Y7355D01*
X2141Y7369D01*
X2242Y7411D01*
X2328Y7477D01*
X2394Y7563D01*
X2436Y7664D01*
X2450Y7772D01*
X2436Y7880D01*
X2394Y7980D01*
X2328Y8066D01*
X2242Y8133D01*
X2141Y8174D01*
X2033Y8189D01*
D02*
G37*
G36*
X1024D02*
X916Y8174D01*
X815Y8133D01*
X729Y8066D01*
X663Y7980D01*
X621Y7880D01*
X607Y7772D01*
X621Y7664D01*
X663Y7563D01*
X729Y7477D01*
X815Y7411D01*
X916Y7369D01*
X1024Y7355D01*
X1132Y7369D01*
X1232Y7411D01*
X1318Y7477D01*
X1385Y7563D01*
X1426Y7664D01*
X1441Y7772D01*
X1426Y7880D01*
X1385Y7980D01*
X1318Y8066D01*
X1232Y8133D01*
X1132Y8174D01*
X1024Y8189D01*
D02*
G37*
G36*
X156596Y7750D02*
X155956D01*
Y7109D01*
X156596D01*
Y7750D01*
D02*
G37*
G36*
X150550Y5111D02*
X150204D01*
X150211Y5056D01*
X150251Y4959D01*
X150315Y4875D01*
X150399Y4811D01*
X150496Y4771D01*
X150550Y4764D01*
Y5111D01*
D02*
G37*
G36*
X113548Y1950D02*
X113400D01*
Y1802D01*
X113449D01*
X113548Y1901D01*
Y1950D01*
D02*
G37*
G36*
X113300D02*
X113152D01*
Y1901D01*
X113251Y1802D01*
X113300D01*
Y1950D01*
D02*
G37*
G36*
X150610Y2511D02*
X150517Y2499D01*
X150429Y2462D01*
X150354Y2405D01*
X150297Y2330D01*
X150260Y2243D01*
X150248Y2149D01*
X150260Y2055D01*
X150297Y1968D01*
X150354Y1893D01*
X150429Y1835D01*
X150517Y1799D01*
X150610Y1787D01*
X150704Y1799D01*
X150791Y1835D01*
X150866Y1893D01*
X150924Y1968D01*
X150960Y2055D01*
X150972Y2149D01*
X150960Y2243D01*
X150924Y2330D01*
X150866Y2405D01*
X150791Y2462D01*
X150704Y2499D01*
X150610Y2511D01*
D02*
G37*
G36*
X146625Y5609D02*
X146533Y5596D01*
X146447Y5561D01*
X146372Y5504D01*
X146316Y5430D01*
X146280Y5344D01*
X146269Y5260D01*
X144917Y3908D01*
X136963D01*
X136897Y3899D01*
X136834Y3874D01*
X136781Y3833D01*
X136281Y3333D01*
X135347D01*
Y2034D01*
X136646D01*
Y2968D01*
X137070Y3392D01*
X145024D01*
X145091Y3401D01*
X145153Y3426D01*
X145207Y3467D01*
X146634Y4895D01*
X146718Y4906D01*
X146804Y4942D01*
X146878Y4998D01*
X146935Y5072D01*
X146970Y5159D01*
X146983Y5251D01*
X146970Y5344D01*
X146935Y5430D01*
X146878Y5504D01*
X146804Y5561D01*
X146718Y5596D01*
X146625Y5609D01*
D02*
G37*
G36*
X113449Y2198D02*
X113400D01*
Y2050D01*
X113548D01*
Y2099D01*
X113449Y2198D01*
D02*
G37*
G36*
X113300D02*
X113251D01*
X113152Y2099D01*
Y2050D01*
X113300D01*
Y2198D01*
D02*
G37*
G36*
X138646Y3333D02*
X137347D01*
Y2034D01*
X138646D01*
Y3333D01*
D02*
G37*
G36*
X154882Y1016D02*
X154144D01*
Y278D01*
X154249Y289D01*
X154398Y334D01*
X154535Y407D01*
X154655Y506D01*
X154754Y626D01*
X154827Y763D01*
X154872Y911D01*
X154882Y1016D01*
D02*
G37*
G36*
X154044D02*
X153307D01*
X153317Y911D01*
X153362Y763D01*
X153435Y626D01*
X153534Y506D01*
X153654Y407D01*
X153791Y334D01*
X153940Y289D01*
X154044Y278D01*
Y1016D01*
D02*
G37*
G36*
X109748Y3100D02*
X109352D01*
Y3051D01*
X109334Y3008D01*
X106000D01*
X105933Y2999D01*
X105871Y2974D01*
X105817Y2933D01*
X105776Y2879D01*
X105751Y2817D01*
X105742Y2750D01*
X105751Y2683D01*
X105776Y2621D01*
X105817Y2567D01*
X105871Y2526D01*
X105933Y2501D01*
X106000Y2492D01*
X110893D01*
X113067Y317D01*
X113121Y276D01*
X113183Y251D01*
X113250Y242D01*
X117000D01*
X117067Y251D01*
X117129Y276D01*
X117183Y317D01*
X117224Y371D01*
X117249Y433D01*
X117258Y500D01*
X117249Y567D01*
X117224Y629D01*
X117183Y683D01*
X117129Y724D01*
X117067Y749D01*
X117000Y758D01*
X113357D01*
X111183Y2933D01*
X111129Y2974D01*
X111067Y2999D01*
X111000Y3008D01*
X109766D01*
X109748Y3051D01*
Y3100D01*
D02*
G37*
G36*
X154044Y1854D02*
X153940Y1844D01*
X153791Y1799D01*
X153654Y1725D01*
X153534Y1627D01*
X153435Y1507D01*
X153362Y1370D01*
X153317Y1221D01*
X153307Y1116D01*
X154044D01*
Y1854D01*
D02*
G37*
G36*
X111150Y1858D02*
X106000D01*
X105933Y1849D01*
X105871Y1824D01*
X105817Y1783D01*
X105776Y1729D01*
X105751Y1667D01*
X105742Y1600D01*
X105751Y1533D01*
X105776Y1471D01*
X105817Y1417D01*
X105871Y1376D01*
X105933Y1351D01*
X106000Y1342D01*
X111150D01*
X111217Y1351D01*
X111279Y1376D01*
X111333Y1417D01*
X111374Y1471D01*
X111399Y1533D01*
X111408Y1600D01*
X111399Y1667D01*
X111374Y1729D01*
X111333Y1783D01*
X111279Y1824D01*
X111217Y1849D01*
X111150Y1858D01*
D02*
G37*
G36*
X151963Y2006D02*
X151245D01*
Y1288D01*
X151963D01*
Y2006D01*
D02*
G37*
G36*
X154144Y1854D02*
Y1116D01*
X154882D01*
X154872Y1221D01*
X154827Y1370D01*
X154754Y1507D01*
X154655Y1627D01*
X154535Y1725D01*
X154398Y1799D01*
X154249Y1844D01*
X154144Y1854D01*
D02*
G37*
G36*
X1024Y5184D02*
X916Y5170D01*
X815Y5128D01*
X729Y5062D01*
X663Y4975D01*
X621Y4875D01*
X607Y4767D01*
X621Y4659D01*
X663Y4558D01*
X729Y4472D01*
X815Y4406D01*
X916Y4364D01*
X1024Y4350D01*
X1132Y4364D01*
X1232Y4406D01*
X1318Y4472D01*
X1385Y4558D01*
X1426Y4659D01*
X1441Y4767D01*
X1426Y4875D01*
X1385Y4975D01*
X1318Y5062D01*
X1232Y5128D01*
X1132Y5170D01*
X1024Y5184D01*
D02*
G37*
G36*
X151604Y5021D02*
X151511Y5008D01*
X151423Y4972D01*
X151348Y4915D01*
X151291Y4840D01*
X151255Y4752D01*
X151242Y4659D01*
X151255Y4565D01*
X151291Y4478D01*
X151348Y4403D01*
X151423Y4345D01*
X151511Y4309D01*
X151604Y4297D01*
X151698Y4309D01*
X151785Y4345D01*
X151860Y4403D01*
X151918Y4478D01*
X151954Y4565D01*
X151966Y4659D01*
X151954Y4752D01*
X151918Y4840D01*
X151860Y4915D01*
X151785Y4972D01*
X151698Y5008D01*
X151604Y5021D01*
D02*
G37*
G36*
X30000Y17057D02*
X22450D01*
X22357Y17045D01*
X22271Y17010D01*
X22197Y16953D01*
X20947Y15703D01*
X20890Y15629D01*
X20855Y15543D01*
X20843Y15450D01*
Y7148D01*
X17819Y4124D01*
X2246D01*
X2242Y4128D01*
X2141Y4170D01*
X2033Y4184D01*
X1925Y4170D01*
X1825Y4128D01*
X1820Y4124D01*
X1237D01*
X1232Y4128D01*
X1132Y4170D01*
X1024Y4184D01*
X916Y4170D01*
X815Y4128D01*
X729Y4062D01*
X663Y3975D01*
X621Y3875D01*
X607Y3767D01*
X621Y3659D01*
X663Y3558D01*
X729Y3472D01*
X815Y3406D01*
X916Y3364D01*
X1024Y3350D01*
X1132Y3364D01*
X1232Y3406D01*
X1237Y3410D01*
X1820D01*
X1825Y3406D01*
X1925Y3364D01*
X2033Y3350D01*
X2141Y3364D01*
X2242Y3406D01*
X2246Y3410D01*
X17967D01*
X18059Y3422D01*
X18146Y3457D01*
X18220Y3514D01*
X21453Y6747D01*
X21510Y6821D01*
X21545Y6908D01*
X21557Y7000D01*
Y15302D01*
X22598Y16343D01*
X30000D01*
X30092Y16355D01*
X30179Y16390D01*
X30253Y16447D01*
X30310Y16521D01*
X30345Y16608D01*
X30357Y16700D01*
X30345Y16793D01*
X30310Y16879D01*
X30253Y16953D01*
X30179Y17010D01*
X30092Y17045D01*
X30000Y17057D01*
D02*
G37*
G36*
X2033Y5184D02*
X1925Y5170D01*
X1825Y5128D01*
X1738Y5062D01*
X1672Y4975D01*
X1630Y4875D01*
X1616Y4767D01*
X1630Y4659D01*
X1672Y4558D01*
X1738Y4472D01*
X1825Y4406D01*
X1925Y4364D01*
X2033Y4350D01*
X2141Y4364D01*
X2242Y4406D01*
X2328Y4472D01*
X2394Y4558D01*
X2436Y4659D01*
X2450Y4767D01*
X2436Y4875D01*
X2394Y4975D01*
X2328Y5062D01*
X2242Y5128D01*
X2141Y5170D01*
X2033Y5184D01*
D02*
G37*
G36*
X102362Y7347D02*
X102137Y7329D01*
X101917Y7276D01*
X101708Y7190D01*
X101515Y7072D01*
X101343Y6925D01*
X101196Y6753D01*
X101078Y6560D01*
X100991Y6351D01*
X100939Y6131D01*
X100921Y5906D01*
X100939Y5680D01*
X100991Y5460D01*
X101078Y5251D01*
X101196Y5058D01*
X101343Y4886D01*
X101515Y4739D01*
X101708Y4621D01*
X101917Y4535D01*
X102137Y4482D01*
X102362Y4464D01*
X102588Y4482D01*
X102808Y4535D01*
X103017Y4621D01*
X103209Y4739D01*
X103381Y4886D01*
X103528Y5058D01*
X103647Y5251D01*
X103733Y5460D01*
X103786Y5680D01*
X103804Y5906D01*
X103786Y6131D01*
X103733Y6351D01*
X103647Y6560D01*
X103528Y6753D01*
X103381Y6925D01*
X103209Y7072D01*
X103017Y7190D01*
X102808Y7276D01*
X102588Y7329D01*
X102362Y7347D01*
D02*
G37*
G36*
X59055D02*
X58830Y7329D01*
X58610Y7276D01*
X58401Y7190D01*
X58208Y7072D01*
X58036Y6925D01*
X57889Y6753D01*
X57771Y6560D01*
X57684Y6351D01*
X57631Y6131D01*
X57614Y5906D01*
X57631Y5680D01*
X57684Y5460D01*
X57771Y5251D01*
X57889Y5058D01*
X58036Y4886D01*
X58208Y4739D01*
X58401Y4621D01*
X58610Y4535D01*
X58830Y4482D01*
X59055Y4464D01*
X59281Y4482D01*
X59501Y4535D01*
X59710Y4621D01*
X59902Y4739D01*
X60074Y4886D01*
X60221Y5058D01*
X60339Y5251D01*
X60426Y5460D01*
X60479Y5680D01*
X60497Y5906D01*
X60479Y6131D01*
X60426Y6351D01*
X60339Y6560D01*
X60221Y6753D01*
X60074Y6925D01*
X59902Y7072D01*
X59710Y7190D01*
X59501Y7276D01*
X59281Y7329D01*
X59055Y7347D01*
D02*
G37*
G36*
X7874D02*
X7649Y7329D01*
X7429Y7276D01*
X7220Y7190D01*
X7027Y7072D01*
X6855Y6925D01*
X6708Y6753D01*
X6590Y6560D01*
X6503Y6351D01*
X6450Y6131D01*
X6433Y5906D01*
X6450Y5680D01*
X6503Y5460D01*
X6590Y5251D01*
X6708Y5058D01*
X6855Y4886D01*
X7027Y4739D01*
X7220Y4621D01*
X7429Y4535D01*
X7649Y4482D01*
X7874Y4464D01*
X8100Y4482D01*
X8319Y4535D01*
X8528Y4621D01*
X8721Y4739D01*
X8893Y4886D01*
X9040Y5058D01*
X9158Y5251D01*
X9245Y5460D01*
X9298Y5680D01*
X9315Y5906D01*
X9298Y6131D01*
X9245Y6351D01*
X9158Y6560D01*
X9040Y6753D01*
X8893Y6925D01*
X8721Y7072D01*
X8528Y7190D01*
X8319Y7276D01*
X8100Y7329D01*
X7874Y7347D01*
D02*
G37*
G36*
X21779Y5768D02*
X20873D01*
Y5368D01*
X18629Y3124D01*
X2246D01*
X2242Y3128D01*
X2141Y3170D01*
X2033Y3184D01*
X1925Y3170D01*
X1825Y3128D01*
X1738Y3062D01*
X1672Y2975D01*
X1630Y2875D01*
X1616Y2767D01*
X1630Y2659D01*
X1672Y2558D01*
X1738Y2472D01*
X1825Y2406D01*
X1925Y2364D01*
X2033Y2350D01*
X2141Y2364D01*
X2242Y2406D01*
X2246Y2410D01*
X18777D01*
X18870Y2422D01*
X18956Y2457D01*
X19030Y2514D01*
X21379Y4863D01*
X21779D01*
Y5768D01*
D02*
G37*
G36*
X1024Y3184D02*
X916Y3170D01*
X815Y3128D01*
X729Y3062D01*
X663Y2975D01*
X621Y2875D01*
X607Y2767D01*
X621Y2659D01*
X663Y2558D01*
X729Y2472D01*
X815Y2406D01*
X916Y2364D01*
X1024Y2350D01*
X1132Y2364D01*
X1232Y2406D01*
X1318Y2472D01*
X1385Y2558D01*
X1426Y2659D01*
X1441Y2767D01*
X1426Y2875D01*
X1385Y2975D01*
X1318Y3062D01*
X1232Y3128D01*
X1132Y3170D01*
X1024Y3184D01*
D02*
G37*
G36*
X151604Y3013D02*
X151511Y3001D01*
X151423Y2964D01*
X151348Y2907D01*
X151291Y2832D01*
X151255Y2745D01*
X151242Y2651D01*
X151255Y2557D01*
X151291Y2470D01*
X151348Y2395D01*
X151423Y2337D01*
X151511Y2301D01*
X151604Y2289D01*
X151698Y2301D01*
X151785Y2337D01*
X151860Y2395D01*
X151918Y2470D01*
X151954Y2557D01*
X151966Y2651D01*
X151954Y2745D01*
X151918Y2832D01*
X151860Y2907D01*
X151785Y2964D01*
X151698Y3001D01*
X151604Y3013D01*
D02*
G37*
G36*
X111500Y3858D02*
X106000D01*
X105933Y3849D01*
X105871Y3824D01*
X105817Y3783D01*
X105776Y3729D01*
X105751Y3667D01*
X105742Y3600D01*
X105751Y3533D01*
X105776Y3471D01*
X105817Y3417D01*
X105871Y3376D01*
X105933Y3351D01*
X106000Y3342D01*
X109379D01*
X109398Y3296D01*
X109352Y3249D01*
Y3200D01*
X109748D01*
Y3249D01*
X109702Y3296D01*
X109721Y3342D01*
X111500D01*
X111567Y3351D01*
X111629Y3376D01*
X111683Y3417D01*
X111724Y3471D01*
X111749Y3533D01*
X111758Y3600D01*
X111749Y3667D01*
X111724Y3729D01*
X111683Y3783D01*
X111629Y3824D01*
X111567Y3849D01*
X111500Y3858D01*
D02*
G37*
G36*
X83272Y10129D02*
X83179Y10117D01*
X83093Y10081D01*
X83019Y10024D01*
X82962Y9950D01*
X82926Y9864D01*
X82914Y9772D01*
X82926Y9679D01*
X82962Y9593D01*
X83019Y9519D01*
X88491Y4047D01*
X88565Y3990D01*
X88651Y3955D01*
X88743Y3943D01*
X88750D01*
X88842Y3955D01*
X88929Y3990D01*
X89003Y4047D01*
X89060Y4121D01*
X89095Y4207D01*
X89107Y4300D01*
X89095Y4392D01*
X89060Y4479D01*
X89003Y4553D01*
X88974Y4575D01*
X83524Y10024D01*
X83450Y10081D01*
X83364Y10117D01*
X83272Y10129D01*
D02*
G37*
G36*
X146625Y4624D02*
X146533Y4612D01*
X146447Y4576D01*
X146372Y4520D01*
X146316Y4446D01*
X146280Y4359D01*
X146268Y4267D01*
X146280Y4174D01*
X146316Y4088D01*
X146372Y4014D01*
X146447Y3957D01*
X146533Y3922D01*
X146625Y3910D01*
X146718Y3922D01*
X146804Y3957D01*
X146878Y4014D01*
X146935Y4088D01*
X146970Y4174D01*
X146983Y4267D01*
X146970Y4359D01*
X146935Y4446D01*
X146878Y4520D01*
X146804Y4576D01*
X146718Y4612D01*
X146625Y4624D01*
D02*
G37*
G36*
X150600Y4519D02*
X150507Y4507D01*
X150419Y4470D01*
X150344Y4413D01*
X150287Y4338D01*
X150251Y4250D01*
X150238Y4157D01*
X150251Y4063D01*
X150287Y3976D01*
X150297Y3963D01*
X150272Y3913D01*
X149305D01*
X149238Y3904D01*
X149176Y3878D01*
X149122Y3837D01*
X148417Y3133D01*
X148376Y3079D01*
X148351Y3017D01*
X148342Y2950D01*
Y1750D01*
X148351Y1683D01*
X148376Y1621D01*
X148417Y1567D01*
X148471Y1526D01*
X148533Y1501D01*
X148600Y1492D01*
X148667Y1501D01*
X148729Y1526D01*
X148783Y1567D01*
X148824Y1621D01*
X148849Y1683D01*
X148858Y1750D01*
Y2843D01*
X149412Y3397D01*
X150272D01*
X150297Y3347D01*
X150287Y3334D01*
X150251Y3246D01*
X150238Y3153D01*
X150251Y3059D01*
X150287Y2972D01*
X150344Y2897D01*
X150419Y2839D01*
X150507Y2803D01*
X150600Y2791D01*
X150694Y2803D01*
X150781Y2839D01*
X150856Y2897D01*
X150914Y2972D01*
X150950Y3059D01*
X150963Y3153D01*
X150950Y3246D01*
X150914Y3334D01*
X150860Y3404D01*
X150869Y3445D01*
X150872Y3454D01*
X151306D01*
X151348Y3399D01*
X151423Y3341D01*
X151511Y3305D01*
X151604Y3293D01*
X151698Y3305D01*
X151785Y3341D01*
X151860Y3399D01*
X151918Y3474D01*
X151954Y3561D01*
X151966Y3655D01*
X151954Y3748D01*
X151918Y3836D01*
X151860Y3911D01*
X151785Y3968D01*
X151698Y4005D01*
X151604Y4017D01*
X151511Y4005D01*
X151423Y3968D01*
X151348Y3911D01*
X151306Y3855D01*
X150872D01*
X150869Y3865D01*
X150860Y3905D01*
X150914Y3976D01*
X150950Y4063D01*
X150963Y4157D01*
X150950Y4250D01*
X150914Y4338D01*
X150856Y4413D01*
X150781Y4470D01*
X150694Y4507D01*
X150600Y4519D01*
D02*
G37*
G36*
X1074Y15219D02*
Y14817D01*
X1475D01*
X1466Y14886D01*
X1420Y14996D01*
X1348Y15091D01*
X1253Y15164D01*
X1142Y15210D01*
X1074Y15219D01*
D02*
G37*
G36*
X974D02*
X905Y15210D01*
X794Y15164D01*
X700Y15091D01*
X627Y14996D01*
X581Y14886D01*
X572Y14817D01*
X974D01*
Y15219D01*
D02*
G37*
G36*
X146675Y15143D02*
Y14801D01*
X147017D01*
X147010Y14854D01*
X146970Y14951D01*
X146907Y15033D01*
X146825Y15096D01*
X146728Y15136D01*
X146675Y15143D01*
D02*
G37*
G36*
X1983Y15219D02*
X1914Y15210D01*
X1804Y15164D01*
X1709Y15091D01*
X1636Y14996D01*
X1590Y14886D01*
X1581Y14817D01*
X1983D01*
Y15219D01*
D02*
G37*
G36*
X103950Y19058D02*
X101750D01*
X101683Y19049D01*
X101621Y19024D01*
X101567Y18983D01*
X101526Y18929D01*
X101501Y18867D01*
X101492Y18800D01*
X101501Y18733D01*
X101526Y18671D01*
X101567Y18617D01*
X101621Y18576D01*
X101667Y18557D01*
X101657Y18507D01*
X95407D01*
X95314Y18495D01*
X95228Y18460D01*
X95154Y18403D01*
X95154Y18403D01*
X87776Y11024D01*
X87719Y10950D01*
X87683Y10864D01*
X87671Y10772D01*
X87683Y10679D01*
X87719Y10593D01*
X87776Y10519D01*
X87850Y10462D01*
X87936Y10426D01*
X88028Y10414D01*
X88121Y10426D01*
X88207Y10462D01*
X88281Y10519D01*
X95555Y17793D01*
X103450D01*
X103542Y17805D01*
X103629Y17840D01*
X103703Y17897D01*
X103760Y17971D01*
X103795Y18058D01*
X103807Y18150D01*
X103795Y18242D01*
X103760Y18329D01*
X103703Y18403D01*
X103629Y18460D01*
X103542Y18495D01*
X103554Y18542D01*
X103843D01*
X107117Y15267D01*
X107171Y15226D01*
X107233Y15201D01*
X107300Y15192D01*
X107367Y15201D01*
X107429Y15226D01*
X107483Y15267D01*
X107524Y15321D01*
X107549Y15383D01*
X107558Y15450D01*
X107549Y15517D01*
X107524Y15579D01*
X107483Y15633D01*
X104133Y18983D01*
X104079Y19024D01*
X104017Y19049D01*
X103950Y19058D01*
D02*
G37*
G36*
X111750Y15708D02*
X109600D01*
X109533Y15699D01*
X109471Y15674D01*
X109417Y15633D01*
X109376Y15579D01*
X109351Y15517D01*
X109342Y15450D01*
X109351Y15383D01*
X109376Y15321D01*
X109417Y15267D01*
X109471Y15226D01*
X109533Y15201D01*
X109600Y15192D01*
X111750D01*
X111817Y15201D01*
X111879Y15226D01*
X111933Y15267D01*
X111974Y15321D01*
X111999Y15383D01*
X112008Y15450D01*
X111999Y15517D01*
X111974Y15579D01*
X111933Y15633D01*
X111879Y15674D01*
X111817Y15699D01*
X111750Y15708D01*
D02*
G37*
G36*
X2083Y15219D02*
Y14817D01*
X2485D01*
X2476Y14886D01*
X2430Y14996D01*
X2357Y15091D01*
X2262Y15164D01*
X2152Y15210D01*
X2083Y15219D01*
D02*
G37*
G36*
X1983Y14717D02*
X1581D01*
X1590Y14648D01*
X1636Y14538D01*
X1709Y14443D01*
X1804Y14370D01*
X1914Y14324D01*
X1983Y14315D01*
Y14717D01*
D02*
G37*
G36*
X1475D02*
X1074D01*
Y14315D01*
X1142Y14324D01*
X1253Y14370D01*
X1348Y14443D01*
X1420Y14538D01*
X1466Y14648D01*
X1475Y14717D01*
D02*
G37*
G36*
X974D02*
X572D01*
X581Y14648D01*
X627Y14538D01*
X700Y14443D01*
X794Y14370D01*
X905Y14324D01*
X974Y14315D01*
Y14717D01*
D02*
G37*
G36*
X2485D02*
X2083D01*
Y14315D01*
X2152Y14324D01*
X2262Y14370D01*
X2357Y14443D01*
X2430Y14538D01*
X2476Y14648D01*
X2485Y14717D01*
D02*
G37*
G36*
X146575Y15143D02*
X146522Y15136D01*
X146426Y15096D01*
X146343Y15033D01*
X146280Y14951D01*
X146240Y14854D01*
X146233Y14801D01*
X146575D01*
Y15143D01*
D02*
G37*
G36*
X147017Y14701D02*
X146675D01*
Y14359D01*
X146728Y14366D01*
X146825Y14406D01*
X146907Y14469D01*
X146970Y14552D01*
X147010Y14648D01*
X147017Y14701D01*
D02*
G37*
G36*
X146575D02*
X146233D01*
X146240Y14648D01*
X146280Y14552D01*
X146343Y14469D01*
X146426Y14406D01*
X146522Y14366D01*
X146575Y14359D01*
Y14701D01*
D02*
G37*
G36*
X1024Y16184D02*
X916Y16170D01*
X815Y16128D01*
X729Y16062D01*
X663Y15975D01*
X621Y15875D01*
X607Y15767D01*
X621Y15659D01*
X663Y15558D01*
X729Y15472D01*
X815Y15406D01*
X916Y15364D01*
X1024Y15350D01*
X1132Y15364D01*
X1232Y15406D01*
X1318Y15472D01*
X1385Y15558D01*
X1426Y15659D01*
X1441Y15767D01*
X1426Y15875D01*
X1385Y15975D01*
X1318Y16062D01*
X1232Y16128D01*
X1132Y16170D01*
X1024Y16184D01*
D02*
G37*
G36*
X2033Y17184D02*
X1925Y17170D01*
X1825Y17128D01*
X1738Y17062D01*
X1672Y16975D01*
X1630Y16875D01*
X1616Y16767D01*
X1630Y16659D01*
X1672Y16558D01*
X1738Y16472D01*
X1825Y16406D01*
X1925Y16364D01*
X2033Y16350D01*
X2141Y16364D01*
X2242Y16406D01*
X2328Y16472D01*
X2394Y16558D01*
X2436Y16659D01*
X2450Y16767D01*
X2436Y16875D01*
X2394Y16975D01*
X2328Y17062D01*
X2242Y17128D01*
X2141Y17170D01*
X2033Y17184D01*
D02*
G37*
G36*
X1024D02*
X916Y17170D01*
X815Y17128D01*
X729Y17062D01*
X663Y16975D01*
X621Y16875D01*
X607Y16767D01*
X621Y16659D01*
X663Y16558D01*
X729Y16472D01*
X815Y16406D01*
X916Y16364D01*
X1024Y16350D01*
X1132Y16364D01*
X1232Y16406D01*
X1318Y16472D01*
X1385Y16558D01*
X1426Y16659D01*
X1441Y16767D01*
X1426Y16875D01*
X1385Y16975D01*
X1318Y17062D01*
X1232Y17128D01*
X1132Y17170D01*
X1024Y17184D01*
D02*
G37*
G36*
X156596Y16941D02*
X155956D01*
Y16300D01*
X156596D01*
Y16941D01*
D02*
G37*
G36*
X109500Y16648D02*
X109451D01*
X109352Y16549D01*
Y16500D01*
X109500D01*
Y16648D01*
D02*
G37*
G36*
X111150Y18358D02*
X106000D01*
X105933Y18349D01*
X105871Y18324D01*
X105817Y18283D01*
X105776Y18229D01*
X105751Y18167D01*
X105742Y18100D01*
X105751Y18033D01*
X105776Y17971D01*
X105817Y17917D01*
X105871Y17876D01*
X105933Y17851D01*
X106000Y17842D01*
X111150D01*
X111217Y17851D01*
X111279Y17876D01*
X111333Y17917D01*
X111374Y17971D01*
X111399Y18033D01*
X111408Y18100D01*
X111399Y18167D01*
X111374Y18229D01*
X111333Y18283D01*
X111279Y18324D01*
X111217Y18349D01*
X111150Y18358D01*
D02*
G37*
G36*
X156555Y18900D02*
X155256D01*
Y17600D01*
X156555D01*
Y18900D01*
D02*
G37*
G36*
X109649Y16648D02*
X109600D01*
Y16500D01*
X109748D01*
Y16549D01*
X109649Y16648D01*
D02*
G37*
G36*
X155856Y16200D02*
X155215D01*
Y15559D01*
X155856D01*
Y16200D01*
D02*
G37*
G36*
X146625Y16093D02*
X146533Y16081D01*
X146447Y16045D01*
X146372Y15988D01*
X146316Y15914D01*
X146280Y15828D01*
X146268Y15735D01*
X146280Y15643D01*
X146316Y15557D01*
X146372Y15483D01*
X146447Y15426D01*
X146533Y15390D01*
X146625Y15378D01*
X146718Y15390D01*
X146804Y15426D01*
X146878Y15483D01*
X146935Y15557D01*
X146970Y15643D01*
X146983Y15735D01*
X146970Y15828D01*
X146935Y15914D01*
X146878Y15988D01*
X146804Y16045D01*
X146718Y16081D01*
X146625Y16093D01*
D02*
G37*
G36*
X2033Y16184D02*
X1925Y16170D01*
X1825Y16128D01*
X1738Y16062D01*
X1672Y15975D01*
X1630Y15875D01*
X1616Y15767D01*
X1630Y15659D01*
X1672Y15558D01*
X1738Y15472D01*
X1825Y15406D01*
X1925Y15364D01*
X2033Y15350D01*
X2141Y15364D01*
X2242Y15406D01*
X2328Y15472D01*
X2394Y15558D01*
X2436Y15659D01*
X2450Y15767D01*
X2436Y15875D01*
X2394Y15975D01*
X2328Y16062D01*
X2242Y16128D01*
X2141Y16170D01*
X2033Y16184D01*
D02*
G37*
G36*
X156596Y16200D02*
X155956D01*
Y15559D01*
X156596D01*
Y16200D01*
D02*
G37*
G36*
X155856Y16941D02*
X155215D01*
Y16300D01*
X155856D01*
Y16941D01*
D02*
G37*
G36*
X109748Y16400D02*
X109600D01*
Y16252D01*
X109649D01*
X109748Y16351D01*
Y16400D01*
D02*
G37*
G36*
X109500D02*
X109352D01*
Y16351D01*
X109451Y16252D01*
X109500D01*
Y16400D01*
D02*
G37*
G36*
X156555Y12450D02*
X155256D01*
Y11150D01*
X156555D01*
Y12450D01*
D02*
G37*
G36*
X137400Y15708D02*
X117250D01*
X117183Y15699D01*
X117121Y15674D01*
X117067Y15633D01*
X117026Y15579D01*
X117001Y15517D01*
X116992Y15450D01*
X117001Y15383D01*
X117026Y15321D01*
X117067Y15267D01*
X117121Y15226D01*
X117183Y15201D01*
X117250Y15192D01*
X137293D01*
X141666Y10819D01*
X141720Y10778D01*
X141782Y10752D01*
X141849Y10743D01*
X146380D01*
X146447Y10692D01*
X146533Y10656D01*
X146625Y10644D01*
X146718Y10656D01*
X146804Y10692D01*
X146878Y10748D01*
X146935Y10822D01*
X146970Y10909D01*
X146983Y11001D01*
X146970Y11094D01*
X146935Y11180D01*
X146878Y11254D01*
X146804Y11311D01*
X146718Y11346D01*
X146625Y11359D01*
X146533Y11346D01*
X146447Y11311D01*
X146380Y11259D01*
X141956D01*
X137583Y15633D01*
X137529Y15674D01*
X137467Y15699D01*
X137400Y15708D01*
D02*
G37*
G36*
X99750Y13107D02*
X99657Y13095D01*
X99571Y13060D01*
X99497Y13003D01*
X99440Y12929D01*
X99405Y12843D01*
X99393Y12750D01*
X99405Y12658D01*
X99440Y12571D01*
X99497Y12497D01*
X101247Y10747D01*
X101321Y10690D01*
X101407Y10655D01*
X101500Y10643D01*
X101593Y10655D01*
X101679Y10690D01*
X101753Y10747D01*
X101810Y10821D01*
X101845Y10907D01*
X101857Y11000D01*
X101845Y11092D01*
X101810Y11179D01*
X101753Y11253D01*
X100003Y13003D01*
X99929Y13060D01*
X99843Y13095D01*
X99750Y13107D01*
D02*
G37*
G36*
X1024Y12189D02*
X916Y12174D01*
X815Y12133D01*
X729Y12066D01*
X663Y11980D01*
X621Y11880D01*
X607Y11772D01*
X621Y11664D01*
X663Y11563D01*
X729Y11477D01*
X815Y11411D01*
X916Y11369D01*
X1024Y11355D01*
X1132Y11369D01*
X1232Y11411D01*
X1318Y11477D01*
X1385Y11563D01*
X1426Y11664D01*
X1441Y11772D01*
X1426Y11880D01*
X1385Y11980D01*
X1318Y12066D01*
X1232Y12133D01*
X1132Y12174D01*
X1024Y12189D01*
D02*
G37*
G36*
X7874Y15221D02*
X7649Y15203D01*
X7429Y15150D01*
X7220Y15064D01*
X7027Y14946D01*
X6855Y14799D01*
X6708Y14627D01*
X6590Y14434D01*
X6503Y14225D01*
X6450Y14005D01*
X6433Y13780D01*
X6450Y13554D01*
X6503Y13334D01*
X6590Y13125D01*
X6708Y12932D01*
X6855Y12760D01*
X7027Y12613D01*
X7220Y12495D01*
X7429Y12409D01*
X7649Y12356D01*
X7874Y12338D01*
X8100Y12356D01*
X8319Y12409D01*
X8528Y12495D01*
X8721Y12613D01*
X8893Y12760D01*
X9040Y12932D01*
X9158Y13125D01*
X9245Y13334D01*
X9298Y13554D01*
X9315Y13780D01*
X9298Y14005D01*
X9245Y14225D01*
X9158Y14434D01*
X9040Y14627D01*
X8893Y14799D01*
X8721Y14946D01*
X8528Y15064D01*
X8319Y15150D01*
X8100Y15203D01*
X7874Y15221D01*
D02*
G37*
G36*
X146625Y12343D02*
X146533Y12331D01*
X146447Y12295D01*
X146372Y12238D01*
X146316Y12164D01*
X146280Y12078D01*
X146268Y11985D01*
X146280Y11893D01*
X146316Y11807D01*
X146372Y11733D01*
X146447Y11676D01*
X146533Y11640D01*
X146625Y11628D01*
X146718Y11640D01*
X146804Y11676D01*
X146878Y11733D01*
X146935Y11807D01*
X146970Y11893D01*
X146983Y11985D01*
X146970Y12078D01*
X146935Y12164D01*
X146878Y12238D01*
X146804Y12295D01*
X146718Y12331D01*
X146625Y12343D01*
D02*
G37*
G36*
X2033Y12189D02*
X1925Y12174D01*
X1825Y12133D01*
X1738Y12066D01*
X1672Y11980D01*
X1630Y11880D01*
X1616Y11772D01*
X1630Y11664D01*
X1672Y11563D01*
X1738Y11477D01*
X1825Y11411D01*
X1925Y11369D01*
X2033Y11355D01*
X2141Y11369D01*
X2242Y11411D01*
X2328Y11477D01*
X2394Y11563D01*
X2436Y11664D01*
X2450Y11772D01*
X2436Y11880D01*
X2394Y11980D01*
X2328Y12066D01*
X2242Y12133D01*
X2141Y12174D01*
X2033Y12189D01*
D02*
G37*
G36*
X1024Y10189D02*
X916Y10174D01*
X815Y10133D01*
X729Y10066D01*
X663Y9980D01*
X621Y9880D01*
X607Y9772D01*
X621Y9664D01*
X663Y9563D01*
X729Y9477D01*
X815Y9411D01*
X916Y9369D01*
X1024Y9355D01*
X1132Y9369D01*
X1232Y9411D01*
X1318Y9477D01*
X1385Y9563D01*
X1426Y9664D01*
X1441Y9772D01*
X1426Y9880D01*
X1385Y9980D01*
X1318Y10066D01*
X1232Y10133D01*
X1132Y10174D01*
X1024Y10189D01*
D02*
G37*
G36*
X156555Y10450D02*
X155256D01*
Y9150D01*
X156555D01*
Y10450D01*
D02*
G37*
G36*
X146675Y9425D02*
Y9083D01*
X147017D01*
X147010Y9136D01*
X146970Y9232D01*
X146907Y9315D01*
X146825Y9378D01*
X146728Y9418D01*
X146675Y9425D01*
D02*
G37*
G36*
X2033Y10189D02*
X1925Y10174D01*
X1825Y10133D01*
X1738Y10066D01*
X1672Y9980D01*
X1630Y9880D01*
X1616Y9772D01*
X1630Y9664D01*
X1672Y9563D01*
X1738Y9477D01*
X1825Y9411D01*
X1925Y9369D01*
X2033Y9355D01*
X2141Y9369D01*
X2242Y9411D01*
X2328Y9477D01*
X2394Y9563D01*
X2436Y9664D01*
X2450Y9772D01*
X2436Y9880D01*
X2394Y9980D01*
X2328Y10066D01*
X2242Y10133D01*
X2141Y10174D01*
X2033Y10189D01*
D02*
G37*
G36*
Y11189D02*
X1925Y11174D01*
X1825Y11133D01*
X1738Y11066D01*
X1672Y10980D01*
X1630Y10880D01*
X1616Y10772D01*
X1630Y10664D01*
X1672Y10563D01*
X1738Y10477D01*
X1825Y10411D01*
X1925Y10369D01*
X2033Y10355D01*
X2141Y10369D01*
X2242Y10411D01*
X2328Y10477D01*
X2394Y10563D01*
X2436Y10664D01*
X2450Y10772D01*
X2436Y10880D01*
X2394Y10980D01*
X2328Y11066D01*
X2242Y11133D01*
X2141Y11174D01*
X2033Y11189D01*
D02*
G37*
G36*
X1024D02*
X916Y11174D01*
X815Y11133D01*
X729Y11066D01*
X663Y10980D01*
X621Y10880D01*
X607Y10772D01*
X621Y10664D01*
X663Y10563D01*
X729Y10477D01*
X815Y10411D01*
X916Y10369D01*
X1024Y10355D01*
X1132Y10369D01*
X1232Y10411D01*
X1318Y10477D01*
X1385Y10563D01*
X1426Y10664D01*
X1441Y10772D01*
X1426Y10880D01*
X1385Y10980D01*
X1318Y11066D01*
X1232Y11133D01*
X1132Y11174D01*
X1024Y11189D01*
D02*
G37*
G36*
X146625Y10374D02*
X146533Y10362D01*
X146447Y10326D01*
X146372Y10270D01*
X146316Y10196D01*
X146280Y10109D01*
X146268Y10017D01*
X146280Y9924D01*
X146316Y9838D01*
X146372Y9764D01*
X146447Y9707D01*
X146533Y9672D01*
X146625Y9660D01*
X146718Y9672D01*
X146804Y9707D01*
X146878Y9764D01*
X146935Y9838D01*
X146970Y9924D01*
X146983Y10017D01*
X146970Y10109D01*
X146935Y10196D01*
X146878Y10270D01*
X146804Y10326D01*
X146718Y10362D01*
X146625Y10374D01*
D02*
G37*
G36*
X59055Y15221D02*
X58830Y15203D01*
X58610Y15150D01*
X58401Y15064D01*
X58208Y14946D01*
X58036Y14799D01*
X57889Y14627D01*
X57771Y14434D01*
X57684Y14225D01*
X57631Y14005D01*
X57614Y13780D01*
X57631Y13554D01*
X57684Y13334D01*
X57771Y13125D01*
X57889Y12932D01*
X58036Y12760D01*
X58208Y12613D01*
X58401Y12495D01*
X58610Y12409D01*
X58830Y12356D01*
X59055Y12338D01*
X59281Y12356D01*
X59501Y12409D01*
X59710Y12495D01*
X59902Y12613D01*
X60074Y12760D01*
X60221Y12932D01*
X60339Y13125D01*
X60426Y13334D01*
X60479Y13554D01*
X60497Y13780D01*
X60479Y14005D01*
X60426Y14225D01*
X60339Y14434D01*
X60221Y14627D01*
X60074Y14799D01*
X59902Y14946D01*
X59710Y15064D01*
X59501Y15150D01*
X59281Y15203D01*
X59055Y15221D01*
D02*
G37*
G36*
X118250Y18607D02*
X118158Y18595D01*
X118071Y18560D01*
X117997Y18503D01*
X113602Y14107D01*
X106750D01*
X106657Y14095D01*
X106571Y14060D01*
X106497Y14003D01*
X106440Y13929D01*
X106405Y13843D01*
X106393Y13750D01*
X106405Y13657D01*
X106440Y13571D01*
X106497Y13497D01*
X106571Y13440D01*
X106657Y13405D01*
X106750Y13393D01*
X113750D01*
X113842Y13405D01*
X113929Y13440D01*
X114003Y13497D01*
X118503Y17997D01*
X118560Y18071D01*
X118595Y18158D01*
X118607Y18250D01*
X118595Y18342D01*
X118560Y18429D01*
X118503Y18503D01*
X118429Y18560D01*
X118343Y18595D01*
X118250Y18607D01*
D02*
G37*
G36*
X2485Y13717D02*
X2083D01*
Y13315D01*
X2152Y13324D01*
X2262Y13370D01*
X2357Y13443D01*
X2430Y13538D01*
X2476Y13648D01*
X2485Y13717D01*
D02*
G37*
G36*
X1983D02*
X1581D01*
X1590Y13648D01*
X1636Y13538D01*
X1709Y13443D01*
X1804Y13370D01*
X1914Y13324D01*
X1983Y13315D01*
Y13717D01*
D02*
G37*
G36*
X974Y14219D02*
X905Y14210D01*
X794Y14164D01*
X700Y14091D01*
X627Y13996D01*
X581Y13886D01*
X572Y13817D01*
X974D01*
Y14219D01*
D02*
G37*
G36*
X2083D02*
Y13817D01*
X2485D01*
X2476Y13886D01*
X2430Y13996D01*
X2357Y14091D01*
X2262Y14164D01*
X2152Y14210D01*
X2083Y14219D01*
D02*
G37*
G36*
X1983D02*
X1914Y14210D01*
X1804Y14164D01*
X1709Y14091D01*
X1636Y13996D01*
X1590Y13886D01*
X1581Y13817D01*
X1983D01*
Y14219D01*
D02*
G37*
G36*
X1074D02*
Y13817D01*
X1475D01*
X1466Y13886D01*
X1420Y13996D01*
X1348Y14091D01*
X1253Y14164D01*
X1142Y14210D01*
X1074Y14219D01*
D02*
G37*
G36*
X1024Y13184D02*
X916Y13170D01*
X815Y13128D01*
X729Y13062D01*
X663Y12975D01*
X621Y12875D01*
X607Y12767D01*
X621Y12659D01*
X663Y12558D01*
X729Y12472D01*
X815Y12406D01*
X916Y12364D01*
X1024Y12350D01*
X1132Y12364D01*
X1232Y12406D01*
X1318Y12472D01*
X1385Y12558D01*
X1426Y12659D01*
X1441Y12767D01*
X1426Y12875D01*
X1385Y12975D01*
X1318Y13062D01*
X1232Y13128D01*
X1132Y13170D01*
X1024Y13184D01*
D02*
G37*
G36*
X141732Y15221D02*
X141507Y15203D01*
X141287Y15150D01*
X141078Y15064D01*
X140885Y14946D01*
X140713Y14799D01*
X140566Y14627D01*
X140448Y14434D01*
X140361Y14225D01*
X140309Y14005D01*
X140291Y13780D01*
X140309Y13554D01*
X140361Y13334D01*
X140448Y13125D01*
X140566Y12932D01*
X140713Y12760D01*
X140885Y12613D01*
X141078Y12495D01*
X141287Y12409D01*
X141507Y12356D01*
X141732Y12338D01*
X141958Y12356D01*
X142178Y12409D01*
X142387Y12495D01*
X142580Y12613D01*
X142752Y12760D01*
X142898Y12932D01*
X143017Y13125D01*
X143103Y13334D01*
X143156Y13554D01*
X143174Y13780D01*
X143156Y14005D01*
X143103Y14225D01*
X143017Y14434D01*
X142898Y14627D01*
X142752Y14799D01*
X142580Y14946D01*
X142387Y15064D01*
X142178Y15150D01*
X141958Y15203D01*
X141732Y15221D01*
D02*
G37*
G36*
X102362D02*
X102137Y15203D01*
X101917Y15150D01*
X101708Y15064D01*
X101515Y14946D01*
X101343Y14799D01*
X101196Y14627D01*
X101078Y14434D01*
X100991Y14225D01*
X100939Y14005D01*
X100921Y13780D01*
X100939Y13554D01*
X100991Y13334D01*
X101078Y13125D01*
X101196Y12932D01*
X101343Y12760D01*
X101515Y12613D01*
X101708Y12495D01*
X101917Y12409D01*
X102137Y12356D01*
X102362Y12338D01*
X102588Y12356D01*
X102808Y12409D01*
X103017Y12495D01*
X103209Y12613D01*
X103381Y12760D01*
X103528Y12932D01*
X103647Y13125D01*
X103733Y13334D01*
X103786Y13554D01*
X103804Y13780D01*
X103786Y14005D01*
X103733Y14225D01*
X103647Y14434D01*
X103528Y14627D01*
X103381Y14799D01*
X103209Y14946D01*
X103017Y15064D01*
X102808Y15150D01*
X102588Y15203D01*
X102362Y15221D01*
D02*
G37*
G36*
X2033Y13184D02*
X1925Y13170D01*
X1825Y13128D01*
X1738Y13062D01*
X1672Y12975D01*
X1630Y12875D01*
X1616Y12767D01*
X1630Y12659D01*
X1672Y12558D01*
X1738Y12472D01*
X1825Y12406D01*
X1925Y12364D01*
X2033Y12350D01*
X2141Y12364D01*
X2242Y12406D01*
X2328Y12472D01*
X2394Y12558D01*
X2436Y12659D01*
X2450Y12767D01*
X2436Y12875D01*
X2394Y12975D01*
X2328Y13062D01*
X2242Y13128D01*
X2141Y13170D01*
X2033Y13184D01*
D02*
G37*
G36*
X1475Y13717D02*
X1074D01*
Y13315D01*
X1142Y13324D01*
X1253Y13370D01*
X1348Y13443D01*
X1420Y13538D01*
X1466Y13648D01*
X1475Y13717D01*
D02*
G37*
G36*
X974D02*
X572D01*
X581Y13648D01*
X627Y13538D01*
X700Y13443D01*
X794Y13370D01*
X905Y13324D01*
X974Y13315D01*
Y13717D01*
D02*
G37*
G36*
X156555Y14450D02*
X155256D01*
Y13150D01*
X156555D01*
Y14450D01*
D02*
G37*
%LPD*%
D25*
X141732Y13780D02*
D03*
Y5906D02*
D03*
X102362Y13780D02*
D03*
Y5906D02*
D03*
X59055Y13780D02*
D03*
Y5906D02*
D03*
X7874Y13780D02*
D03*
Y5906D02*
D03*
D27*
X113250Y500D02*
X117000D01*
X106000Y3600D02*
X111500D01*
X111000Y2750D02*
X113250Y500D01*
X106000Y2750D02*
X111000D01*
X106000Y1600D02*
X111150D01*
X106000Y18100D02*
X111150D01*
X145261Y7600D02*
X146625Y6235D01*
X138913Y7600D02*
X145261D01*
X133997Y2683D02*
X138913Y7600D01*
X145024Y3650D02*
X146625Y5251D01*
X136963Y3650D02*
X145024D01*
X135997Y2683D02*
X136963Y3650D01*
X23137Y11687D02*
X24500Y13050D01*
X23137Y5316D02*
Y11687D01*
X109600Y15450D02*
X111750D01*
X101750Y18800D02*
X103950D01*
X107300Y15450D01*
X117250D02*
X137400D01*
X141849Y11001D01*
X146625D01*
X148600Y1750D02*
Y2950D01*
X149305Y3655D01*
X150316D01*
D28*
X88743Y4300D02*
X88750D01*
X83272Y9772D02*
X88743Y4300D01*
X94750Y5300D02*
X98000D01*
X88000Y6950D02*
X91250Y10200D01*
X2033Y2767D02*
X18777D01*
X21326Y5316D01*
X17967Y3767D02*
X21200Y7000D01*
X1024Y3767D02*
X2033D01*
X17967D01*
X21200Y7000D02*
Y15450D01*
X22450Y16700D01*
X30000D01*
X27389Y5316D02*
X29200D01*
X104150Y7000D02*
Y7050D01*
X98550Y12650D02*
X104150Y7050D01*
X99750Y12750D02*
X101500Y11000D01*
X106750Y13750D02*
X113750D01*
X118250Y18250D01*
X29200Y5316D02*
Y14050D01*
X32900Y17750D01*
X34750D01*
X95407Y18150D02*
X103450D01*
X88028Y10772D02*
X95407Y18150D01*
D30*
X150316Y3655D02*
X151604D01*
D31*
X133997Y2683D02*
D03*
X135997D02*
D03*
X137997D02*
D03*
D32*
X146625Y6235D02*
D03*
Y5251D02*
D03*
Y4267D02*
D03*
Y14751D02*
D03*
Y15735D02*
D03*
Y11985D02*
D03*
Y11001D02*
D03*
Y10017D02*
D03*
Y9033D02*
D03*
D33*
X155906Y13800D02*
D03*
Y11800D02*
D03*
Y18250D02*
D03*
Y16250D02*
D03*
Y7800D02*
D03*
Y9800D02*
D03*
D34*
X151604Y1647D02*
D03*
D35*
Y2651D02*
D03*
Y3655D02*
D03*
Y4659D02*
D03*
X150610Y2149D02*
D03*
X150600Y3153D02*
D03*
Y5161D02*
D03*
Y4157D02*
D03*
D36*
X154094Y5574D02*
D03*
Y1066D02*
D03*
D37*
X21326Y5316D02*
D03*
X23137D02*
D03*
X27389D02*
D03*
X29200D02*
D03*
D38*
X1024Y16767D02*
D03*
Y15767D02*
D03*
Y14767D02*
D03*
Y13767D02*
D03*
Y12767D02*
D03*
Y11772D02*
D03*
Y10772D02*
D03*
Y9772D02*
D03*
Y8772D02*
D03*
Y7772D02*
D03*
Y6767D02*
D03*
Y5767D02*
D03*
Y4767D02*
D03*
Y3767D02*
D03*
Y2767D02*
D03*
X2033Y3767D02*
D03*
Y2767D02*
D03*
Y4767D02*
D03*
Y5767D02*
D03*
Y6767D02*
D03*
Y7772D02*
D03*
Y8772D02*
D03*
Y9772D02*
D03*
Y10772D02*
D03*
Y11772D02*
D03*
Y12767D02*
D03*
Y13767D02*
D03*
Y14767D02*
D03*
Y15767D02*
D03*
Y16767D02*
D03*
D39*
X141732Y5906D02*
D03*
Y13780D02*
D03*
X102362Y5906D02*
D03*
Y13780D02*
D03*
X59055Y5906D02*
D03*
Y13780D02*
D03*
X7874D02*
D03*
Y5906D02*
D03*
D40*
X113350Y2000D02*
D03*
X109550Y3150D02*
D03*
Y16450D02*
D03*
D41*
X88750Y4300D02*
D03*
X83272Y9772D02*
D03*
X94750Y5300D02*
D03*
X91250Y10200D02*
D03*
X88000Y6950D02*
D03*
X117000Y500D02*
D03*
X111500Y3600D02*
D03*
X106000D02*
D03*
Y2750D02*
D03*
X98000Y5300D02*
D03*
X111150Y1600D02*
D03*
X106000D02*
D03*
X111150Y18100D02*
D03*
X106000D02*
D03*
X24500Y13050D02*
D03*
X101750Y18800D02*
D03*
X107300Y15450D02*
D03*
X30000Y16700D02*
D03*
X34750Y17750D02*
D03*
X104150Y7000D02*
D03*
X98550Y12650D02*
D03*
X99750Y12750D02*
D03*
X101500Y11000D02*
D03*
X106750Y13750D02*
D03*
X118250Y18250D02*
D03*
X88028Y10772D02*
D03*
X109600Y15450D02*
D03*
X111750D02*
D03*
X117250D02*
D03*
X103450Y18150D02*
D03*
X148600Y1750D02*
D03*
M02*
