G04 Layer_Physical_Order=1*
G04 Layer_Color=255*
%FSLAX24Y24*%
%MOIN*%
G70*
G01*
G75*
%ADD10R,0.0394X0.0591*%
%ADD11R,0.0591X0.0591*%
%ADD12R,0.0472X0.0492*%
%ADD13R,0.0787X0.0984*%
%ADD14R,0.0571X0.0453*%
%ADD15R,0.0472X0.0472*%
%ADD16P,0.0511X8X112.5*%
%ADD17R,0.0453X0.0571*%
%ADD18R,0.0787X0.0394*%
%ADD19R,0.0866X0.0354*%
%ADD20R,0.0591X0.1772*%
%ADD21R,0.0492X0.0472*%
%ADD22R,0.0354X0.0354*%
%ADD23R,0.0591X0.0512*%
%ADD24R,0.0591X0.1181*%
%ADD25C,0.2756*%
%ADD26R,0.0591X0.0591*%
%ADD27C,0.0394*%
%ADD28C,0.0591*%
%ADD29C,0.0197*%
%ADD30C,0.0276*%
%ADD31R,0.1181X0.1181*%
%ADD32C,0.0591*%
%ADD33R,0.1181X0.1181*%
%ADD34R,0.0600X0.0600*%
%ADD35C,0.0600*%
%ADD36C,0.1378*%
%ADD37R,0.0787X0.0787*%
%ADD38C,0.0709*%
%ADD39C,0.1575*%
%ADD40P,0.0213X8X22.5*%
%ADD41C,0.0157*%
G36*
X114347Y2441D02*
X114320Y2391D01*
X114226D01*
Y1995D01*
X114176D01*
Y1945D01*
X113781D01*
Y1600D01*
X114185D01*
X114196Y1554D01*
X114196Y1550D01*
Y1258D01*
X111935D01*
Y1344D01*
X111888D01*
X111874Y1379D01*
X111833Y1433D01*
X111483Y1783D01*
X111453Y1806D01*
X111470Y1856D01*
X111944D01*
Y2120D01*
X112266Y2442D01*
X114346D01*
X114347Y2441D01*
D02*
G37*
G36*
X149789Y4351D02*
X149774Y4339D01*
X149017Y3583D01*
X148976Y3529D01*
X148951Y3467D01*
X148942Y3400D01*
Y1557D01*
X148143Y758D01*
X148037D01*
X148020Y808D01*
X148033Y817D01*
X148783Y1567D01*
X148824Y1621D01*
X148849Y1683D01*
X148858Y1750D01*
X148849Y1817D01*
X148824Y1879D01*
X148783Y1933D01*
X148729Y1974D01*
X148667Y1999D01*
X148600Y2008D01*
X148533Y1999D01*
X148471Y1974D01*
X148417Y1933D01*
X147780Y1295D01*
X147778Y1295D01*
X147762Y1350D01*
X148733Y2320D01*
X148774Y2374D01*
X148799Y2436D01*
X148808Y2503D01*
Y3693D01*
X149516Y4401D01*
X149772D01*
X149789Y4351D01*
D02*
G37*
G36*
X111365Y1170D02*
Y671D01*
X111318Y647D01*
X111227Y738D01*
Y1243D01*
X111273Y1262D01*
X111365Y1170D01*
D02*
G37*
G36*
X157369Y111D02*
X116097D01*
X116076Y161D01*
X116657Y742D01*
X116813D01*
X116830Y692D01*
X116817Y683D01*
X116776Y629D01*
X116751Y567D01*
X116742Y500D01*
X116751Y433D01*
X116776Y371D01*
X116817Y317D01*
X116871Y276D01*
X116933Y251D01*
X117000Y242D01*
X148250D01*
X148317Y251D01*
X148379Y276D01*
X148433Y317D01*
X149383Y1267D01*
X149424Y1321D01*
X149449Y1383D01*
X149458Y1450D01*
Y3293D01*
X150064Y3899D01*
X150347D01*
X150419Y3843D01*
X150507Y3807D01*
X150600Y3795D01*
X150694Y3807D01*
X150781Y3843D01*
X150856Y3901D01*
X150914Y3976D01*
X150950Y4063D01*
X150963Y4157D01*
X150950Y4250D01*
X150914Y4338D01*
X150860Y4408D01*
X150869Y4449D01*
X150872Y4458D01*
X151306D01*
X151348Y4403D01*
X151423Y4345D01*
X151511Y4309D01*
X151604Y4297D01*
X151698Y4309D01*
X151785Y4345D01*
X151860Y4403D01*
X151918Y4478D01*
X151954Y4565D01*
X151966Y4659D01*
X151954Y4752D01*
X151918Y4840D01*
X151860Y4915D01*
X151785Y4972D01*
X151698Y5008D01*
X151604Y5021D01*
X151511Y5008D01*
X151423Y4972D01*
X151348Y4915D01*
X151306Y4859D01*
X150936D01*
X150912Y4909D01*
X150950Y4959D01*
X150990Y5056D01*
X150997Y5111D01*
X150204D01*
X150211Y5056D01*
X150248Y4967D01*
X150228Y4917D01*
X149409D01*
X149342Y4908D01*
X149280Y4882D01*
X149226Y4841D01*
X148367Y3983D01*
X148326Y3929D01*
X148301Y3867D01*
X148292Y3800D01*
Y2610D01*
X147393Y1711D01*
X118254D01*
X116183Y3783D01*
X116129Y3824D01*
X116067Y3849D01*
X116000Y3858D01*
X111500D01*
X111433Y3849D01*
X111371Y3824D01*
X111317Y3783D01*
X111276Y3729D01*
X111251Y3667D01*
X111242Y3600D01*
X111251Y3533D01*
X111276Y3471D01*
X111317Y3417D01*
X111371Y3376D01*
X111433Y3351D01*
X111500Y3342D01*
X115893D01*
X117927Y1308D01*
X117906Y1258D01*
X116550D01*
X116483Y1249D01*
X116421Y1224D01*
X116367Y1183D01*
X115749Y564D01*
X111401D01*
X111356Y609D01*
X111380Y656D01*
X111935D01*
Y742D01*
X114350D01*
X114417Y751D01*
X114479Y776D01*
X114533Y817D01*
X114561Y846D01*
X114904D01*
Y1554D01*
X114614D01*
X114588Y1604D01*
X114599Y1624D01*
X114609Y1633D01*
X115278D01*
Y2342D01*
X115173D01*
X115173Y2343D01*
X115148Y2405D01*
X115107Y2458D01*
X114683Y2883D01*
X114629Y2924D01*
X114567Y2949D01*
X114500Y2958D01*
X112159D01*
X112092Y2949D01*
X112030Y2924D01*
X111976Y2883D01*
X111638Y2544D01*
X111373D01*
Y1899D01*
X111323Y1855D01*
X111300Y1858D01*
X111235D01*
Y2544D01*
X111111D01*
Y3200D01*
X111098Y3261D01*
X111064Y3314D01*
X111064Y3314D01*
X110014Y4364D01*
X109961Y4398D01*
X109900Y4411D01*
X109900Y4411D01*
X109173D01*
X109155Y4453D01*
X109155Y4453D01*
X109155D01*
X109155Y4453D01*
Y4700D01*
X108168D01*
Y4453D01*
X108209D01*
Y3902D01*
X108189Y3898D01*
X108136Y3864D01*
X108136Y3864D01*
X107936Y3664D01*
X107902Y3611D01*
X107889Y3550D01*
X107889Y3550D01*
Y2561D01*
X107609D01*
Y1625D01*
X107954D01*
Y2153D01*
X108001Y2172D01*
X108462Y1711D01*
X108462Y1711D01*
X108514Y1676D01*
X108563Y1667D01*
X108563Y1575D01*
X108563Y1539D01*
Y1102D01*
X108522D01*
Y875D01*
X109588D01*
Y1102D01*
X109583D01*
X109547Y1137D01*
Y1539D01*
X109547Y1575D01*
X109547Y1611D01*
Y1664D01*
X110050D01*
X110656Y1058D01*
Y656D01*
X110684D01*
X110692Y592D01*
X110718Y530D01*
X110759Y476D01*
X111074Y161D01*
X111053Y111D01*
X111D01*
Y19574D01*
X157369D01*
Y111D01*
D02*
G37*
G36*
X110789Y3133D02*
Y2544D01*
X110665D01*
Y2485D01*
X109547D01*
Y2561D01*
X108563D01*
Y2135D01*
X108513Y2114D01*
X108211Y2417D01*
Y2953D01*
X108611D01*
Y3250D01*
X108661D01*
Y3300D01*
X109155D01*
Y3547D01*
X109114D01*
Y4089D01*
X109833D01*
X110789Y3133D01*
D02*
G37*
G36*
X110665Y1856D02*
X110980D01*
X110997Y1806D01*
X110967Y1783D01*
X110926Y1729D01*
X110901Y1667D01*
X110892Y1600D01*
X110901Y1533D01*
X110926Y1471D01*
X110967Y1417D01*
X110997Y1394D01*
X110980Y1344D01*
X110824D01*
X110230Y1938D01*
X110178Y1973D01*
X110117Y1985D01*
X110117Y1985D01*
X109547D01*
Y2039D01*
X109547Y2061D01*
X109547D01*
Y2089D01*
X109547Y2089D01*
Y2164D01*
X110665D01*
Y1856D01*
D02*
G37*
%LPC*%
G36*
X154044Y6362D02*
X153940Y6352D01*
X153791Y6306D01*
X153654Y6233D01*
X153534Y6135D01*
X153435Y6014D01*
X153362Y5877D01*
X153317Y5729D01*
X153307Y5624D01*
X154044D01*
Y6362D01*
D02*
G37*
G36*
X154144D02*
Y5624D01*
X154882D01*
X154872Y5729D01*
X154827Y5877D01*
X154754Y6014D01*
X154655Y6135D01*
X154535Y6233D01*
X154398Y6306D01*
X154249Y6352D01*
X154144Y6362D01*
D02*
G37*
G36*
X150650Y5558D02*
Y5211D01*
X150997D01*
X150990Y5265D01*
X150950Y5362D01*
X150886Y5446D01*
X150802Y5510D01*
X150705Y5550D01*
X150650Y5558D01*
D02*
G37*
G36*
X23590Y5768D02*
X22684D01*
Y5574D01*
X21779D01*
Y5768D01*
X20873D01*
Y4863D01*
X21779D01*
Y5058D01*
X22684D01*
Y4863D01*
X23590D01*
Y5768D01*
D02*
G37*
G36*
X156596Y7750D02*
X155956D01*
Y7109D01*
X156596D01*
Y7750D01*
D02*
G37*
G36*
X126398Y10545D02*
X126102D01*
X125955Y10398D01*
Y10102D01*
X125992Y10065D01*
Y9350D01*
X126001Y9283D01*
X126026Y9221D01*
X126067Y9167D01*
X126945Y8290D01*
X126999Y8249D01*
X127061Y8223D01*
X127128Y8214D01*
X127147D01*
Y7921D01*
X127342D01*
Y7657D01*
X126943Y7258D01*
X126246D01*
X126179Y7310D01*
X126093Y7345D01*
X126000Y7357D01*
X104150D01*
X104058Y7345D01*
X103971Y7310D01*
X103897Y7253D01*
X103840Y7179D01*
X103805Y7092D01*
X103793Y7000D01*
X103805Y6908D01*
X103840Y6821D01*
X103897Y6747D01*
X103971Y6690D01*
X104058Y6655D01*
X104150Y6643D01*
X126000D01*
X126093Y6655D01*
X126179Y6690D01*
X126246Y6742D01*
X127050D01*
X127117Y6751D01*
X127179Y6776D01*
X127233Y6817D01*
X127783Y7367D01*
X127824Y7421D01*
X127849Y7483D01*
X127858Y7550D01*
Y7921D01*
X128053D01*
Y9023D01*
X127147D01*
Y8883D01*
X127101Y8864D01*
X126508Y9457D01*
Y10065D01*
X126545Y10102D01*
Y10398D01*
X126398Y10545D01*
D02*
G37*
G36*
X146625Y6593D02*
X146533Y6581D01*
X146447Y6545D01*
X146372Y6488D01*
X146316Y6414D01*
X146280Y6328D01*
X146268Y6235D01*
X146280Y6143D01*
X146316Y6057D01*
X146372Y5983D01*
X146447Y5926D01*
X146533Y5890D01*
X146625Y5878D01*
X146718Y5890D01*
X146804Y5926D01*
X146878Y5983D01*
X146935Y6057D01*
X146970Y6143D01*
X146983Y6235D01*
X146970Y6328D01*
X146935Y6414D01*
X146878Y6488D01*
X146804Y6545D01*
X146718Y6581D01*
X146625Y6593D01*
D02*
G37*
G36*
X155856Y7750D02*
X155215D01*
Y7109D01*
X155856D01*
Y7750D01*
D02*
G37*
G36*
X150550Y5558D02*
X150496Y5550D01*
X150399Y5510D01*
X150315Y5446D01*
X150251Y5362D01*
X150211Y5265D01*
X150204Y5211D01*
X150550D01*
Y5558D01*
D02*
G37*
G36*
X154882Y5524D02*
X154144D01*
Y4786D01*
X154249Y4796D01*
X154398Y4842D01*
X154535Y4915D01*
X154655Y5013D01*
X154754Y5134D01*
X154827Y5271D01*
X154872Y5419D01*
X154882Y5524D01*
D02*
G37*
G36*
X108611Y5047D02*
X108168D01*
Y4800D01*
X108611D01*
Y5047D01*
D02*
G37*
G36*
X102362Y7347D02*
X102137Y7329D01*
X101917Y7276D01*
X101708Y7190D01*
X101515Y7072D01*
X101343Y6925D01*
X101196Y6753D01*
X101078Y6560D01*
X100991Y6351D01*
X100939Y6131D01*
X100921Y5906D01*
X100939Y5680D01*
X100991Y5460D01*
X101078Y5251D01*
X101196Y5058D01*
X101343Y4886D01*
X101515Y4739D01*
X101708Y4621D01*
X101917Y4535D01*
X102137Y4482D01*
X102362Y4464D01*
X102588Y4482D01*
X102808Y4535D01*
X103017Y4621D01*
X103209Y4739D01*
X103381Y4886D01*
X103528Y5058D01*
X103647Y5251D01*
X103733Y5460D01*
X103786Y5680D01*
X103804Y5906D01*
X103786Y6131D01*
X103733Y6351D01*
X103647Y6560D01*
X103528Y6753D01*
X103381Y6925D01*
X103209Y7072D01*
X103017Y7190D01*
X102808Y7276D01*
X102588Y7329D01*
X102362Y7347D01*
D02*
G37*
G36*
X154044Y5524D02*
X153307D01*
X153317Y5419D01*
X153362Y5271D01*
X153435Y5134D01*
X153534Y5013D01*
X153654Y4915D01*
X153791Y4842D01*
X153940Y4796D01*
X154044Y4786D01*
Y5524D01*
D02*
G37*
G36*
X29653Y5768D02*
X28747D01*
Y4863D01*
X29653D01*
Y5768D01*
D02*
G37*
G36*
X146625Y5609D02*
X146533Y5596D01*
X146447Y5561D01*
X146372Y5504D01*
X146316Y5430D01*
X146280Y5344D01*
X146268Y5251D01*
X146280Y5159D01*
X146316Y5072D01*
X146372Y4998D01*
X146447Y4942D01*
X146533Y4906D01*
X146625Y4894D01*
X146718Y4906D01*
X146804Y4942D01*
X146878Y4998D01*
X146935Y5072D01*
X146970Y5159D01*
X146983Y5251D01*
X146970Y5344D01*
X146935Y5430D01*
X146878Y5504D01*
X146804Y5561D01*
X146718Y5596D01*
X146625Y5609D01*
D02*
G37*
G36*
X109155Y5047D02*
X108711D01*
Y4800D01*
X109155D01*
Y5047D01*
D02*
G37*
G36*
X27842Y5768D02*
X26936D01*
Y4863D01*
X27842D01*
Y5768D01*
D02*
G37*
G36*
X110659Y10228D02*
X110382D01*
Y9893D01*
X110659D01*
Y10228D01*
D02*
G37*
G36*
X111035D02*
X110759D01*
Y9893D01*
X111035D01*
Y10228D01*
D02*
G37*
G36*
Y9793D02*
X110759D01*
Y9457D01*
X111035D01*
Y9793D01*
D02*
G37*
G36*
X108622Y10551D02*
X107913D01*
Y10494D01*
X91250D01*
X91183Y10486D01*
X91121Y10460D01*
X91067Y10419D01*
X91026Y10365D01*
X91001Y10303D01*
X90992Y10236D01*
X91001Y10169D01*
X91026Y10107D01*
X91067Y10054D01*
X91121Y10013D01*
X91183Y9987D01*
X91250Y9978D01*
X107913D01*
Y9921D01*
X108491D01*
X108510Y9875D01*
X108399Y9764D01*
X107913D01*
Y9134D01*
X108622D01*
Y9259D01*
X108631Y9266D01*
X108949Y9584D01*
X109715D01*
Y9498D01*
X110285D01*
Y10187D01*
X109715D01*
Y10101D01*
X108843D01*
X108776Y10092D01*
X108713Y10066D01*
X108672Y10034D01*
X108622Y10052D01*
Y10551D01*
D02*
G37*
G36*
X129053Y11779D02*
X128147D01*
Y10677D01*
X129053D01*
Y11779D01*
D02*
G37*
G36*
X130053D02*
X129147D01*
Y10677D01*
X130053D01*
Y11779D01*
D02*
G37*
G36*
X2033Y10189D02*
X1925Y10174D01*
X1825Y10133D01*
X1738Y10066D01*
X1710Y10030D01*
X1347D01*
X1318Y10066D01*
X1232Y10133D01*
X1132Y10174D01*
X1024Y10189D01*
X916Y10174D01*
X815Y10133D01*
X729Y10066D01*
X663Y9980D01*
X621Y9880D01*
X607Y9772D01*
X621Y9664D01*
X663Y9563D01*
X729Y9477D01*
X815Y9411D01*
X916Y9369D01*
X1024Y9355D01*
X1132Y9369D01*
X1232Y9411D01*
X1318Y9477D01*
X1347Y9514D01*
X1710D01*
X1738Y9477D01*
X1825Y9411D01*
X1925Y9369D01*
X2033Y9355D01*
X2141Y9369D01*
X2242Y9411D01*
X2246Y9414D01*
X83272D01*
X83364Y9426D01*
X83450Y9462D01*
X83524Y9519D01*
X83581Y9593D01*
X83617Y9679D01*
X83629Y9772D01*
X83617Y9864D01*
X83581Y9950D01*
X83524Y10024D01*
X83450Y10081D01*
X83364Y10117D01*
X83272Y10129D01*
X2246D01*
X2242Y10133D01*
X2141Y10174D01*
X2033Y10189D01*
D02*
G37*
G36*
X124636Y10474D02*
X124389D01*
Y10129D01*
X124636D01*
Y10474D01*
D02*
G37*
G36*
X110659Y9793D02*
X110382D01*
Y9457D01*
X110659D01*
Y9793D01*
D02*
G37*
G36*
X125744Y8485D02*
X125056D01*
Y8221D01*
X124893Y8058D01*
X88180D01*
X88150Y8081D01*
X88064Y8117D01*
X87972Y8129D01*
X2246D01*
X2242Y8133D01*
X2141Y8174D01*
X2033Y8189D01*
X1925Y8174D01*
X1825Y8133D01*
X1738Y8066D01*
X1710Y8030D01*
X1347D01*
X1318Y8066D01*
X1232Y8133D01*
X1132Y8174D01*
X1024Y8189D01*
X916Y8174D01*
X815Y8133D01*
X729Y8066D01*
X663Y7980D01*
X621Y7880D01*
X607Y7772D01*
X621Y7664D01*
X663Y7563D01*
X729Y7477D01*
X815Y7411D01*
X916Y7369D01*
X1024Y7355D01*
X1132Y7369D01*
X1232Y7411D01*
X1318Y7477D01*
X1347Y7514D01*
X1710D01*
X1738Y7477D01*
X1825Y7411D01*
X1925Y7369D01*
X2033Y7355D01*
X2141Y7369D01*
X2242Y7411D01*
X2246Y7414D01*
X87972D01*
X88064Y7426D01*
X88150Y7462D01*
X88224Y7519D01*
X88242Y7542D01*
X125000D01*
X125067Y7551D01*
X125129Y7576D01*
X125183Y7617D01*
X125480Y7915D01*
X125744D01*
Y8485D01*
D02*
G37*
G36*
X146575Y8983D02*
X146233D01*
X146240Y8929D01*
X146280Y8833D01*
X146343Y8751D01*
X146426Y8687D01*
X146522Y8648D01*
X146575Y8641D01*
Y8983D01*
D02*
G37*
G36*
X155856Y8491D02*
X155215D01*
Y7850D01*
X155856D01*
Y8491D01*
D02*
G37*
G36*
X156596D02*
X155956D01*
Y7850D01*
X156596D01*
Y8491D01*
D02*
G37*
G36*
X146675Y9425D02*
Y9083D01*
X147017D01*
X147010Y9136D01*
X146970Y9232D01*
X146907Y9315D01*
X146825Y9378D01*
X146728Y9418D01*
X146675Y9425D01*
D02*
G37*
G36*
X141732Y15221D02*
X141507Y15203D01*
X141287Y15150D01*
X141078Y15064D01*
X140885Y14946D01*
X140713Y14799D01*
X140566Y14627D01*
X140448Y14434D01*
X140361Y14225D01*
X140309Y14005D01*
X140291Y13780D01*
X140309Y13554D01*
X140361Y13334D01*
X140448Y13125D01*
X140566Y12932D01*
X140713Y12760D01*
X140885Y12613D01*
X141078Y12495D01*
X141287Y12409D01*
X141290Y12408D01*
X141285Y12358D01*
X120900D01*
X120833Y12349D01*
X120771Y12324D01*
X120717Y12283D01*
X117493Y9058D01*
X88180D01*
X88150Y9081D01*
X88064Y9117D01*
X87972Y9129D01*
X2246D01*
X2242Y9133D01*
X2141Y9174D01*
X2033Y9189D01*
X1925Y9174D01*
X1825Y9133D01*
X1738Y9066D01*
X1710Y9030D01*
X1347D01*
X1318Y9066D01*
X1232Y9133D01*
X1132Y9174D01*
X1024Y9189D01*
X916Y9174D01*
X815Y9133D01*
X729Y9066D01*
X663Y8980D01*
X621Y8880D01*
X607Y8772D01*
X621Y8664D01*
X663Y8563D01*
X729Y8477D01*
X815Y8411D01*
X916Y8369D01*
X1024Y8355D01*
X1132Y8369D01*
X1232Y8411D01*
X1318Y8477D01*
X1347Y8514D01*
X1710D01*
X1738Y8477D01*
X1825Y8411D01*
X1925Y8369D01*
X2033Y8355D01*
X2141Y8369D01*
X2242Y8411D01*
X2246Y8414D01*
X87972D01*
X88064Y8426D01*
X88150Y8462D01*
X88224Y8519D01*
X88242Y8542D01*
X117600D01*
X117667Y8551D01*
X117729Y8576D01*
X117783Y8617D01*
X121007Y11842D01*
X125903D01*
X125936Y11797D01*
X125931Y11783D01*
X125915Y11768D01*
X124293D01*
X124226Y11759D01*
X124190Y11744D01*
X124164Y11733D01*
X124110Y11692D01*
X124072Y11654D01*
X123729D01*
Y10946D01*
X123983D01*
X124014Y10911D01*
X124013Y10884D01*
X124007Y10878D01*
X123571D01*
Y10633D01*
X123327Y10389D01*
X123286Y10335D01*
X123260Y10273D01*
X123251Y10206D01*
Y9205D01*
X123214D01*
Y8595D01*
X123755D01*
X123805Y8595D01*
X123855Y8595D01*
X124395D01*
Y8642D01*
X125056D01*
Y8623D01*
X125744D01*
Y9194D01*
X125056D01*
Y9158D01*
X124395D01*
Y9205D01*
X123855D01*
X123805Y9205D01*
X123768Y9236D01*
Y10099D01*
X123838Y10170D01*
X124042D01*
Y10129D01*
X124289D01*
Y10524D01*
X124339D01*
Y10574D01*
X124636D01*
Y10919D01*
X124476D01*
X124437Y10946D01*
X124437Y10969D01*
Y11252D01*
X125955D01*
Y11215D01*
X126545D01*
Y11252D01*
X127147D01*
Y10677D01*
X128053D01*
Y11779D01*
X127147D01*
Y11768D01*
X126581D01*
X126571Y11778D01*
X126564Y11797D01*
X126597Y11842D01*
X144435D01*
X146269Y10008D01*
X146280Y9924D01*
X146316Y9838D01*
X146372Y9764D01*
X146447Y9707D01*
X146533Y9672D01*
X146625Y9660D01*
X146718Y9672D01*
X146804Y9707D01*
X146871Y9759D01*
X155256D01*
Y9150D01*
X156555D01*
Y10450D01*
X155256D01*
Y10275D01*
X146871D01*
X146804Y10326D01*
X146718Y10362D01*
X146634Y10373D01*
X144725Y12283D01*
X144671Y12324D01*
X144609Y12349D01*
X144542Y12358D01*
X142180D01*
X142174Y12408D01*
X142178Y12409D01*
X142387Y12495D01*
X142580Y12613D01*
X142752Y12760D01*
X142898Y12932D01*
X143017Y13125D01*
X143103Y13334D01*
X143156Y13554D01*
X143174Y13780D01*
X143156Y14005D01*
X143103Y14225D01*
X143017Y14434D01*
X142898Y14627D01*
X142752Y14799D01*
X142580Y14946D01*
X142387Y15064D01*
X142178Y15150D01*
X141958Y15203D01*
X141732Y15221D01*
D02*
G37*
G36*
X147017Y8983D02*
X146675D01*
Y8641D01*
X146728Y8648D01*
X146825Y8687D01*
X146907Y8751D01*
X146970Y8833D01*
X147010Y8929D01*
X147017Y8983D01*
D02*
G37*
G36*
X146575Y9425D02*
X146522Y9418D01*
X146426Y9378D01*
X146343Y9315D01*
X146280Y9232D01*
X146240Y9136D01*
X146233Y9083D01*
X146575D01*
Y9425D01*
D02*
G37*
G36*
X59055Y7347D02*
X58830Y7329D01*
X58610Y7276D01*
X58401Y7190D01*
X58208Y7072D01*
X58036Y6925D01*
X57889Y6753D01*
X57771Y6560D01*
X57684Y6351D01*
X57631Y6131D01*
X57614Y5906D01*
X57631Y5680D01*
X57684Y5460D01*
X57771Y5251D01*
X57889Y5058D01*
X58036Y4886D01*
X58208Y4739D01*
X58401Y4621D01*
X58610Y4535D01*
X58830Y4482D01*
X59055Y4464D01*
X59281Y4482D01*
X59501Y4535D01*
X59710Y4621D01*
X59902Y4739D01*
X60074Y4886D01*
X60221Y5058D01*
X60339Y5251D01*
X60426Y5460D01*
X60479Y5680D01*
X60497Y5906D01*
X60479Y6131D01*
X60426Y6351D01*
X60339Y6560D01*
X60221Y6753D01*
X60074Y6925D01*
X59902Y7072D01*
X59710Y7190D01*
X59501Y7276D01*
X59281Y7329D01*
X59055Y7347D01*
D02*
G37*
G36*
X113548Y1950D02*
X113400D01*
Y1802D01*
X113449D01*
X113548Y1901D01*
Y1950D01*
D02*
G37*
G36*
X129053Y9023D02*
X128147D01*
Y7921D01*
X128342D01*
Y4450D01*
X128351Y4383D01*
X128376Y4321D01*
X128417Y4267D01*
X130184Y2501D01*
X130237Y2460D01*
X130300Y2434D01*
X130367Y2425D01*
X133347D01*
Y2034D01*
X134646D01*
Y3333D01*
X133347D01*
Y2942D01*
X130473D01*
X128858Y4557D01*
Y7921D01*
X129053D01*
Y9023D01*
D02*
G37*
G36*
X150610Y2511D02*
X150517Y2499D01*
X150429Y2462D01*
X150354Y2405D01*
X150297Y2330D01*
X150260Y2243D01*
X150248Y2149D01*
X150260Y2055D01*
X150297Y1968D01*
X150354Y1893D01*
X150429Y1835D01*
X150517Y1799D01*
X150610Y1787D01*
X150704Y1799D01*
X150791Y1835D01*
X150866Y1893D01*
X150924Y1968D01*
X150960Y2055D01*
X150972Y2149D01*
X150960Y2243D01*
X150924Y2330D01*
X150866Y2405D01*
X150791Y2462D01*
X150704Y2499D01*
X150610Y2511D01*
D02*
G37*
G36*
X113300Y1950D02*
X113152D01*
Y1901D01*
X113251Y1802D01*
X113300D01*
Y1950D01*
D02*
G37*
G36*
Y2198D02*
X113251D01*
X113152Y2099D01*
Y2050D01*
X113300D01*
Y2198D01*
D02*
G37*
G36*
X113449D02*
X113400D01*
Y2050D01*
X113548D01*
Y2099D01*
X113449Y2198D01*
D02*
G37*
G36*
X130053Y9023D02*
X129147D01*
Y7921D01*
X129342D01*
Y5750D01*
X129351Y5683D01*
X129376Y5621D01*
X129417Y5567D01*
X130917Y4067D01*
X130971Y4026D01*
X131033Y4001D01*
X131100Y3992D01*
X134323D01*
X135347Y2968D01*
Y2034D01*
X136646D01*
Y3333D01*
X135712D01*
X134613Y4433D01*
X134559Y4474D01*
X134497Y4499D01*
X134430Y4508D01*
X131207D01*
X129858Y5857D01*
Y7921D01*
X130053D01*
Y9023D01*
D02*
G37*
G36*
X114126Y2391D02*
X113781D01*
Y2045D01*
X114126D01*
Y2391D01*
D02*
G37*
G36*
X107509Y2561D02*
X107164D01*
Y1625D01*
X107509D01*
Y2561D01*
D02*
G37*
G36*
X154044Y1854D02*
X153940Y1844D01*
X153791Y1799D01*
X153654Y1725D01*
X153534Y1627D01*
X153435Y1507D01*
X153362Y1370D01*
X153317Y1221D01*
X153307Y1116D01*
X154044D01*
Y1854D01*
D02*
G37*
G36*
X154144D02*
Y1116D01*
X154882D01*
X154872Y1221D01*
X154827Y1370D01*
X154754Y1507D01*
X154655Y1627D01*
X154535Y1725D01*
X154398Y1799D01*
X154249Y1844D01*
X154144Y1854D01*
D02*
G37*
G36*
X107954Y1525D02*
X107609D01*
Y589D01*
X107954D01*
Y1525D01*
D02*
G37*
G36*
X107509D02*
X107164D01*
Y589D01*
X107509D01*
Y1525D01*
D02*
G37*
G36*
X151963Y2006D02*
X151245D01*
Y1288D01*
X151963D01*
Y2006D01*
D02*
G37*
G36*
X109005Y775D02*
X108522D01*
Y548D01*
X109005D01*
Y775D01*
D02*
G37*
G36*
X88750Y4657D02*
X88658Y4645D01*
X88571Y4610D01*
X88497Y4553D01*
X88440Y4479D01*
X88405Y4392D01*
X88393Y4300D01*
X88405Y4207D01*
X88440Y4121D01*
X88497Y4047D01*
X91197Y1347D01*
X91271Y1290D01*
X91357Y1255D01*
X91450Y1243D01*
X91543Y1255D01*
X91629Y1290D01*
X91696Y1342D01*
X106000D01*
X106067Y1351D01*
X106129Y1376D01*
X106183Y1417D01*
X106224Y1471D01*
X106249Y1533D01*
X106258Y1600D01*
X106249Y1667D01*
X106224Y1729D01*
X106183Y1783D01*
X106129Y1824D01*
X106067Y1849D01*
X106000Y1858D01*
X91697D01*
X89003Y4553D01*
X88929Y4610D01*
X88842Y4645D01*
X88750Y4657D01*
D02*
G37*
G36*
X109588Y775D02*
X109105D01*
Y548D01*
X109588D01*
Y775D01*
D02*
G37*
G36*
X1024Y4184D02*
X916Y4170D01*
X815Y4128D01*
X729Y4062D01*
X663Y3975D01*
X621Y3875D01*
X607Y3767D01*
X621Y3659D01*
X663Y3558D01*
X729Y3472D01*
X815Y3406D01*
X916Y3364D01*
X1024Y3350D01*
X1132Y3364D01*
X1232Y3406D01*
X1318Y3472D01*
X1385Y3558D01*
X1426Y3659D01*
X1441Y3767D01*
X1426Y3875D01*
X1385Y3975D01*
X1318Y4062D01*
X1232Y4128D01*
X1132Y4170D01*
X1024Y4184D01*
D02*
G37*
G36*
X2033D02*
X1925Y4170D01*
X1825Y4128D01*
X1738Y4062D01*
X1672Y3975D01*
X1630Y3875D01*
X1616Y3767D01*
X1630Y3659D01*
X1672Y3558D01*
X1738Y3472D01*
X1825Y3406D01*
X1925Y3364D01*
X2033Y3350D01*
X2141Y3364D01*
X2242Y3406D01*
X2328Y3472D01*
X2394Y3558D01*
X2436Y3659D01*
X2450Y3767D01*
X2436Y3875D01*
X2394Y3975D01*
X2328Y4062D01*
X2242Y4128D01*
X2141Y4170D01*
X2033Y4184D01*
D02*
G37*
G36*
X109649Y3348D02*
X109600D01*
Y3200D01*
X109748D01*
Y3249D01*
X109649Y3348D01*
D02*
G37*
G36*
X98000Y5558D02*
X97933Y5549D01*
X97871Y5524D01*
X97817Y5483D01*
X97776Y5429D01*
X97751Y5367D01*
X97742Y5300D01*
X97751Y5233D01*
X97776Y5171D01*
X97817Y5117D01*
X99517Y3417D01*
X99571Y3376D01*
X99633Y3351D01*
X99700Y3342D01*
X106000D01*
X106067Y3351D01*
X106129Y3376D01*
X106183Y3417D01*
X106224Y3471D01*
X106249Y3533D01*
X106258Y3600D01*
X106249Y3667D01*
X106224Y3729D01*
X106183Y3783D01*
X106129Y3824D01*
X106067Y3849D01*
X106000Y3858D01*
X99807D01*
X98183Y5483D01*
X98129Y5524D01*
X98067Y5549D01*
X98000Y5558D01*
D02*
G37*
G36*
X88000Y7307D02*
X63850D01*
X63758Y7295D01*
X63671Y7260D01*
X63597Y7203D01*
X60802Y4407D01*
X7058D01*
X4516Y6949D01*
X4462Y6990D01*
X4400Y7016D01*
X4333Y7025D01*
X2356D01*
X2328Y7062D01*
X2242Y7128D01*
X2141Y7170D01*
X2033Y7184D01*
X1925Y7170D01*
X1825Y7128D01*
X1738Y7062D01*
X1710Y7025D01*
X1347D01*
X1318Y7062D01*
X1232Y7128D01*
X1132Y7170D01*
X1024Y7184D01*
X916Y7170D01*
X815Y7128D01*
X729Y7062D01*
X663Y6975D01*
X621Y6875D01*
X607Y6767D01*
X621Y6659D01*
X663Y6558D01*
X729Y6472D01*
X815Y6406D01*
X916Y6364D01*
X1024Y6350D01*
X1132Y6364D01*
X1232Y6406D01*
X1318Y6472D01*
X1347Y6509D01*
X1710D01*
X1738Y6472D01*
X1825Y6406D01*
X1925Y6364D01*
X2033Y6350D01*
X2141Y6364D01*
X2242Y6406D01*
X2328Y6472D01*
X2356Y6509D01*
X4226D01*
X6694Y4041D01*
X6705Y3957D01*
X6740Y3871D01*
X6797Y3797D01*
X6813Y3785D01*
X6801Y3732D01*
X6787Y3728D01*
X4566Y5949D01*
X4512Y5990D01*
X4450Y6016D01*
X4383Y6025D01*
X2356D01*
X2328Y6062D01*
X2242Y6128D01*
X2141Y6170D01*
X2033Y6184D01*
X1925Y6170D01*
X1825Y6128D01*
X1738Y6062D01*
X1710Y6025D01*
X1347D01*
X1318Y6062D01*
X1232Y6128D01*
X1132Y6170D01*
X1024Y6184D01*
X916Y6170D01*
X815Y6128D01*
X729Y6062D01*
X663Y5975D01*
X621Y5875D01*
X607Y5767D01*
X621Y5659D01*
X663Y5558D01*
X729Y5472D01*
X815Y5406D01*
X916Y5364D01*
X1024Y5350D01*
X1132Y5364D01*
X1232Y5406D01*
X1318Y5472D01*
X1347Y5509D01*
X1710D01*
X1738Y5472D01*
X1825Y5406D01*
X1925Y5364D01*
X2033Y5350D01*
X2141Y5364D01*
X2242Y5406D01*
X2328Y5472D01*
X2356Y5509D01*
X4276D01*
X6444Y3341D01*
X6455Y3257D01*
X6490Y3171D01*
X6547Y3097D01*
X6621Y3040D01*
X6708Y3005D01*
X6800Y2993D01*
X61600D01*
X61693Y3005D01*
X61779Y3040D01*
X61853Y3097D01*
X64498Y5743D01*
X88000D01*
X88092Y5755D01*
X88179Y5790D01*
X88246Y5842D01*
X95643D01*
X98917Y2567D01*
X98971Y2526D01*
X99033Y2501D01*
X99100Y2492D01*
X106000D01*
X106067Y2501D01*
X106129Y2526D01*
X106183Y2567D01*
X106224Y2621D01*
X106249Y2683D01*
X106258Y2750D01*
X106249Y2817D01*
X106224Y2879D01*
X106183Y2933D01*
X106129Y2974D01*
X106067Y2999D01*
X106000Y3008D01*
X99207D01*
X95933Y6283D01*
X95879Y6324D01*
X95817Y6349D01*
X95750Y6358D01*
X88246D01*
X88179Y6410D01*
X88092Y6445D01*
X88000Y6457D01*
X64350D01*
X64257Y6445D01*
X64171Y6410D01*
X64097Y6353D01*
X61452Y3707D01*
X61168D01*
X61151Y3757D01*
X61203Y3797D01*
X63998Y6593D01*
X88000D01*
X88092Y6605D01*
X88179Y6640D01*
X88253Y6697D01*
X88310Y6771D01*
X88345Y6858D01*
X88357Y6950D01*
X88345Y7042D01*
X88310Y7129D01*
X88253Y7203D01*
X88179Y7260D01*
X88092Y7295D01*
X88000Y7307D01*
D02*
G37*
G36*
X7874Y7347D02*
X7649Y7329D01*
X7429Y7276D01*
X7220Y7190D01*
X7027Y7072D01*
X6855Y6925D01*
X6708Y6753D01*
X6590Y6560D01*
X6503Y6351D01*
X6450Y6131D01*
X6433Y5906D01*
X6450Y5680D01*
X6503Y5460D01*
X6590Y5251D01*
X6708Y5058D01*
X6855Y4886D01*
X7027Y4739D01*
X7220Y4621D01*
X7429Y4535D01*
X7649Y4482D01*
X7874Y4464D01*
X8100Y4482D01*
X8319Y4535D01*
X8528Y4621D01*
X8721Y4739D01*
X8893Y4886D01*
X9040Y5058D01*
X9158Y5251D01*
X9245Y5460D01*
X9298Y5680D01*
X9315Y5906D01*
X9298Y6131D01*
X9245Y6351D01*
X9158Y6560D01*
X9040Y6753D01*
X8893Y6925D01*
X8721Y7072D01*
X8528Y7190D01*
X8319Y7276D01*
X8100Y7329D01*
X7874Y7347D01*
D02*
G37*
G36*
X131053Y9023D02*
X130147D01*
Y7921D01*
X130342D01*
Y6900D01*
X130351Y6833D01*
X130376Y6771D01*
X130417Y6717D01*
X131867Y5267D01*
X131921Y5226D01*
X131983Y5201D01*
X132050Y5192D01*
X135123D01*
X137347Y2968D01*
Y2034D01*
X138646D01*
Y2968D01*
X139687Y4009D01*
X146380D01*
X146447Y3957D01*
X146533Y3922D01*
X146625Y3910D01*
X146718Y3922D01*
X146804Y3957D01*
X146878Y4014D01*
X146935Y4088D01*
X146970Y4174D01*
X146983Y4267D01*
X146970Y4359D01*
X146935Y4446D01*
X146878Y4520D01*
X146804Y4576D01*
X146718Y4612D01*
X146625Y4624D01*
X146533Y4612D01*
X146447Y4576D01*
X146380Y4525D01*
X142285D01*
X142275Y4575D01*
X142387Y4621D01*
X142580Y4739D01*
X142752Y4886D01*
X142898Y5058D01*
X143017Y5251D01*
X143103Y5460D01*
X143156Y5680D01*
X143174Y5906D01*
X143156Y6131D01*
X143103Y6351D01*
X143017Y6560D01*
X142898Y6753D01*
X142752Y6925D01*
X142580Y7072D01*
X142387Y7190D01*
X142178Y7276D01*
X141958Y7329D01*
X141732Y7347D01*
X141507Y7329D01*
X141287Y7276D01*
X141078Y7190D01*
X140885Y7072D01*
X140713Y6925D01*
X140566Y6753D01*
X140448Y6560D01*
X140361Y6351D01*
X140309Y6131D01*
X140291Y5906D01*
X140309Y5680D01*
X140361Y5460D01*
X140448Y5251D01*
X140566Y5058D01*
X140713Y4886D01*
X140885Y4739D01*
X141078Y4621D01*
X141189Y4575D01*
X141179Y4525D01*
X139580D01*
X139514Y4516D01*
X139451Y4490D01*
X139398Y4449D01*
X138281Y3333D01*
X137712D01*
X135413Y5633D01*
X135359Y5674D01*
X135297Y5699D01*
X135230Y5708D01*
X132157D01*
X130858Y7007D01*
Y7921D01*
X131053D01*
Y9023D01*
D02*
G37*
G36*
X154044Y1016D02*
X153307D01*
X153317Y911D01*
X153362Y763D01*
X153435Y626D01*
X153534Y506D01*
X153654Y407D01*
X153791Y334D01*
X153940Y289D01*
X154044Y278D01*
Y1016D01*
D02*
G37*
G36*
X109500Y3348D02*
X109451D01*
X109352Y3249D01*
Y3200D01*
X109500D01*
Y3348D01*
D02*
G37*
G36*
X150600Y3515D02*
X150507Y3503D01*
X150419Y3466D01*
X150344Y3409D01*
X150287Y3334D01*
X150251Y3246D01*
X150238Y3153D01*
X150251Y3059D01*
X150287Y2972D01*
X150344Y2897D01*
X150419Y2839D01*
X150507Y2803D01*
X150600Y2791D01*
X150694Y2803D01*
X150781Y2839D01*
X150856Y2897D01*
X150914Y2972D01*
X150950Y3059D01*
X150963Y3153D01*
X150950Y3246D01*
X150914Y3334D01*
X150856Y3409D01*
X150781Y3466D01*
X150694Y3503D01*
X150600Y3515D01*
D02*
G37*
G36*
X94750Y5657D02*
X64850D01*
X64757Y5645D01*
X64671Y5610D01*
X64597Y5553D01*
X61952Y2907D01*
X6008D01*
X3966Y4949D01*
X3912Y4990D01*
X3850Y5016D01*
X3783Y5025D01*
X2356D01*
X2328Y5062D01*
X2242Y5128D01*
X2141Y5170D01*
X2033Y5184D01*
X1925Y5170D01*
X1825Y5128D01*
X1738Y5062D01*
X1710Y5025D01*
X1347D01*
X1318Y5062D01*
X1232Y5128D01*
X1132Y5170D01*
X1024Y5184D01*
X916Y5170D01*
X815Y5128D01*
X729Y5062D01*
X663Y4975D01*
X621Y4875D01*
X607Y4767D01*
X621Y4659D01*
X663Y4558D01*
X729Y4472D01*
X815Y4406D01*
X916Y4364D01*
X1024Y4350D01*
X1132Y4364D01*
X1232Y4406D01*
X1318Y4472D01*
X1347Y4509D01*
X1710D01*
X1738Y4472D01*
X1825Y4406D01*
X1925Y4364D01*
X2033Y4350D01*
X2141Y4364D01*
X2242Y4406D01*
X2328Y4472D01*
X2356Y4509D01*
X3676D01*
X5644Y2541D01*
X5655Y2457D01*
X5690Y2371D01*
X5747Y2297D01*
X5821Y2240D01*
X5907Y2205D01*
X6000Y2193D01*
X62100D01*
X62193Y2205D01*
X62279Y2240D01*
X62353Y2297D01*
X64998Y4943D01*
X94750D01*
X94843Y4955D01*
X94929Y4990D01*
X95003Y5047D01*
X95060Y5121D01*
X95095Y5207D01*
X95107Y5300D01*
X95095Y5393D01*
X95060Y5479D01*
X95003Y5553D01*
X94929Y5610D01*
X94843Y5645D01*
X94750Y5657D01*
D02*
G37*
G36*
X151604Y3013D02*
X151511Y3001D01*
X151423Y2964D01*
X151348Y2907D01*
X151291Y2832D01*
X151255Y2745D01*
X151242Y2651D01*
X151255Y2557D01*
X151291Y2470D01*
X151348Y2395D01*
X151423Y2337D01*
X151511Y2301D01*
X151604Y2289D01*
X151698Y2301D01*
X151785Y2337D01*
X151860Y2395D01*
X151918Y2470D01*
X151954Y2557D01*
X151966Y2651D01*
X151954Y2745D01*
X151918Y2832D01*
X151860Y2907D01*
X151785Y2964D01*
X151698Y3001D01*
X151604Y3013D01*
D02*
G37*
G36*
X154882Y1016D02*
X154144D01*
Y278D01*
X154249Y289D01*
X154398Y334D01*
X154535Y407D01*
X154655Y506D01*
X154754Y626D01*
X154827Y763D01*
X154872Y911D01*
X154882Y1016D01*
D02*
G37*
G36*
X109155Y3200D02*
X108711D01*
Y2953D01*
X109155D01*
Y3200D01*
D02*
G37*
G36*
X2033Y3184D02*
X1925Y3170D01*
X1825Y3128D01*
X1738Y3062D01*
X1710Y3025D01*
X1347D01*
X1318Y3062D01*
X1232Y3128D01*
X1132Y3170D01*
X1024Y3184D01*
X916Y3170D01*
X815Y3128D01*
X729Y3062D01*
X663Y2975D01*
X621Y2875D01*
X607Y2767D01*
X621Y2659D01*
X663Y2558D01*
X729Y2472D01*
X815Y2406D01*
X916Y2364D01*
X1024Y2350D01*
X1132Y2364D01*
X1232Y2406D01*
X1318Y2472D01*
X1347Y2509D01*
X1710D01*
X1738Y2472D01*
X1825Y2406D01*
X1925Y2364D01*
X2033Y2350D01*
X2141Y2364D01*
X2242Y2406D01*
X2328Y2472D01*
X2394Y2558D01*
X2436Y2659D01*
X2450Y2767D01*
X2436Y2875D01*
X2394Y2975D01*
X2328Y3062D01*
X2242Y3128D01*
X2141Y3170D01*
X2033Y3184D01*
D02*
G37*
G36*
X109500Y3100D02*
X109352D01*
Y3051D01*
X109451Y2952D01*
X109500D01*
Y3100D01*
D02*
G37*
G36*
X109748D02*
X109600D01*
Y2952D01*
X109649D01*
X109748Y3051D01*
Y3100D01*
D02*
G37*
G36*
X4066Y19157D02*
X3974Y19145D01*
X3887Y19110D01*
X3813Y19053D01*
X3813Y19053D01*
X1931Y17170D01*
X1925Y17170D01*
X1825Y17128D01*
X1738Y17062D01*
X1672Y16975D01*
X1630Y16875D01*
X1616Y16767D01*
X1621Y16729D01*
X1553Y16662D01*
X1503D01*
X1436Y16729D01*
X1441Y16767D01*
X1426Y16875D01*
X1385Y16975D01*
X1318Y17062D01*
X1232Y17128D01*
X1132Y17170D01*
X1024Y17184D01*
X916Y17170D01*
X815Y17128D01*
X729Y17062D01*
X663Y16975D01*
X621Y16875D01*
X607Y16767D01*
X621Y16659D01*
X663Y16558D01*
X729Y16472D01*
X815Y16406D01*
X916Y16364D01*
X1024Y16350D01*
X1078Y16357D01*
X1138Y16297D01*
Y16247D01*
X1070Y16178D01*
X1024Y16184D01*
X916Y16170D01*
X815Y16128D01*
X729Y16062D01*
X663Y15975D01*
X621Y15875D01*
X607Y15767D01*
X621Y15659D01*
X663Y15558D01*
X729Y15472D01*
X815Y15406D01*
X916Y15364D01*
X1024Y15350D01*
X1132Y15364D01*
X1232Y15406D01*
X1318Y15472D01*
X1385Y15558D01*
X1426Y15659D01*
X1441Y15767D01*
X1435Y15813D01*
X1503Y15882D01*
X1553D01*
X1622Y15813D01*
X1616Y15767D01*
X1630Y15659D01*
X1672Y15558D01*
X1738Y15472D01*
X1825Y15406D01*
X1925Y15364D01*
X2033Y15350D01*
X2141Y15364D01*
X2242Y15406D01*
X2328Y15472D01*
X2394Y15558D01*
X2436Y15659D01*
X2450Y15767D01*
X2436Y15875D01*
X2394Y15975D01*
X2328Y16062D01*
X2242Y16128D01*
X2141Y16170D01*
X2033Y16184D01*
X1987Y16178D01*
X1893Y16272D01*
X1979Y16357D01*
X2033Y16350D01*
X2141Y16364D01*
X2242Y16406D01*
X2328Y16472D01*
X2394Y16558D01*
X2436Y16659D01*
X2437Y16665D01*
X4214Y18443D01*
X101750D01*
X101842Y18455D01*
X101929Y18490D01*
X102003Y18547D01*
X102060Y18621D01*
X102095Y18707D01*
X102107Y18800D01*
X102095Y18893D01*
X102060Y18979D01*
X102003Y19053D01*
X101929Y19110D01*
X101842Y19145D01*
X101750Y19157D01*
X4066D01*
X4066Y19157D01*
D02*
G37*
G36*
X132050Y17050D02*
X131715D01*
Y16774D01*
X132050D01*
Y17050D01*
D02*
G37*
G36*
X155856Y16941D02*
X155215D01*
Y16300D01*
X155856D01*
Y16941D01*
D02*
G37*
G36*
X156596D02*
X155956D01*
Y16300D01*
X156596D01*
Y16941D01*
D02*
G37*
G36*
X133685Y17050D02*
X133350D01*
Y16774D01*
X133685D01*
Y17050D01*
D02*
G37*
G36*
X134450D02*
X134115D01*
Y16774D01*
X134450D01*
Y17050D01*
D02*
G37*
G36*
X132485D02*
X132150D01*
Y16774D01*
X132485D01*
Y17050D01*
D02*
G37*
G36*
X133250D02*
X132915D01*
Y16774D01*
X133250D01*
Y17050D01*
D02*
G37*
G36*
X25500Y16175D02*
X25155D01*
Y15534D01*
X25500D01*
Y16175D01*
D02*
G37*
G36*
X25945D02*
X25600D01*
Y15534D01*
X25945D01*
Y16175D01*
D02*
G37*
G36*
X117250Y15708D02*
X111750D01*
X111683Y15699D01*
X111621Y15674D01*
X111567Y15633D01*
X111526Y15579D01*
X111501Y15517D01*
X111492Y15450D01*
X111501Y15383D01*
X111526Y15321D01*
X111567Y15267D01*
X111621Y15226D01*
X111683Y15201D01*
X111750Y15192D01*
X117250D01*
X117317Y15201D01*
X117379Y15226D01*
X117433Y15267D01*
X117474Y15321D01*
X117499Y15383D01*
X117508Y15450D01*
X117499Y15517D01*
X117474Y15579D01*
X117433Y15633D01*
X117379Y15674D01*
X117317Y15699D01*
X117250Y15708D01*
D02*
G37*
G36*
X95688Y15869D02*
X26912D01*
X26819Y15857D01*
X26733Y15821D01*
X26659Y15765D01*
X26202Y15307D01*
X24948D01*
X24491Y15765D01*
X24417Y15821D01*
X24331Y15857D01*
X24239Y15869D01*
X5962D01*
X5869Y15857D01*
X5783Y15821D01*
X5709Y15765D01*
X3069Y13124D01*
X2246D01*
X2242Y13128D01*
X2141Y13170D01*
X2033Y13184D01*
X1925Y13170D01*
X1825Y13128D01*
X1820Y13124D01*
X1237D01*
X1232Y13128D01*
X1132Y13170D01*
X1024Y13184D01*
X916Y13170D01*
X815Y13128D01*
X729Y13062D01*
X663Y12975D01*
X621Y12875D01*
X607Y12767D01*
X621Y12659D01*
X663Y12558D01*
X729Y12472D01*
X815Y12406D01*
X916Y12364D01*
X1024Y12350D01*
X1132Y12364D01*
X1232Y12406D01*
X1237Y12410D01*
X1820D01*
X1825Y12406D01*
X1925Y12364D01*
X2033Y12350D01*
X2141Y12364D01*
X2242Y12406D01*
X2246Y12410D01*
X3217D01*
X3309Y12422D01*
X3396Y12457D01*
X3470Y12514D01*
X6110Y15154D01*
X7308D01*
X7318Y15104D01*
X7220Y15064D01*
X7027Y14946D01*
X6855Y14799D01*
X6708Y14627D01*
X6590Y14434D01*
X6503Y14225D01*
X6450Y14005D01*
X6433Y13780D01*
X6450Y13554D01*
X6503Y13334D01*
X6590Y13125D01*
X6708Y12932D01*
X6855Y12760D01*
X7027Y12613D01*
X7220Y12495D01*
X7429Y12409D01*
X7649Y12356D01*
X7874Y12338D01*
X8100Y12356D01*
X8319Y12409D01*
X8528Y12495D01*
X8721Y12613D01*
X8893Y12760D01*
X9040Y12932D01*
X9158Y13125D01*
X9245Y13334D01*
X9298Y13554D01*
X9315Y13780D01*
X9298Y14005D01*
X9245Y14225D01*
X9158Y14434D01*
X9040Y14627D01*
X8893Y14799D01*
X8721Y14946D01*
X8528Y15064D01*
X8431Y15104D01*
X8440Y15154D01*
X24091D01*
X24548Y14697D01*
X24622Y14640D01*
X24708Y14605D01*
X24800Y14593D01*
X26350D01*
X26442Y14605D01*
X26529Y14640D01*
X26603Y14697D01*
X27060Y15154D01*
X58489D01*
X58499Y15104D01*
X58401Y15064D01*
X58208Y14946D01*
X58036Y14799D01*
X57889Y14627D01*
X57771Y14434D01*
X57684Y14225D01*
X57631Y14005D01*
X57614Y13780D01*
X57631Y13554D01*
X57684Y13334D01*
X57771Y13125D01*
X57889Y12932D01*
X58036Y12760D01*
X58208Y12613D01*
X58401Y12495D01*
X58610Y12409D01*
X58830Y12356D01*
X59055Y12338D01*
X59281Y12356D01*
X59501Y12409D01*
X59710Y12495D01*
X59902Y12613D01*
X60074Y12760D01*
X60221Y12932D01*
X60339Y13125D01*
X60426Y13334D01*
X60479Y13554D01*
X60497Y13780D01*
X60479Y14005D01*
X60426Y14225D01*
X60339Y14434D01*
X60221Y14627D01*
X60074Y14799D01*
X59902Y14946D01*
X59710Y15064D01*
X59612Y15104D01*
X59622Y15154D01*
X95540D01*
X98297Y12397D01*
X98371Y12340D01*
X98457Y12305D01*
X98550Y12293D01*
X98643Y12305D01*
X98729Y12340D01*
X98803Y12397D01*
X98860Y12471D01*
X98895Y12557D01*
X98907Y12650D01*
X98895Y12743D01*
X98860Y12829D01*
X98803Y12903D01*
X95941Y15765D01*
X95867Y15821D01*
X95781Y15857D01*
X95688Y15869D01*
D02*
G37*
G36*
X111491Y16749D02*
X111399Y16737D01*
X111313Y16701D01*
X111239Y16644D01*
X106724Y12129D01*
X25904D01*
Y12426D01*
Y13725D01*
X25196D01*
Y13308D01*
X24500D01*
X24433Y13299D01*
X24371Y13274D01*
X24317Y13233D01*
X24276Y13179D01*
X24251Y13117D01*
X24242Y13050D01*
X24251Y12983D01*
X24276Y12921D01*
X24317Y12867D01*
X24371Y12826D01*
X24433Y12801D01*
X24500Y12792D01*
X25196D01*
Y12426D01*
Y12129D01*
X2246D01*
X2242Y12133D01*
X2141Y12174D01*
X2033Y12189D01*
X1925Y12174D01*
X1825Y12133D01*
X1738Y12066D01*
X1710Y12030D01*
X1347D01*
X1318Y12066D01*
X1232Y12133D01*
X1132Y12174D01*
X1024Y12189D01*
X916Y12174D01*
X815Y12133D01*
X729Y12066D01*
X663Y11980D01*
X621Y11880D01*
X607Y11772D01*
X621Y11664D01*
X663Y11563D01*
X729Y11477D01*
X815Y11411D01*
X916Y11369D01*
X1024Y11355D01*
X1132Y11369D01*
X1232Y11411D01*
X1318Y11477D01*
X1347Y11514D01*
X1710D01*
X1738Y11477D01*
X1825Y11411D01*
X1925Y11369D01*
X2033Y11355D01*
X2141Y11369D01*
X2242Y11411D01*
X2246Y11414D01*
X106872D01*
X106964Y11426D01*
X107050Y11462D01*
X107124Y11519D01*
X107137Y11535D01*
X107153Y11547D01*
X111739Y16133D01*
X131756D01*
Y16106D01*
X132444D01*
Y16133D01*
X132956D01*
Y16106D01*
X133112D01*
Y14950D01*
X133120Y14883D01*
X133133Y14852D01*
Y14714D01*
X133086Y14708D01*
X131246D01*
X131179Y14760D01*
X131093Y14795D01*
X131000Y14807D01*
X110850D01*
X110758Y14795D01*
X110671Y14760D01*
X110597Y14703D01*
X107252Y11357D01*
X101500D01*
X101407Y11345D01*
X101321Y11310D01*
X101247Y11253D01*
X101190Y11179D01*
X101155Y11092D01*
X101143Y11000D01*
X101155Y10907D01*
X101190Y10821D01*
X101247Y10747D01*
X101321Y10690D01*
X101407Y10655D01*
X101500Y10643D01*
X107400D01*
X107493Y10655D01*
X107579Y10690D01*
X107653Y10747D01*
X110998Y14093D01*
X131000D01*
X131093Y14105D01*
X131179Y14140D01*
X131246Y14192D01*
X133370D01*
X133436Y14201D01*
X133468Y14214D01*
X133606D01*
Y14352D01*
X133619Y14383D01*
X133628Y14450D01*
X133619Y14517D01*
X133606Y14548D01*
Y14686D01*
X133606D01*
Y14714D01*
X133606D01*
Y14852D01*
X133619Y14883D01*
X133628Y14950D01*
Y16106D01*
X133644D01*
Y16133D01*
X134156D01*
Y16106D01*
X134844D01*
Y16677D01*
X134156D01*
Y16649D01*
X133644D01*
Y16677D01*
X132956D01*
Y16649D01*
X132444D01*
Y16677D01*
X131756D01*
Y16649D01*
X111737D01*
X111670Y16701D01*
X111584Y16737D01*
X111491Y16749D01*
D02*
G37*
G36*
X25945Y16800D02*
X25155D01*
Y16455D01*
Y16275D01*
X25945D01*
Y16455D01*
Y16800D01*
D02*
G37*
G36*
X155856Y16200D02*
X155215D01*
Y15559D01*
X155856D01*
Y16200D01*
D02*
G37*
G36*
X156596D02*
X155956D01*
Y15559D01*
X156596D01*
Y16200D01*
D02*
G37*
G36*
X115369Y17705D02*
X115024D01*
Y17359D01*
X115369D01*
Y17705D01*
D02*
G37*
G36*
X156555Y18900D02*
X155256D01*
Y18607D01*
X118250D01*
X118158Y18595D01*
X118071Y18560D01*
X117997Y18503D01*
X117940Y18429D01*
X117905Y18342D01*
X117893Y18250D01*
X117905Y18158D01*
X117940Y18071D01*
X117997Y17997D01*
X118071Y17940D01*
X118158Y17905D01*
X118250Y17893D01*
X148352D01*
X148371Y17846D01*
X146616Y16092D01*
X146533Y16081D01*
X146447Y16045D01*
X146372Y15988D01*
X146316Y15914D01*
X146280Y15828D01*
X146268Y15735D01*
X146280Y15643D01*
X146316Y15557D01*
X146372Y15483D01*
X146447Y15426D01*
X146533Y15390D01*
X146625Y15378D01*
X146718Y15390D01*
X146804Y15426D01*
X146878Y15483D01*
X146935Y15557D01*
X146970Y15643D01*
X146981Y15727D01*
X149147Y17893D01*
X155256D01*
Y17600D01*
X156555D01*
Y18900D01*
D02*
G37*
G36*
X134450Y17426D02*
X134115D01*
Y17150D01*
X134450D01*
Y17426D01*
D02*
G37*
G36*
X134885D02*
X134550D01*
Y17150D01*
X134885D01*
Y17426D01*
D02*
G37*
G36*
X107954Y19096D02*
X107609D01*
Y18160D01*
X107954D01*
Y19096D01*
D02*
G37*
G36*
X110391Y19511D02*
X110391Y19511D01*
X108600D01*
X108600Y19511D01*
X108539Y19498D01*
X108486Y19464D01*
X108186Y19164D01*
X108152Y19111D01*
X108139Y19050D01*
X108139Y19050D01*
Y18700D01*
X108139Y18700D01*
X108152Y18639D01*
X108186Y18586D01*
X108348Y18425D01*
Y18375D01*
X108004Y18031D01*
X107954Y18052D01*
Y18060D01*
X107609D01*
Y17124D01*
X107939D01*
Y15708D01*
X107300D01*
X107233Y15699D01*
X107171Y15674D01*
X107117Y15633D01*
X107076Y15579D01*
X107051Y15517D01*
X107042Y15450D01*
X107051Y15383D01*
X107076Y15321D01*
X107117Y15267D01*
X107171Y15226D01*
X107233Y15201D01*
X107300Y15192D01*
X108168D01*
Y15000D01*
X109155D01*
Y15192D01*
X109600D01*
X109667Y15201D01*
X109729Y15226D01*
X109783Y15267D01*
X109824Y15321D01*
X109849Y15383D01*
X109858Y15450D01*
X109849Y15517D01*
X109824Y15579D01*
X109783Y15633D01*
X109729Y15674D01*
X109667Y15699D01*
X109600Y15708D01*
X109114D01*
Y15789D01*
X109900D01*
X109900Y15789D01*
X109961Y15802D01*
X110014Y15836D01*
X111064Y16886D01*
X111064Y16886D01*
X111098Y16939D01*
X111111Y17000D01*
Y17206D01*
X111235D01*
Y17842D01*
X111250D01*
X111317Y17851D01*
X111323Y17853D01*
X111373Y17824D01*
Y17206D01*
X111944D01*
Y17292D01*
X114013D01*
X114080Y17301D01*
X114142Y17326D01*
X114196Y17367D01*
X114237Y17408D01*
X114579D01*
Y17359D01*
X114924D01*
Y17755D01*
X114974D01*
Y17805D01*
X115369D01*
Y18150D01*
X114965D01*
X114954Y18196D01*
X114954Y18196D01*
X114954Y18196D01*
Y18904D01*
X114611D01*
X114583Y18933D01*
X114529Y18974D01*
X114467Y18999D01*
X114400Y19008D01*
X111985D01*
Y19094D01*
X111415D01*
Y18630D01*
X111323Y18538D01*
X111277Y18557D01*
Y19094D01*
X110874D01*
X110505Y19464D01*
X110453Y19498D01*
X110443Y19500D01*
X110391Y19511D01*
D02*
G37*
G36*
X103450Y18408D02*
X103383Y18399D01*
X103321Y18374D01*
X103267Y18333D01*
X103226Y18279D01*
X103201Y18217D01*
X103192Y18150D01*
X103201Y18083D01*
X103226Y18021D01*
X103267Y17967D01*
X103317Y17917D01*
X103371Y17876D01*
X103433Y17851D01*
X103500Y17842D01*
X106000D01*
X106067Y17851D01*
X106129Y17876D01*
X106183Y17917D01*
X106224Y17971D01*
X106249Y18033D01*
X106258Y18100D01*
X106249Y18167D01*
X106224Y18229D01*
X106183Y18283D01*
X106129Y18324D01*
X106067Y18349D01*
X106000Y18358D01*
X103599D01*
X103579Y18374D01*
X103517Y18399D01*
X103450Y18408D01*
D02*
G37*
G36*
X107509Y19096D02*
X107164D01*
Y18160D01*
X107509D01*
Y19096D01*
D02*
G37*
G36*
X25945Y17245D02*
X25600D01*
Y16900D01*
X25945D01*
Y17245D01*
D02*
G37*
G36*
X107509Y18060D02*
X107164D01*
Y17124D01*
X107509D01*
Y18060D01*
D02*
G37*
G36*
X134885Y17050D02*
X134550D01*
Y16774D01*
X134885D01*
Y17050D01*
D02*
G37*
G36*
X25500Y17245D02*
X25155D01*
Y16900D01*
X25500D01*
Y17245D01*
D02*
G37*
G36*
X133250Y17426D02*
X132915D01*
Y17150D01*
X133250D01*
Y17426D01*
D02*
G37*
G36*
X133685D02*
X133350D01*
Y17150D01*
X133685D01*
Y17426D01*
D02*
G37*
G36*
X132050D02*
X131715D01*
Y17150D01*
X132050D01*
Y17426D01*
D02*
G37*
G36*
X132485D02*
X132150D01*
Y17150D01*
X132485D01*
Y17426D01*
D02*
G37*
G36*
X974Y14219D02*
X905Y14210D01*
X794Y14164D01*
X700Y14091D01*
X627Y13996D01*
X581Y13886D01*
X572Y13817D01*
X974D01*
Y14219D01*
D02*
G37*
G36*
X1074D02*
Y13817D01*
X1475D01*
X1466Y13886D01*
X1420Y13996D01*
X1348Y14091D01*
X1253Y14164D01*
X1142Y14210D01*
X1074Y14219D01*
D02*
G37*
G36*
X2485Y13717D02*
X2083D01*
Y13315D01*
X2152Y13324D01*
X2262Y13370D01*
X2357Y13443D01*
X2430Y13538D01*
X2476Y13648D01*
X2485Y13717D01*
D02*
G37*
G36*
X102000Y18107D02*
X34750D01*
X34657Y18095D01*
X34571Y18060D01*
X34497Y18003D01*
X34440Y17929D01*
X34405Y17843D01*
X34393Y17750D01*
X34405Y17658D01*
X34440Y17571D01*
X34497Y17497D01*
X34571Y17440D01*
X34657Y17405D01*
X34750Y17393D01*
X101852D01*
X105747Y13497D01*
X105821Y13440D01*
X105907Y13405D01*
X106000Y13393D01*
X106750D01*
X106842Y13405D01*
X106929Y13440D01*
X107003Y13497D01*
X107060Y13571D01*
X107095Y13657D01*
X107107Y13750D01*
X107095Y13843D01*
X107060Y13929D01*
X107003Y14003D01*
X106929Y14060D01*
X106842Y14095D01*
X106750Y14107D01*
X106148D01*
X102253Y18003D01*
X102179Y18060D01*
X102093Y18095D01*
X102000Y18107D01*
D02*
G37*
G36*
X1983Y14219D02*
X1914Y14210D01*
X1804Y14164D01*
X1709Y14091D01*
X1636Y13996D01*
X1590Y13886D01*
X1581Y13817D01*
X1983D01*
Y14219D01*
D02*
G37*
G36*
X974Y14717D02*
X572D01*
X581Y14648D01*
X627Y14538D01*
X700Y14443D01*
X794Y14370D01*
X905Y14324D01*
X974Y14315D01*
Y14717D01*
D02*
G37*
G36*
X1475D02*
X1074D01*
Y14315D01*
X1142Y14324D01*
X1253Y14370D01*
X1348Y14443D01*
X1420Y14538D01*
X1466Y14648D01*
X1475Y14717D01*
D02*
G37*
G36*
X2083Y14219D02*
Y13817D01*
X2485D01*
X2476Y13886D01*
X2430Y13996D01*
X2357Y14091D01*
X2262Y14164D01*
X2152Y14210D01*
X2083Y14219D01*
D02*
G37*
G36*
X136044Y16677D02*
X135356D01*
Y16274D01*
X135136Y16055D01*
X135102Y16003D01*
X135089Y15941D01*
X135089Y15941D01*
Y14750D01*
X135089Y14750D01*
X135102Y14689D01*
X135136Y14636D01*
X135436Y14336D01*
X135489Y14302D01*
X135550Y14289D01*
X135550Y14289D01*
X135614D01*
Y14214D01*
X136086D01*
Y14673D01*
X136127D01*
Y14900D01*
X135573D01*
Y14725D01*
X135523Y14704D01*
X135411Y14817D01*
Y15875D01*
X135642Y16106D01*
X136044D01*
Y16677D01*
D02*
G37*
G36*
X156555Y12450D02*
X155256D01*
Y11515D01*
X155000Y11259D01*
X146871D01*
X146804Y11311D01*
X146718Y11346D01*
X146625Y11359D01*
X146533Y11346D01*
X146447Y11311D01*
X146372Y11254D01*
X146316Y11180D01*
X146280Y11094D01*
X146268Y11001D01*
X146280Y10909D01*
X146316Y10822D01*
X146372Y10748D01*
X146447Y10692D01*
X146533Y10656D01*
X146625Y10644D01*
X146718Y10656D01*
X146804Y10692D01*
X146871Y10743D01*
X155107D01*
X155174Y10752D01*
X155236Y10778D01*
X155289Y10819D01*
X155621Y11150D01*
X156190D01*
X156742Y10599D01*
Y5307D01*
X155348Y3913D01*
X151858D01*
X151785Y3968D01*
X151698Y4005D01*
X151604Y4017D01*
X151511Y4005D01*
X151423Y3968D01*
X151348Y3911D01*
X151291Y3836D01*
X151255Y3748D01*
X151242Y3655D01*
X151255Y3561D01*
X151291Y3474D01*
X151348Y3399D01*
X151423Y3341D01*
X151511Y3305D01*
X151604Y3293D01*
X151698Y3305D01*
X151785Y3341D01*
X151858Y3397D01*
X155455D01*
X155522Y3405D01*
X155584Y3431D01*
X155637Y3472D01*
X157183Y5017D01*
X157224Y5071D01*
X157249Y5133D01*
X157258Y5200D01*
Y10706D01*
X157249Y10772D01*
X157224Y10835D01*
X157183Y10888D01*
X156555Y11515D01*
Y12450D01*
D02*
G37*
G36*
X136044Y17385D02*
X135356D01*
Y16815D01*
X136044D01*
Y16842D01*
X136460D01*
X136495Y16807D01*
X136495Y16745D01*
X136495Y16695D01*
Y16155D01*
X137105D01*
Y16192D01*
X141493D01*
X145882Y11803D01*
X145936Y11762D01*
X145998Y11736D01*
X146065Y11727D01*
X146380D01*
X146447Y11676D01*
X146533Y11640D01*
X146625Y11628D01*
X146718Y11640D01*
X146804Y11676D01*
X146871Y11727D01*
X154091D01*
X154158Y11736D01*
X154220Y11762D01*
X154273Y11803D01*
X155621Y13150D01*
X156555D01*
Y14450D01*
X155256D01*
Y13515D01*
X153984Y12244D01*
X146871D01*
X146804Y12295D01*
X146718Y12331D01*
X146625Y12343D01*
X146533Y12331D01*
X146447Y12295D01*
X146380Y12244D01*
X146171D01*
X141783Y16633D01*
X141729Y16674D01*
X141667Y16699D01*
X141600Y16708D01*
X137136D01*
X137105Y16745D01*
X137105Y16795D01*
Y17336D01*
X136840D01*
X136807Y17349D01*
X136741Y17358D01*
X136044D01*
Y17385D01*
D02*
G37*
G36*
X131053Y11779D02*
X130147D01*
Y10677D01*
X131053D01*
Y11779D01*
D02*
G37*
G36*
X2033Y11189D02*
X1925Y11174D01*
X1825Y11133D01*
X1738Y11066D01*
X1710Y11030D01*
X1347D01*
X1318Y11066D01*
X1232Y11133D01*
X1132Y11174D01*
X1024Y11189D01*
X916Y11174D01*
X815Y11133D01*
X729Y11066D01*
X663Y10980D01*
X621Y10880D01*
X607Y10772D01*
X621Y10664D01*
X663Y10563D01*
X729Y10477D01*
X815Y10411D01*
X916Y10369D01*
X1024Y10355D01*
X1132Y10369D01*
X1232Y10411D01*
X1318Y10477D01*
X1347Y10514D01*
X1710D01*
X1738Y10477D01*
X1825Y10411D01*
X1925Y10369D01*
X2033Y10355D01*
X2141Y10369D01*
X2242Y10411D01*
X2246Y10414D01*
X88028D01*
X88121Y10426D01*
X88207Y10462D01*
X88281Y10519D01*
X88338Y10593D01*
X88374Y10679D01*
X88386Y10772D01*
X88374Y10864D01*
X88338Y10950D01*
X88281Y11024D01*
X88207Y11081D01*
X88121Y11117D01*
X88028Y11129D01*
X2246D01*
X2242Y11133D01*
X2141Y11174D01*
X2033Y11189D01*
D02*
G37*
G36*
X102362Y15221D02*
X102137Y15203D01*
X101917Y15150D01*
X101708Y15064D01*
X101515Y14946D01*
X101343Y14799D01*
X101196Y14627D01*
X101078Y14434D01*
X100991Y14225D01*
X100939Y14005D01*
X100921Y13780D01*
X100939Y13554D01*
X100991Y13334D01*
X101078Y13125D01*
X101196Y12932D01*
X101343Y12760D01*
X101515Y12613D01*
X101708Y12495D01*
X101917Y12409D01*
X102137Y12356D01*
X102362Y12338D01*
X102588Y12356D01*
X102808Y12409D01*
X103017Y12495D01*
X103209Y12613D01*
X103381Y12760D01*
X103528Y12932D01*
X103647Y13125D01*
X103733Y13334D01*
X103786Y13554D01*
X103804Y13780D01*
X103786Y14005D01*
X103733Y14225D01*
X103647Y14434D01*
X103528Y14627D01*
X103381Y14799D01*
X103209Y14946D01*
X103017Y15064D01*
X102808Y15150D01*
X102588Y15203D01*
X102362Y15221D01*
D02*
G37*
G36*
X1475Y13717D02*
X1074D01*
Y13315D01*
X1142Y13324D01*
X1253Y13370D01*
X1348Y13443D01*
X1420Y13538D01*
X1466Y13648D01*
X1475Y13717D01*
D02*
G37*
G36*
X1983D02*
X1581D01*
X1590Y13648D01*
X1636Y13538D01*
X1709Y13443D01*
X1804Y13370D01*
X1914Y13324D01*
X1983Y13315D01*
Y13717D01*
D02*
G37*
G36*
X95800Y17057D02*
X30000D01*
X29908Y17045D01*
X29821Y17010D01*
X29747Y16953D01*
X29690Y16879D01*
X29655Y16793D01*
X29643Y16700D01*
X29655Y16608D01*
X29690Y16521D01*
X29747Y16447D01*
X29821Y16390D01*
X29908Y16355D01*
X30000Y16343D01*
X95652D01*
X99497Y12497D01*
X99571Y12440D01*
X99657Y12405D01*
X99750Y12393D01*
X99843Y12405D01*
X99929Y12440D01*
X100003Y12497D01*
X100060Y12571D01*
X100095Y12658D01*
X100107Y12750D01*
X100095Y12843D01*
X100060Y12929D01*
X100003Y13003D01*
X96053Y16953D01*
X95979Y17010D01*
X95892Y17045D01*
X95800Y17057D01*
D02*
G37*
G36*
X974Y13717D02*
X572D01*
X581Y13648D01*
X627Y13538D01*
X700Y13443D01*
X794Y13370D01*
X905Y13324D01*
X974Y13315D01*
Y13717D01*
D02*
G37*
G36*
X1983Y14717D02*
X1581D01*
X1590Y14648D01*
X1636Y14538D01*
X1709Y14443D01*
X1804Y14370D01*
X1914Y14324D01*
X1983Y14315D01*
Y14717D01*
D02*
G37*
G36*
X146575Y15143D02*
X146522Y15136D01*
X146426Y15096D01*
X146343Y15033D01*
X146280Y14951D01*
X146240Y14854D01*
X146233Y14801D01*
X146575D01*
Y15143D01*
D02*
G37*
G36*
X109155Y14900D02*
X108711D01*
Y14653D01*
X109155D01*
Y14900D01*
D02*
G37*
G36*
X108611D02*
X108168D01*
Y14653D01*
X108611D01*
Y14900D01*
D02*
G37*
G36*
X1983Y15219D02*
X1914Y15210D01*
X1804Y15164D01*
X1709Y15091D01*
X1636Y14996D01*
X1590Y14886D01*
X1581Y14817D01*
X1983D01*
Y15219D01*
D02*
G37*
G36*
X1074D02*
Y14817D01*
X1475D01*
X1466Y14886D01*
X1420Y14996D01*
X1348Y15091D01*
X1253Y15164D01*
X1142Y15210D01*
X1074Y15219D01*
D02*
G37*
G36*
X974D02*
X905Y15210D01*
X794Y15164D01*
X700Y15091D01*
X627Y14996D01*
X581Y14886D01*
X572Y14817D01*
X974D01*
Y15219D01*
D02*
G37*
G36*
X146675Y15143D02*
Y14801D01*
X147017D01*
X147010Y14854D01*
X146970Y14951D01*
X146907Y15033D01*
X146825Y15096D01*
X146728Y15136D01*
X146675Y15143D01*
D02*
G37*
G36*
X147017Y14701D02*
X146675D01*
Y14359D01*
X146728Y14366D01*
X146825Y14406D01*
X146907Y14469D01*
X146970Y14552D01*
X147010Y14648D01*
X147017Y14701D01*
D02*
G37*
G36*
X136127Y15227D02*
X135900D01*
Y15000D01*
X136127D01*
Y15227D01*
D02*
G37*
G36*
X2485Y14717D02*
X2083D01*
Y14315D01*
X2152Y14324D01*
X2262Y14370D01*
X2357Y14443D01*
X2430Y14538D01*
X2476Y14648D01*
X2485Y14717D01*
D02*
G37*
G36*
X146575Y14701D02*
X146233D01*
X146240Y14648D01*
X146280Y14552D01*
X146343Y14469D01*
X146426Y14406D01*
X146522Y14366D01*
X146575Y14359D01*
Y14701D01*
D02*
G37*
G36*
X135800Y15227D02*
X135573D01*
Y15000D01*
X135800D01*
Y15227D01*
D02*
G37*
G36*
X2083Y15219D02*
Y14817D01*
X2485D01*
X2476Y14886D01*
X2430Y14996D01*
X2357Y15091D01*
X2262Y15164D01*
X2152Y15210D01*
X2083Y15219D01*
D02*
G37*
%LPD*%
G36*
X110665Y17708D02*
Y17206D01*
X110789D01*
Y17067D01*
X109833Y16111D01*
X109173D01*
X109155Y16153D01*
X109155Y16153D01*
X109155D01*
X109155Y16153D01*
Y16400D01*
X108661D01*
Y16450D01*
X108611D01*
Y16747D01*
X108261D01*
Y17833D01*
X108513Y18086D01*
X108563Y18065D01*
Y17637D01*
X108522D01*
Y17410D01*
X109588D01*
Y17637D01*
X109583D01*
X109547Y17673D01*
Y18074D01*
X109547Y18110D01*
X109547Y18146D01*
Y18574D01*
X109547Y18596D01*
X109547D01*
Y18624D01*
X109547Y18624D01*
Y18700D01*
X109673D01*
X110665Y17708D01*
D02*
G37*
G36*
X110706Y18808D02*
Y18406D01*
X111075D01*
X111120Y18356D01*
X111120Y18354D01*
X111083Y18349D01*
X111021Y18324D01*
X110967Y18283D01*
X110926Y18229D01*
X110901Y18167D01*
X110892Y18100D01*
X110901Y18033D01*
X110926Y17971D01*
X110888Y17939D01*
X109853Y18974D01*
X109801Y19009D01*
X109740Y19021D01*
X109740Y19021D01*
X109547D01*
Y19096D01*
X108639D01*
X108620Y19143D01*
X108667Y19189D01*
X110325D01*
X110706Y18808D01*
D02*
G37*
G36*
X114246Y18196D02*
X114536D01*
X114562Y18146D01*
X114549Y18123D01*
X114542Y18117D01*
X113872D01*
Y17808D01*
X111944D01*
Y17894D01*
X111480D01*
X111460Y17944D01*
X111921Y18406D01*
X111985D01*
Y18470D01*
X112007Y18492D01*
X114246D01*
Y18196D01*
D02*
G37*
G36*
X108563Y19021D02*
Y18729D01*
X108517Y18710D01*
X108461Y18767D01*
Y18983D01*
X108517Y19040D01*
X108563Y19021D01*
D02*
G37*
%LPC*%
G36*
X109005Y17310D02*
X108522D01*
Y17083D01*
X109005D01*
Y17310D01*
D02*
G37*
G36*
X109500Y16648D02*
X109451D01*
X109352Y16549D01*
Y16500D01*
X109500D01*
Y16648D01*
D02*
G37*
G36*
X109649D02*
X109600D01*
Y16500D01*
X109748D01*
Y16549D01*
X109649Y16648D01*
D02*
G37*
G36*
X109588Y17310D02*
X109105D01*
Y17083D01*
X109588D01*
Y17310D01*
D02*
G37*
G36*
X109500Y16400D02*
X109352D01*
Y16351D01*
X109451Y16252D01*
X109500D01*
Y16400D01*
D02*
G37*
G36*
X109748D02*
X109600D01*
Y16252D01*
X109649D01*
X109748Y16351D01*
Y16400D01*
D02*
G37*
G36*
X109155Y16747D02*
X108711D01*
Y16500D01*
X109155D01*
Y16747D01*
D02*
G37*
%LPD*%
D10*
X124339Y10524D02*
D03*
X123827D02*
D03*
D11*
X124083Y11300D02*
D03*
X114600Y18550D02*
D03*
X114226Y17763D02*
D03*
X114974Y17755D02*
D03*
X114550Y1200D02*
D03*
X114924Y1987D02*
D03*
X114176Y1995D02*
D03*
D12*
X124100Y8900D02*
D03*
X123509D02*
D03*
D13*
X127600Y8472D02*
D03*
X128600D02*
D03*
X129600D02*
D03*
X130600D02*
D03*
Y11228D02*
D03*
X129600D02*
D03*
X128600D02*
D03*
X127600D02*
D03*
D14*
X125400Y8200D02*
D03*
Y8909D02*
D03*
X135700Y16391D02*
D03*
Y17100D02*
D03*
X132100Y16391D02*
D03*
Y17100D02*
D03*
X133300D02*
D03*
Y16391D02*
D03*
X134500Y17100D02*
D03*
Y16391D02*
D03*
D15*
X126250Y11510D02*
D03*
D16*
Y10250D02*
D03*
D17*
X111700Y18750D02*
D03*
X110991D02*
D03*
X110950Y17550D02*
D03*
X111659D02*
D03*
X111650Y1000D02*
D03*
X110941D02*
D03*
X110950Y2200D02*
D03*
X111659D02*
D03*
X110000Y9843D02*
D03*
X110709D02*
D03*
D18*
X108661Y15950D02*
D03*
Y15450D02*
D03*
Y14950D02*
D03*
Y16450D02*
D03*
Y4250D02*
D03*
Y3750D02*
D03*
Y3250D02*
D03*
Y4750D02*
D03*
D19*
X109055Y17360D02*
D03*
Y17860D02*
D03*
Y18360D02*
D03*
Y18860D02*
D03*
Y825D02*
D03*
Y1325D02*
D03*
Y1825D02*
D03*
Y2325D02*
D03*
D20*
X107559Y18110D02*
D03*
Y1575D02*
D03*
D21*
X136800Y16450D02*
D03*
Y17041D02*
D03*
D22*
X133370Y14450D02*
D03*
Y14950D02*
D03*
X135850Y14450D02*
D03*
Y14950D02*
D03*
D23*
X108268Y9449D02*
D03*
Y10236D02*
D03*
D24*
X25550Y16225D02*
D03*
Y13075D02*
D03*
D25*
X141732Y13780D02*
D03*
Y5906D02*
D03*
X102362D02*
D03*
Y13780D02*
D03*
X59055D02*
D03*
Y5906D02*
D03*
X7874Y13780D02*
D03*
Y5906D02*
D03*
D26*
X25550Y16850D02*
D03*
Y12450D02*
D03*
D27*
X91450Y1600D02*
X106000D01*
X95750Y6100D02*
X99100Y2750D01*
X88000Y6100D02*
X95750D01*
X98000Y5300D02*
X99700Y3600D01*
X91250Y10236D02*
X108268D01*
X3783Y4767D02*
X6000Y2550D01*
X2033Y4767D02*
X3783D01*
X4333Y6767D02*
X7050Y4050D01*
X116550Y1000D02*
X147850D01*
X115856Y306D02*
X116550Y1000D01*
X111294Y306D02*
X115856D01*
X118147Y1453D02*
X147500D01*
X116000Y3600D02*
X118147Y1453D01*
X110941Y659D02*
X111294Y306D01*
X110941Y659D02*
Y1000D01*
X111500Y3600D02*
X116000D01*
X128600Y4450D02*
X130367Y2683D01*
X133997D01*
X129600Y5750D02*
X131100Y4250D01*
X134430D01*
X135997Y2683D01*
X114500Y2700D02*
X114924Y2276D01*
X112159Y2700D02*
X114500D01*
X99700Y3600D02*
X106000D01*
X99100Y2750D02*
X106000D01*
X124293Y11510D02*
X126250D01*
X124083Y11300D02*
X124293Y11510D01*
X127318D02*
X127600Y11228D01*
X126250Y11510D02*
X127318D01*
X146625Y11985D02*
X154091D01*
X88000Y8800D02*
X117600D01*
X124100Y8900D02*
X125391D01*
X126250Y9350D02*
Y10250D01*
Y9350D02*
X127128Y8472D01*
X111650Y1000D02*
Y1250D01*
X111300Y1600D02*
X111650Y1250D01*
X111150Y1600D02*
X111300D01*
X111659Y2200D02*
X112159Y2700D01*
X111900Y18750D02*
X114400D01*
X111250Y18100D02*
X111900Y18750D01*
X111150Y18100D02*
X111250D01*
X1024Y4767D02*
X2033D01*
X4383Y5767D02*
X6800Y3350D01*
X2033Y6767D02*
X4333D01*
X2033Y5767D02*
X4383D01*
X1024D02*
X2033D01*
X1024Y6767D02*
X2033D01*
X1024Y7772D02*
X2033D01*
X1024Y8772D02*
X2033D01*
X1024Y9772D02*
X2033D01*
X1024Y10772D02*
X2033D01*
X1024Y11772D02*
X2033D01*
X146625Y15735D02*
X149140Y18250D01*
X154091Y11985D02*
X155906Y13800D01*
X146625Y10017D02*
X155689D01*
X155906Y11800D02*
X157000Y10706D01*
Y5200D02*
Y10706D01*
X155107Y11001D02*
X155906Y11800D01*
X146625Y11001D02*
X155107D01*
X139580Y4267D02*
X146625D01*
X137997Y2683D02*
X139580Y4267D01*
X135700Y17100D02*
X136741D01*
X133300Y16391D02*
X134500D01*
X133370Y14950D02*
Y16322D01*
X132100Y16391D02*
X133300D01*
X135230Y5450D02*
X137997Y2683D01*
X132050Y5450D02*
X135230D01*
X127128Y8472D02*
X127600D01*
X123509Y10206D02*
X123827Y10524D01*
X123509Y8900D02*
Y10206D01*
X108843Y9843D02*
X110000D01*
X108449Y9449D02*
X108843Y9843D01*
X108268Y9449D02*
X108449D01*
X114013Y17550D02*
X114226Y17763D01*
X111659Y17550D02*
X114013D01*
X114400Y18750D02*
X114600Y18550D01*
X114924Y1987D02*
Y2276D01*
X114350Y1000D02*
X114550Y1200D01*
X111650Y1000D02*
X114350D01*
X1024Y2767D02*
X2033D01*
X21326Y5316D02*
X23137D01*
X24500Y13050D02*
X25525D01*
X1024Y15767D02*
X1033D01*
X2024Y16767D02*
X2033D01*
X1033D02*
X1528Y16272D01*
X2033Y15767D01*
X1024D02*
X1528Y16272D01*
X2024Y16767D01*
X107300Y15450D02*
X108250D01*
X108661D01*
X111491Y16391D02*
X132100D01*
X130600Y6900D02*
Y8472D01*
Y6900D02*
X132050Y5450D01*
X129600Y5750D02*
Y8472D01*
X128600Y4450D02*
Y8472D01*
X126000Y7000D02*
X127050D01*
X127600Y7550D01*
Y8472D01*
X131000Y14450D02*
X133370D01*
X85000Y11800D02*
X106900D01*
X136800Y16450D02*
X141600D01*
X146065Y11985D01*
X146625D01*
X117600Y8800D02*
X120900Y12100D01*
X144542D01*
X146625Y10017D01*
X87250Y7800D02*
X125000D01*
X125400Y8200D01*
X108661Y15450D02*
X109600D01*
X111750D02*
X117250D01*
X103450Y18150D02*
X103500Y18100D01*
X106000D01*
X147500Y1453D02*
X148550Y2503D01*
Y3800D01*
X149409Y4659D01*
X150316D01*
X117000Y500D02*
X148250D01*
X149200Y1450D01*
Y3400D01*
X149957Y4157D01*
X150600D01*
X147850Y1000D02*
X148600Y1750D01*
X155455Y3655D02*
X157000Y5200D01*
X151604Y3655D02*
X155455D01*
D28*
X88750Y4300D02*
X91450Y1600D01*
X2033Y9772D02*
X83272D01*
X64850Y5300D02*
X94750D01*
X64350Y6100D02*
X88000D01*
X61600Y3350D02*
X64350Y6100D01*
X63850Y6950D02*
X88000D01*
X2033Y8772D02*
X87972D01*
X6000Y2550D02*
X62100D01*
X60950Y4050D02*
X63850Y6950D01*
X7050Y4050D02*
X60950D01*
X2033Y7772D02*
X87972D01*
X62100Y2550D02*
X64850Y5300D01*
X6800Y3350D02*
X61600D01*
X106900Y11800D02*
X111491Y16391D01*
X2033Y16767D02*
X4066Y18800D01*
X101750D01*
X1024Y12767D02*
X2033D01*
X3217D01*
X5962Y15512D01*
X24239D01*
X24800Y14950D01*
X26350D01*
X26912Y15512D01*
X104150Y7000D02*
X126000D01*
X95688Y15512D02*
X98550Y12650D01*
X26912Y15512D02*
X95688D01*
X30000Y16700D02*
X95800D01*
X99750Y12750D01*
X110850Y14450D02*
X131000D01*
X101500Y11000D02*
X107400D01*
X110850Y14450D01*
X2033Y11772D02*
X106872D01*
X118250Y18250D02*
X149140D01*
X155906D01*
X106000Y13750D02*
X106750D01*
X2033Y10772D02*
X88028D01*
X34750Y17750D02*
X102000D01*
X106000Y13750D01*
D29*
X108661Y4250D02*
X109900D01*
X110950Y3200D01*
X108050Y2350D02*
Y3550D01*
X110950Y2200D02*
Y3200D01*
X108050Y2350D02*
X108575Y1825D01*
X110117D02*
X110941Y1000D01*
X109055Y1825D02*
X110117D01*
X109055Y2325D02*
X110825D01*
X108050Y3550D02*
X108250Y3750D01*
X108100Y17900D02*
X108560Y18360D01*
X108640D01*
X108600Y19350D02*
X110391D01*
X108300Y19050D02*
X108600Y19350D01*
X108300Y18700D02*
Y19050D01*
Y18700D02*
X108640Y18360D01*
X135250Y15941D02*
X135700Y16391D01*
X135250Y14750D02*
Y15941D01*
Y14750D02*
X135550Y14450D01*
X135850D01*
X110391Y19350D02*
X110991Y18750D01*
X110950Y17000D02*
Y17550D01*
Y17650D01*
X109740Y18860D02*
X110950Y17650D01*
X109055Y18860D02*
X109740D01*
X108250Y3750D02*
X108661D01*
X108575Y1825D02*
X109055D01*
X108661Y15950D02*
X109900D01*
X110950Y17000D01*
X108100Y15600D02*
X108250Y15450D01*
X108100Y15600D02*
Y17900D01*
D30*
X150316Y4659D02*
X151604D01*
X151604Y4659D01*
D31*
X133997Y2683D02*
D03*
X135997D02*
D03*
X137997D02*
D03*
D32*
X146625Y6235D02*
D03*
Y5251D02*
D03*
Y4267D02*
D03*
Y14751D02*
D03*
Y15735D02*
D03*
Y11985D02*
D03*
Y11001D02*
D03*
Y10017D02*
D03*
Y9033D02*
D03*
D33*
X155906Y13800D02*
D03*
Y11800D02*
D03*
Y18250D02*
D03*
Y16250D02*
D03*
Y7800D02*
D03*
Y9800D02*
D03*
D34*
X151604Y1647D02*
D03*
D35*
Y2651D02*
D03*
Y3655D02*
D03*
Y4659D02*
D03*
X150610Y2149D02*
D03*
X150600Y3153D02*
D03*
Y5161D02*
D03*
Y4157D02*
D03*
D36*
X154094Y5574D02*
D03*
Y1066D02*
D03*
D37*
X21326Y5316D02*
D03*
X23137D02*
D03*
X27389D02*
D03*
X29200D02*
D03*
D38*
X1024Y16767D02*
D03*
Y15767D02*
D03*
Y14767D02*
D03*
Y13767D02*
D03*
Y12767D02*
D03*
Y11772D02*
D03*
Y10772D02*
D03*
Y9772D02*
D03*
Y8772D02*
D03*
Y7772D02*
D03*
Y6767D02*
D03*
Y5767D02*
D03*
Y4767D02*
D03*
Y3767D02*
D03*
Y2767D02*
D03*
X2033Y3767D02*
D03*
Y2767D02*
D03*
Y4767D02*
D03*
Y5767D02*
D03*
Y6767D02*
D03*
Y7772D02*
D03*
Y8772D02*
D03*
Y9772D02*
D03*
Y10772D02*
D03*
Y11772D02*
D03*
Y12767D02*
D03*
Y13767D02*
D03*
Y14767D02*
D03*
Y15767D02*
D03*
Y16767D02*
D03*
D39*
X141732Y5906D02*
D03*
Y13780D02*
D03*
X102362Y5906D02*
D03*
Y13780D02*
D03*
X59055Y5906D02*
D03*
Y13780D02*
D03*
X7874D02*
D03*
Y5906D02*
D03*
D40*
X113350Y2000D02*
D03*
X109550Y3150D02*
D03*
Y16450D02*
D03*
D41*
X88750Y4300D02*
D03*
X83272Y9772D02*
D03*
X94750Y5300D02*
D03*
X91250Y10200D02*
D03*
X88000Y6950D02*
D03*
X117000Y500D02*
D03*
X111500Y3600D02*
D03*
X106000D02*
D03*
Y2750D02*
D03*
X98000Y5300D02*
D03*
X111150Y1600D02*
D03*
X106000D02*
D03*
X111150Y18100D02*
D03*
X106000D02*
D03*
X24500Y13050D02*
D03*
X101750Y18800D02*
D03*
X107300Y15450D02*
D03*
X30000Y16700D02*
D03*
X34750Y17750D02*
D03*
X104150Y7000D02*
D03*
X98550Y12650D02*
D03*
X99750Y12750D02*
D03*
X101500Y11000D02*
D03*
X106750Y13750D02*
D03*
X118250Y18250D02*
D03*
X88028Y10772D02*
D03*
X109600Y15450D02*
D03*
X111750D02*
D03*
X117250D02*
D03*
X103450Y18150D02*
D03*
X148600Y1750D02*
D03*
M02*
