M48
;Layer_Color=9474304
;FILE_FORMAT=2:4
INCH,LZ
;TYPE=PLATED
T1F00S00C0.0118
T2F00S00C0.0300
T3F00S00C0.0354
T4F00S00C0.0374
T5F00S00C0.0512
T6F00S00C0.1260
T7F00S00C0.1575
%
T01
X1486Y00175
X117Y0005
X11335Y002
X11115Y0016
X1115Y0036
X10955Y00315
X106Y00275
Y0036
Y0016
X098Y0053
X09475
X08875Y0043
X03Y0167
X0245Y01305
X03475Y01775
X083272Y009772
X088028Y010772
X09125Y0102
X088Y00695
X10415Y007
X1015Y011
X09975Y01275
X09855Y01265
X10675Y01375
X1073Y01545
X106Y0181
X10345Y01815
X10175Y0188
X11115Y0181
X11175Y01545
X1096
X10955Y01645
X11725Y01545
X11825Y01825
T02
X151604Y001647
Y002651
Y003655
Y004659
X1506Y004157
Y003153
X15061Y002149
X1506Y005161
T03
X146625Y004267
Y005251
Y006235
Y009033
Y010017
Y011001
Y011985
Y014751
Y015735
T04
X001024Y002767
Y003767
Y004767
X002033
Y003767
Y002767
Y005767
Y006767
Y007772
Y008772
Y009772
Y010772
Y011772
Y012767
Y013767
Y014767
Y015767
Y016767
X001024
Y015767
Y014767
Y013767
Y012767
Y011772
Y010772
Y009772
Y008772
Y007772
Y006767
Y005767
T05
X133997Y002683
X135997
X137997
X0292Y005316
X027389
X023137
X021326
X155906Y0078
Y0098
Y0118
Y0138
Y01625
Y01825
T06
X154094Y001066
Y005574
T07
X007874Y005906
Y01378
X059055
Y005906
X102362
Y01378
X141732
Y005906
M30
