G04 Layer_Color=8388736*
%FSLAX24Y24*%
%MOIN*%
G70*
G01*
G75*
%ADD49R,0.0474X0.0671*%
%ADD50R,0.0671X0.0671*%
%ADD51R,0.0552X0.0572*%
%ADD52R,0.0867X0.1064*%
%ADD53R,0.0651X0.0533*%
%ADD54R,0.0552X0.0552*%
%ADD55P,0.0598X8X112.5*%
%ADD56R,0.0533X0.0651*%
%ADD57R,0.0867X0.0474*%
%ADD58R,0.0946X0.0434*%
%ADD59R,0.0671X0.1852*%
%ADD60R,0.0572X0.0552*%
%ADD61R,0.0434X0.0434*%
%ADD62R,0.0671X0.0592*%
%ADD63R,0.0671X0.1261*%
%ADD64R,0.0671X0.0671*%
%ADD65R,0.1261X0.1261*%
%ADD66C,0.0671*%
%ADD67R,0.1261X0.1261*%
%ADD68R,0.0680X0.0680*%
%ADD69C,0.0680*%
%ADD70C,0.1458*%
%ADD71R,0.0867X0.0867*%
%ADD72C,0.0789*%
%ADD73C,0.1655*%
%ADD74C,0.0237*%
D49*
X124339Y10524D02*
D03*
X123827D02*
D03*
D50*
X124083Y11300D02*
D03*
X114600Y18550D02*
D03*
X114226Y17763D02*
D03*
X114974Y17755D02*
D03*
X114550Y1200D02*
D03*
X114924Y1987D02*
D03*
X114176Y1995D02*
D03*
D51*
X124100Y8900D02*
D03*
X123509D02*
D03*
D52*
X127600Y8472D02*
D03*
X128600D02*
D03*
X129600D02*
D03*
X130600D02*
D03*
Y11228D02*
D03*
X129600D02*
D03*
X128600D02*
D03*
X127600D02*
D03*
D53*
X125400Y8200D02*
D03*
Y8909D02*
D03*
X135700Y16391D02*
D03*
Y17100D02*
D03*
X132100Y16391D02*
D03*
Y17100D02*
D03*
X133300D02*
D03*
Y16391D02*
D03*
X134500Y17100D02*
D03*
Y16391D02*
D03*
D54*
X126250Y11510D02*
D03*
D55*
Y10250D02*
D03*
D56*
X111700Y18750D02*
D03*
X110991D02*
D03*
X110950Y17550D02*
D03*
X111659D02*
D03*
X111650Y1000D02*
D03*
X110941D02*
D03*
X110950Y2200D02*
D03*
X111659D02*
D03*
X110000Y9843D02*
D03*
X110709D02*
D03*
D57*
X108661Y15950D02*
D03*
Y15450D02*
D03*
Y14950D02*
D03*
Y16450D02*
D03*
Y4250D02*
D03*
Y3750D02*
D03*
Y3250D02*
D03*
Y4750D02*
D03*
D58*
X109055Y17360D02*
D03*
Y17860D02*
D03*
Y18360D02*
D03*
Y18860D02*
D03*
Y825D02*
D03*
Y1325D02*
D03*
Y1825D02*
D03*
Y2325D02*
D03*
D59*
X107559Y18110D02*
D03*
Y1575D02*
D03*
D60*
X136800Y16450D02*
D03*
Y17041D02*
D03*
D61*
X133370Y14450D02*
D03*
Y14950D02*
D03*
X135850Y14450D02*
D03*
Y14950D02*
D03*
D62*
X108268Y9449D02*
D03*
Y10236D02*
D03*
D63*
X25550Y16225D02*
D03*
Y13075D02*
D03*
D64*
Y16850D02*
D03*
Y12450D02*
D03*
D65*
X133997Y2683D02*
D03*
X135997D02*
D03*
X137997D02*
D03*
D66*
X146625Y6235D02*
D03*
Y5251D02*
D03*
Y4267D02*
D03*
Y14751D02*
D03*
Y15735D02*
D03*
Y11985D02*
D03*
Y11001D02*
D03*
Y10017D02*
D03*
Y9033D02*
D03*
D67*
X155906Y13800D02*
D03*
Y11800D02*
D03*
Y18250D02*
D03*
Y16250D02*
D03*
Y7800D02*
D03*
Y9800D02*
D03*
D68*
X151604Y1647D02*
D03*
D69*
Y2651D02*
D03*
Y3655D02*
D03*
Y4659D02*
D03*
X150610Y2149D02*
D03*
X150600Y3153D02*
D03*
Y5161D02*
D03*
Y4157D02*
D03*
D70*
X154094Y5574D02*
D03*
Y1066D02*
D03*
D71*
X21326Y5316D02*
D03*
X23137D02*
D03*
X27389D02*
D03*
X29200D02*
D03*
D72*
X1024Y16767D02*
D03*
Y15767D02*
D03*
Y14767D02*
D03*
Y13767D02*
D03*
Y12767D02*
D03*
Y11772D02*
D03*
Y10772D02*
D03*
Y9772D02*
D03*
Y8772D02*
D03*
Y7772D02*
D03*
Y6767D02*
D03*
Y5767D02*
D03*
Y4767D02*
D03*
Y3767D02*
D03*
Y2767D02*
D03*
X2033Y3767D02*
D03*
Y2767D02*
D03*
Y4767D02*
D03*
Y5767D02*
D03*
Y6767D02*
D03*
Y7772D02*
D03*
Y8772D02*
D03*
Y9772D02*
D03*
Y10772D02*
D03*
Y11772D02*
D03*
Y12767D02*
D03*
Y13767D02*
D03*
Y14767D02*
D03*
Y15767D02*
D03*
Y16767D02*
D03*
D73*
X141732Y5906D02*
D03*
Y13780D02*
D03*
X102362Y5906D02*
D03*
Y13780D02*
D03*
X59055Y5906D02*
D03*
Y13780D02*
D03*
X7874D02*
D03*
Y5906D02*
D03*
D74*
X91250Y10200D02*
D03*
X148600Y1750D02*
D03*
M02*
