G04 Layer_Color=255*
%FSLAX24Y24*%
%MOIN*%
G70*
G01*
G75*
%ADD63C,0.1575*%
%ADD64P,0.0213X8X22.5*%
%ADD65C,0.1102*%
%ADD66C,0.0236*%
%ADD67C,0.0433*%
%ADD68C,0.0591*%
%ADD69R,0.1181X0.1181*%
%ADD70C,0.0709*%
%ADD71C,0.0197*%
%ADD73C,0.2559*%
D63*
X98425Y13780D02*
D03*
X17717Y5906D02*
D03*
Y13780D02*
D03*
X135827D02*
D03*
Y5906D02*
D03*
X98425D02*
D03*
D64*
X141050Y16800D02*
D03*
X142800Y3150D02*
D03*
X124000Y2400D02*
D03*
X111600Y9100D02*
D03*
X46350Y18050D02*
D03*
X48000Y1950D02*
D03*
X27950Y4450D02*
D03*
X22950Y1450D02*
D03*
X10900Y3250D02*
D03*
X9500Y14950D02*
D03*
X11400Y17350D02*
D03*
D65*
X59055Y13189D02*
D03*
Y6496D02*
D03*
D66*
X1450Y9013D02*
D03*
Y10587D02*
D03*
D67*
X71600Y8151D02*
D03*
Y11301D02*
D03*
X113841Y1650D02*
D03*
X112659D02*
D03*
D68*
X51375Y1551D02*
D03*
Y2535D02*
D03*
D69*
X53950Y2430D02*
D03*
X55950D02*
D03*
D70*
X156483Y16817D02*
D03*
X155483D02*
D03*
Y15817D02*
D03*
X156483D02*
D03*
Y14817D02*
D03*
X155483D02*
D03*
Y13817D02*
D03*
X156483D02*
D03*
Y12817D02*
D03*
X155483D02*
D03*
Y11817D02*
D03*
X156483D02*
D03*
Y10817D02*
D03*
X155483D02*
D03*
Y9817D02*
D03*
X156483D02*
D03*
Y8817D02*
D03*
X155483D02*
D03*
Y7817D02*
D03*
X156483D02*
D03*
X155483Y6817D02*
D03*
X156483D02*
D03*
Y5817D02*
D03*
X155483D02*
D03*
Y4817D02*
D03*
X156483D02*
D03*
Y3817D02*
D03*
X155483D02*
D03*
Y2817D02*
D03*
X156483D02*
D03*
D71*
X118100Y8000D02*
D03*
Y8250D02*
D03*
Y8500D02*
D03*
Y8750D02*
D03*
Y9000D02*
D03*
Y9250D02*
D03*
Y9500D02*
D03*
Y9750D02*
D03*
Y10000D02*
D03*
Y10250D02*
D03*
Y10500D02*
D03*
Y10750D02*
D03*
Y11000D02*
D03*
Y11250D02*
D03*
Y11500D02*
D03*
Y11750D02*
D03*
Y12000D02*
D03*
X118450D02*
D03*
Y11750D02*
D03*
Y11500D02*
D03*
Y11250D02*
D03*
Y11000D02*
D03*
Y10750D02*
D03*
Y10500D02*
D03*
Y10250D02*
D03*
Y10000D02*
D03*
Y9750D02*
D03*
Y9500D02*
D03*
Y9250D02*
D03*
Y9000D02*
D03*
Y8750D02*
D03*
Y8500D02*
D03*
Y8250D02*
D03*
Y8000D02*
D03*
X118750Y11500D02*
D03*
Y11250D02*
D03*
Y11000D02*
D03*
Y10750D02*
D03*
Y10500D02*
D03*
Y10250D02*
D03*
Y10000D02*
D03*
Y9750D02*
D03*
Y9500D02*
D03*
Y9250D02*
D03*
Y9000D02*
D03*
Y8750D02*
D03*
Y8500D02*
D03*
X119050Y11500D02*
D03*
Y11250D02*
D03*
Y11000D02*
D03*
Y10750D02*
D03*
Y10500D02*
D03*
Y10250D02*
D03*
Y10000D02*
D03*
Y9750D02*
D03*
Y9500D02*
D03*
Y9250D02*
D03*
Y9000D02*
D03*
Y8750D02*
D03*
Y8500D02*
D03*
X119350Y11500D02*
D03*
Y11250D02*
D03*
Y11000D02*
D03*
Y10750D02*
D03*
Y10500D02*
D03*
Y10250D02*
D03*
Y10000D02*
D03*
Y9750D02*
D03*
Y9500D02*
D03*
Y9250D02*
D03*
Y9000D02*
D03*
Y8750D02*
D03*
Y8500D02*
D03*
X119650Y11500D02*
D03*
Y11250D02*
D03*
Y11000D02*
D03*
Y10750D02*
D03*
Y10500D02*
D03*
Y10250D02*
D03*
Y10000D02*
D03*
Y9750D02*
D03*
Y9500D02*
D03*
Y9250D02*
D03*
Y9000D02*
D03*
Y8750D02*
D03*
Y8500D02*
D03*
X119950Y11500D02*
D03*
Y11250D02*
D03*
Y11000D02*
D03*
Y10750D02*
D03*
Y10500D02*
D03*
Y10250D02*
D03*
Y10000D02*
D03*
Y9750D02*
D03*
Y9500D02*
D03*
Y9250D02*
D03*
Y9000D02*
D03*
Y8750D02*
D03*
Y8500D02*
D03*
X120200Y11500D02*
D03*
Y11250D02*
D03*
Y11000D02*
D03*
Y10750D02*
D03*
Y10500D02*
D03*
Y10250D02*
D03*
Y10000D02*
D03*
Y9750D02*
D03*
Y9500D02*
D03*
Y9250D02*
D03*
Y9000D02*
D03*
Y8750D02*
D03*
Y8500D02*
D03*
D73*
X98425Y13780D02*
D03*
X17717D02*
D03*
Y5906D02*
D03*
X98425D02*
D03*
X135827D02*
D03*
Y13780D02*
D03*
M02*
