G04 Layer_Color=8388736*
%FSLAX24Y24*%
%MOIN*%
G70*
G01*
G75*
%ADD78R,0.0671X0.0671*%
%ADD79R,0.0671X0.0552*%
%ADD80P,0.1923X4X90.0*%
G04:AMPARAMS|DCode=81|XSize=17.8mil|YSize=43.4mil|CornerRadius=0mil|HoleSize=0mil|Usage=FLASHONLY|Rotation=45.000|XOffset=0mil|YOffset=0mil|HoleType=Round|Shape=Rectangle|*
%AMROTATEDRECTD81*
4,1,4,0.0090,-0.0217,-0.0217,0.0090,-0.0090,0.0217,0.0217,-0.0090,0.0090,-0.0217,0.0*
%
%ADD81ROTATEDRECTD81*%

G04:AMPARAMS|DCode=82|XSize=17.8mil|YSize=43.4mil|CornerRadius=0mil|HoleSize=0mil|Usage=FLASHONLY|Rotation=135.000|XOffset=0mil|YOffset=0mil|HoleType=Round|Shape=Rectangle|*
%AMROTATEDRECTD82*
4,1,4,0.0217,0.0090,-0.0090,-0.0217,-0.0217,-0.0090,0.0090,0.0217,0.0217,0.0090,0.0*
%
%ADD82ROTATEDRECTD82*%

%ADD83R,0.0651X0.0533*%
%ADD84R,0.0671X0.0631*%
%ADD85R,0.0552X0.0631*%
%ADD86R,0.0710X0.0237*%
%ADD87R,0.0789X0.0395*%
%ADD88R,0.0749X0.0789*%
%ADD89R,0.0671X0.0552*%
%ADD90R,0.1025X0.0631*%
%ADD91R,0.0237X0.0474*%
%ADD92R,0.0533X0.0651*%
%ADD93R,0.0671X0.0474*%
%ADD94R,0.0710X0.0710*%
%ADD95R,0.0671X0.0671*%
%ADD96R,0.0867X0.0474*%
%ADD97R,0.0946X0.0434*%
%ADD98R,0.0671X0.1852*%
%ADD99R,0.0572X0.0552*%
%ADD100R,0.0434X0.0434*%
%ADD101R,0.0592X0.0671*%
%ADD102R,0.0671X0.0592*%
%ADD103R,0.0671X0.0671*%
%ADD104R,0.0356X0.0671*%
%ADD105R,0.0474X0.0395*%
%ADD106R,0.0671X0.1261*%
%ADD107R,0.0789X0.0789*%
%ADD108R,0.1261X0.2245*%
%ADD109R,0.0710X0.0986*%
%ADD110R,0.0867X0.1379*%
%ADD111R,0.0769X0.0631*%
%ADD112R,0.0769X0.0631*%
%ADD113R,0.0867X0.0434*%
%ADD114R,0.0434X0.0867*%
%ADD115R,0.0604X0.0604*%
%ADD116R,0.1064X0.1064*%
%ADD117R,0.0560X0.0671*%
%ADD118R,0.0474X0.0671*%
%ADD119R,0.0832X0.4332*%
%ADD120R,0.2363X0.3360*%
%ADD121R,0.0930X0.0501*%
%ADD122C,0.1655*%
%ADD123C,0.1182*%
%ADD124C,0.0316*%
%ADD125C,0.0513*%
%ADD126C,0.0671*%
%ADD127R,0.1261X0.1261*%
%ADD128C,0.0789*%
%ADD129C,0.0277*%
%ADD130C,0.0277*%
D78*
X122400Y13050D02*
D03*
Y17400D02*
D03*
D79*
Y7250D02*
D03*
Y2500D02*
D03*
D80*
X27559Y9843D02*
D03*
D81*
X27949Y8896D02*
D03*
X28088Y9035D02*
D03*
X28227Y9174D02*
D03*
X28366Y9314D02*
D03*
X28506Y9453D02*
D03*
X28645Y9592D02*
D03*
X27810Y8757D02*
D03*
X26473Y10093D02*
D03*
X27309Y10928D02*
D03*
X27169Y10789D02*
D03*
X27030Y10650D02*
D03*
X26891Y10511D02*
D03*
X26752Y10371D02*
D03*
X26613Y10232D02*
D03*
D82*
X28645Y10093D02*
D03*
X27810Y10928D02*
D03*
X27949Y10789D02*
D03*
X28088Y10650D02*
D03*
X28227Y10511D02*
D03*
X28366Y10371D02*
D03*
X28506Y10232D02*
D03*
X27309Y8757D02*
D03*
X26473Y9592D02*
D03*
X26613Y9453D02*
D03*
X26752Y9314D02*
D03*
X26891Y9174D02*
D03*
X27030Y9035D02*
D03*
X27169Y8896D02*
D03*
D83*
X25800Y17100D02*
D03*
Y16391D02*
D03*
X24550Y15600D02*
D03*
Y14891D02*
D03*
X24900Y2159D02*
D03*
Y1450D02*
D03*
X23700D02*
D03*
Y2159D02*
D03*
X29750Y1450D02*
D03*
Y2159D02*
D03*
X28550D02*
D03*
Y1450D02*
D03*
X26150Y2150D02*
D03*
Y1441D02*
D03*
X27350Y2159D02*
D03*
Y1450D02*
D03*
X63000Y13104D02*
D03*
Y12396D02*
D03*
X64189D02*
D03*
Y13104D02*
D03*
X65439Y12396D02*
D03*
Y13104D02*
D03*
X53600Y7409D02*
D03*
Y6700D02*
D03*
X54800Y7409D02*
D03*
Y6700D02*
D03*
X56000D02*
D03*
Y7409D02*
D03*
X57200Y6700D02*
D03*
Y7409D02*
D03*
X45550Y2641D02*
D03*
Y3350D02*
D03*
X41900Y2641D02*
D03*
Y3350D02*
D03*
X37550Y3359D02*
D03*
Y2650D02*
D03*
X49150Y2641D02*
D03*
Y3350D02*
D03*
X47950D02*
D03*
Y2641D02*
D03*
X44350D02*
D03*
Y3350D02*
D03*
X43150D02*
D03*
Y2641D02*
D03*
X46750Y3350D02*
D03*
Y2641D02*
D03*
X79900Y16150D02*
D03*
Y16859D02*
D03*
D84*
X541Y8206D02*
D03*
Y11394D02*
D03*
D85*
X1529Y8520D02*
D03*
Y11080D02*
D03*
D86*
X1765Y9288D02*
D03*
Y9544D02*
D03*
Y10312D02*
D03*
Y10056D02*
D03*
Y9800D02*
D03*
D87*
X67269Y7521D02*
D03*
Y9687D02*
D03*
Y10120D02*
D03*
Y10986D02*
D03*
Y10553D02*
D03*
Y8820D02*
D03*
Y9254D02*
D03*
Y8387D02*
D03*
Y7954D02*
D03*
D88*
X67663Y12797D02*
D03*
D89*
Y7049D02*
D03*
D90*
X71403Y13151D02*
D03*
X71443Y7049D02*
D03*
D91*
X63432Y8901D02*
D03*
X63688D02*
D03*
X63944D02*
D03*
X64456D02*
D03*
X64712D02*
D03*
X64968D02*
D03*
X63432Y11499D02*
D03*
X63688D02*
D03*
X63944D02*
D03*
X64968D02*
D03*
X64712D02*
D03*
X64456D02*
D03*
X64200Y8901D02*
D03*
Y11499D02*
D03*
D92*
X62996Y6861D02*
D03*
X63704D02*
D03*
X64346Y5561D02*
D03*
X65054D02*
D03*
X13150Y18700D02*
D03*
X12441D02*
D03*
X12450Y17500D02*
D03*
X13159D02*
D03*
X145150Y18700D02*
D03*
X144441D02*
D03*
X144450Y17500D02*
D03*
X145159D02*
D03*
X13150Y1050D02*
D03*
X12441D02*
D03*
X12450Y2250D02*
D03*
X13159D02*
D03*
X145150Y950D02*
D03*
X144441D02*
D03*
X144450Y2150D02*
D03*
X145159D02*
D03*
X17400Y8950D02*
D03*
X16691D02*
D03*
X17400Y10800D02*
D03*
X16691D02*
D03*
X11417Y9843D02*
D03*
X12126D02*
D03*
X143450D02*
D03*
X144159D02*
D03*
X134291D02*
D03*
X135000D02*
D03*
X126900Y5550D02*
D03*
X127609D02*
D03*
X126950Y14500D02*
D03*
X127659D02*
D03*
X114780Y10050D02*
D03*
X114071D02*
D03*
X114780Y8850D02*
D03*
X114071D02*
D03*
X114780Y11250D02*
D03*
X114071D02*
D03*
D93*
X41331Y7938D02*
D03*
Y6462D02*
D03*
X38969Y7938D02*
D03*
Y6462D02*
D03*
X44831Y7938D02*
D03*
Y6462D02*
D03*
X42469Y7938D02*
D03*
Y6462D02*
D03*
X48331Y7938D02*
D03*
Y6462D02*
D03*
X45969Y7938D02*
D03*
Y6462D02*
D03*
D94*
X16300Y18600D02*
D03*
Y1300D02*
D03*
D95*
X15926Y17813D02*
D03*
X16674Y17805D02*
D03*
X148100Y18500D02*
D03*
X147726Y17713D02*
D03*
X148474Y17705D02*
D03*
X16674Y2087D02*
D03*
X15926Y2095D02*
D03*
X148100Y1150D02*
D03*
X148474Y1937D02*
D03*
X147726Y1945D02*
D03*
X80033Y18950D02*
D03*
D96*
X10236Y15950D02*
D03*
Y15450D02*
D03*
Y14950D02*
D03*
Y16450D02*
D03*
X142126Y15950D02*
D03*
Y15450D02*
D03*
Y14950D02*
D03*
Y16450D02*
D03*
X10236Y4250D02*
D03*
Y3750D02*
D03*
Y3250D02*
D03*
Y4750D02*
D03*
X142126Y4150D02*
D03*
Y3650D02*
D03*
Y3150D02*
D03*
Y4650D02*
D03*
D97*
X10630Y17360D02*
D03*
Y17860D02*
D03*
Y18360D02*
D03*
Y18860D02*
D03*
X142520Y17360D02*
D03*
Y17860D02*
D03*
Y18360D02*
D03*
Y18860D02*
D03*
X10630Y825D02*
D03*
Y1325D02*
D03*
Y1825D02*
D03*
Y2325D02*
D03*
X142520Y700D02*
D03*
Y1200D02*
D03*
Y1700D02*
D03*
Y2200D02*
D03*
D98*
X9134Y18110D02*
D03*
X141024D02*
D03*
X9134Y1575D02*
D03*
X141024Y1450D02*
D03*
D99*
X52500Y6800D02*
D03*
Y7391D02*
D03*
D100*
X55980Y9250D02*
D03*
Y8750D02*
D03*
X53500Y9250D02*
D03*
Y8750D02*
D03*
D101*
X19494Y8950D02*
D03*
X18706D02*
D03*
Y10800D02*
D03*
X19494D02*
D03*
X132427Y9843D02*
D03*
X133215D02*
D03*
D102*
X9843Y9449D02*
D03*
Y10236D02*
D03*
X141732Y9449D02*
D03*
Y10236D02*
D03*
D103*
X116200Y1800D02*
D03*
Y1013D02*
D03*
X40050Y1700D02*
D03*
X40424Y2487D02*
D03*
X39676D02*
D03*
X40050Y4350D02*
D03*
X39676Y3563D02*
D03*
X40424D02*
D03*
D104*
X114136Y961D02*
D03*
X112955D02*
D03*
X112364D02*
D03*
D105*
X114687Y2063D02*
D03*
Y1237D02*
D03*
X111813Y2063D02*
D03*
Y1237D02*
D03*
D106*
X122400Y3275D02*
D03*
Y6425D02*
D03*
X122400Y13625D02*
D03*
Y16775D02*
D03*
D107*
X126700Y16000D02*
D03*
X128208D02*
D03*
D108*
X127400Y11929D02*
D03*
Y8071D02*
D03*
D109*
X126618Y3700D02*
D03*
X128350D02*
D03*
D110*
X110433Y10050D02*
D03*
D111*
X112500Y9144D02*
D03*
D112*
Y10050D02*
D03*
Y10956D02*
D03*
D113*
X46990Y18303D02*
D03*
Y17803D02*
D03*
X40297Y12303D02*
D03*
X46990Y16803D02*
D03*
Y17303D02*
D03*
Y16303D02*
D03*
Y12803D02*
D03*
Y13303D02*
D03*
Y13803D02*
D03*
Y14303D02*
D03*
Y14803D02*
D03*
Y15303D02*
D03*
Y15803D02*
D03*
Y18803D02*
D03*
X40297D02*
D03*
Y18303D02*
D03*
X46990Y12303D02*
D03*
X40297Y17303D02*
D03*
Y16803D02*
D03*
Y17803D02*
D03*
Y12803D02*
D03*
Y13303D02*
D03*
Y13803D02*
D03*
Y14303D02*
D03*
Y14803D02*
D03*
Y15303D02*
D03*
Y15803D02*
D03*
Y16303D02*
D03*
D114*
X44413Y11909D02*
D03*
X44913D02*
D03*
X45913D02*
D03*
X45413D02*
D03*
X43413D02*
D03*
X42913D02*
D03*
X43913D02*
D03*
X42413D02*
D03*
X41913D02*
D03*
X41413D02*
D03*
D115*
X43972Y15850D02*
D03*
Y15128D02*
D03*
X43250D02*
D03*
X43972Y16572D02*
D03*
X42528Y15128D02*
D03*
X43250Y16572D02*
D03*
X42528D02*
D03*
Y15850D02*
D03*
X43250D02*
D03*
D116*
X84278Y16500D02*
D03*
X83050Y18213D02*
D03*
Y16500D02*
D03*
X60197Y6890D02*
D03*
Y12795D02*
D03*
D117*
X81400Y17606D02*
D03*
Y16500D02*
D03*
D118*
X80289Y18174D02*
D03*
X79777D02*
D03*
D119*
X118280Y9989D02*
D03*
D120*
X119152D02*
D03*
D121*
X123481Y11327D02*
D03*
Y10658D02*
D03*
Y9989D02*
D03*
Y8650D02*
D03*
Y9319D02*
D03*
D122*
X98425Y13780D02*
D03*
X17717Y5906D02*
D03*
Y13780D02*
D03*
X135827D02*
D03*
Y5906D02*
D03*
X98425D02*
D03*
D123*
X59055Y13189D02*
D03*
Y6496D02*
D03*
D124*
X1450Y9013D02*
D03*
Y10587D02*
D03*
D125*
X71600Y8151D02*
D03*
Y11301D02*
D03*
X113841Y1650D02*
D03*
X112659D02*
D03*
D126*
X51375Y1551D02*
D03*
Y2535D02*
D03*
D127*
X53950Y2430D02*
D03*
X55950D02*
D03*
D128*
X156483Y16817D02*
D03*
X155483D02*
D03*
Y15817D02*
D03*
X156483D02*
D03*
Y14817D02*
D03*
X155483D02*
D03*
Y13817D02*
D03*
X156483D02*
D03*
Y12817D02*
D03*
X155483D02*
D03*
Y11817D02*
D03*
X156483D02*
D03*
Y10817D02*
D03*
X155483D02*
D03*
Y9817D02*
D03*
X156483D02*
D03*
Y8817D02*
D03*
X155483D02*
D03*
Y7817D02*
D03*
X156483D02*
D03*
X155483Y6817D02*
D03*
X156483D02*
D03*
Y5817D02*
D03*
X155483D02*
D03*
Y4817D02*
D03*
X156483D02*
D03*
Y3817D02*
D03*
X155483D02*
D03*
Y2817D02*
D03*
X156483D02*
D03*
D129*
X118100Y8000D02*
D03*
Y8250D02*
D03*
Y8500D02*
D03*
Y8750D02*
D03*
Y9000D02*
D03*
Y9250D02*
D03*
Y9500D02*
D03*
Y9750D02*
D03*
Y10000D02*
D03*
Y10250D02*
D03*
Y10500D02*
D03*
Y10750D02*
D03*
Y11000D02*
D03*
Y11250D02*
D03*
Y11500D02*
D03*
Y11750D02*
D03*
Y12000D02*
D03*
X118450D02*
D03*
Y11750D02*
D03*
Y11500D02*
D03*
Y11250D02*
D03*
Y11000D02*
D03*
Y10750D02*
D03*
Y10500D02*
D03*
Y10250D02*
D03*
Y10000D02*
D03*
Y9750D02*
D03*
Y9500D02*
D03*
Y9250D02*
D03*
Y9000D02*
D03*
Y8750D02*
D03*
Y8500D02*
D03*
Y8250D02*
D03*
Y8000D02*
D03*
X118750Y11500D02*
D03*
Y11250D02*
D03*
Y11000D02*
D03*
Y10750D02*
D03*
Y10500D02*
D03*
Y10250D02*
D03*
Y10000D02*
D03*
Y9750D02*
D03*
Y9500D02*
D03*
Y9250D02*
D03*
Y9000D02*
D03*
Y8750D02*
D03*
Y8500D02*
D03*
X119050Y11500D02*
D03*
Y11250D02*
D03*
Y11000D02*
D03*
Y10750D02*
D03*
Y10500D02*
D03*
Y10250D02*
D03*
Y10000D02*
D03*
Y9750D02*
D03*
Y9500D02*
D03*
Y9250D02*
D03*
Y9000D02*
D03*
Y8750D02*
D03*
Y8500D02*
D03*
X119350Y11500D02*
D03*
Y11250D02*
D03*
Y11000D02*
D03*
Y10750D02*
D03*
Y10500D02*
D03*
Y10250D02*
D03*
Y10000D02*
D03*
Y9750D02*
D03*
Y9500D02*
D03*
Y9250D02*
D03*
Y9000D02*
D03*
Y8750D02*
D03*
Y8500D02*
D03*
X119650Y11500D02*
D03*
Y11250D02*
D03*
Y11000D02*
D03*
Y10750D02*
D03*
Y10500D02*
D03*
Y10250D02*
D03*
Y10000D02*
D03*
Y9750D02*
D03*
Y9500D02*
D03*
Y9250D02*
D03*
Y9000D02*
D03*
Y8750D02*
D03*
Y8500D02*
D03*
X119950Y11500D02*
D03*
Y11250D02*
D03*
Y11000D02*
D03*
Y10750D02*
D03*
Y10500D02*
D03*
Y10250D02*
D03*
Y10000D02*
D03*
Y9750D02*
D03*
Y9500D02*
D03*
Y9250D02*
D03*
Y9000D02*
D03*
Y8750D02*
D03*
Y8500D02*
D03*
X120200Y11500D02*
D03*
Y11250D02*
D03*
Y11000D02*
D03*
Y10750D02*
D03*
Y10500D02*
D03*
Y10250D02*
D03*
Y10000D02*
D03*
Y9750D02*
D03*
Y9500D02*
D03*
Y9250D02*
D03*
Y9000D02*
D03*
Y8750D02*
D03*
Y8500D02*
D03*
D130*
X122250Y5200D02*
D03*
M02*
