M48
;Layer_Color=9474304
;FILE_FORMAT=2:4
INCH,LZ
;TYPE=PLATED
T1F00S00C0.0118
T2F00S00C0.0236
T3F00S00C0.0354
T4F00S00C0.0374
T5F00S00C0.0394
T6F00S00C0.0512
T7F00S00C0.0945
T8F00S00C0.1575
%
T01
X14Y000306
X1435
Y00365
X1428Y00315
X1535Y00425
Y0123
X13475Y01125
X12905Y0107
X1255Y00865
X12475Y0047
Y00415
X124Y0024
X13825Y00125
X12225Y0052
X12175Y00575
Y0063
Y00685
Y00735
X1202Y0085
X11995
Y00875
Y009
Y00925
Y0095
Y00975
Y01
Y01025
Y0105
Y01075
Y011
Y01125
Y0115
X1202
Y01125
Y011
Y01075
Y0105
Y01025
Y01
Y00975
Y0095
Y00925
Y009
Y00875
X11965
Y009
Y00925
Y0095
Y00975
Y01
Y01025
Y0105
Y01075
Y011
Y01125
Y0115
X11935
Y01125
Y011
Y01075
Y0105
Y01025
Y01
Y00975
Y0095
Y00925
Y009
Y00875
Y0085
X11905
Y00875
Y009
Y00925
Y0095
Y00975
Y01
Y01025
Y0105
Y01075
Y011
Y01125
Y0115
X11875
Y01125
Y011
Y01075
Y0105
Y01025
Y01
Y00975
Y0095
Y00925
Y009
Y00875
Y0085
X11845
Y00875
Y009
Y00925
Y0095
Y00975
Y01
Y01025
Y0105
Y01075
Y011
Y01125
Y0115
Y01175
Y012
X1181
Y01175
Y0115
Y01125
Y011
Y01075
Y0105
Y01025
Y01
Y00975
Y0095
Y00925
Y009
Y00875
Y0085
Y00825
Y008
X11845
Y00825
X11965Y0085
X11975Y0036
Y00305
X11725Y00075
X11075Y000759
X1116Y0091
X1025Y00875
X08175Y00825
Y00775
Y00675
Y00625
Y00575
Y00525
X0812Y01025
X07925
X069
X0687Y0097
X0679
X06475
X06375
X06275Y01125
X0642Y0119
X062Y00875
X06165
X06625Y006
Y005547
Y005094
Y004642
X06875
X068706Y005094
X0725Y0065
X0611Y00875
X06055Y00975
X060097
X059644
X05915
X0551Y00825
X0531Y00385
X05155Y00335
X048Y00195
X04825Y01075
X051Y011444
X04545Y0112
X04475Y01025
X039Y01
X04125Y00435
X04375
X02795Y00445
X02555Y00275
X02425
X02295Y00145
X02065Y00675
Y00875
X02495Y0116
X0109Y00325
X006Y00755
X005Y00855
X0095Y01495
X0114Y01735
X01875Y0167
X0215
X02525Y0156
X02625Y01365
X0285Y0171
X03115Y01645
X03275
Y016889
X0319Y01775
X0345Y0178
X0335Y015
X03905Y0153
X03945Y0133
X0415Y0135
X0419Y0148
Y0153
Y0158
X041897Y016303
X04225Y018447
Y0189
X038Y0173
X04635Y01805
X04825Y01735
Y01685
Y0158
X04605Y01515
X04825Y01235
X054997Y013303
X05745Y01575
X06125Y0148
X055Y0183
X05425Y01885
X06275Y01475
X064Y0139
X06525
X06475Y0131
X066
X06875Y0168
Y0183
X0687Y01885
X0736Y0178
X07325Y0173
X07315Y0158
X07875Y0163
X07925Y019379
X083Y0174
X08525Y0163
X14105Y0168
X1435Y0165
X143Y01545
T02
X00145Y009013
Y010587
T03
X051375Y001551
Y002535
T04
X156483Y002817
Y003817
Y004817
Y005817
Y006817
Y007817
Y008817
Y009817
Y010817
Y011817
X155483
Y010817
Y009817
Y008817
Y007817
Y006817
Y005817
Y004817
Y003817
Y002817
Y012817
Y013817
Y014817
Y015817
Y016817
X156483
Y015817
Y014817
Y013817
Y012817
T05
X112659Y00165
X113841
X0716Y008151
Y011301
T06
X05395Y00243
X05595
T07
X059055Y006496
Y013189
T08
X135827Y005906
X098425
X017717
Y01378
X098425
X135827
M30
